<svg width="406" height="259" viewBox="0 0 406 259" fill="none" xmlns="http://www.w3.org/2000/svg">
<path fill-rule="evenodd" clip-rule="evenodd" d="M151.042 1.42346C150.008 2.62608 149.745 4.82247 149.448 14.7205L149.092 26.5769L110.544 26.5989C89.3428 26.6103 71.7556 26.8603 71.4624 27.153C70.7244 27.8896 70.6098 27.8875 112.086 27.9684L149.092 28.0409V38.2969V48.5536L115.949 48.597L82.8069 48.641L82.8574 59.0526L82.908 69.4641L108.883 69.4997C123.17 69.5196 138.125 69.5494 142.117 69.5657L149.376 69.5963L149.422 123.938L149.467 178.28H137.619C126.033 178.28 122.453 178.625 110.467 180.901C105.203 181.901 104.448 181.906 103.35 180.943C100.198 178.177 90.1932 174.629 82.908 173.693C80.9509 173.441 78.3092 173.056 77.0368 172.837L74.7239 172.438L74.7011 158.489C74.6769 143.541 74.6841 143.573 70.7621 140.826L68.5788 139.298L68.6848 86.5111C68.7432 57.4777 68.5524 32.9245 68.2607 31.9478C67.7404 30.2082 67.7269 30.2153 67.601 32.303C67.5298 33.4751 67.4615 57.8485 67.448 86.467C67.4344 115.086 67.196 138.5 66.9171 138.5C66.6381 138.5 64.8383 138.015 62.9168 137.421C60.9954 136.828 55.7405 135.872 51.2393 135.296C31.4246 132.762 10.0457 135.687 1.95706 142.039L0 143.575V176.828V210.08L2.8146 212.618C8.01539 217.308 13.8446 219.597 24.7507 221.232C28.7459 221.831 32.1775 222.321 32.3754 222.321C32.5739 222.321 32.7362 225.248 32.7362 228.825C32.7362 234.691 32.9127 235.56 34.5395 237.688C37.9896 242.204 46.1531 245.709 57.5702 247.577C77.3037 250.807 101.744 245.479 106.554 236.9C107.173 235.797 107.902 235.817 116.892 237.186C123.357 238.17 130.027 238.659 137.001 238.659C147.11 238.659 162.86 237.237 167.951 235.864C179.123 232.851 183.447 230.958 186.799 227.612C188.916 225.499 189.301 224.625 189.301 221.932V218.748L210.4 218.936L231.499 219.125L232.676 222.729C236.321 233.891 244.871 241.603 255.794 243.578C262.535 244.797 377.201 244.606 381.804 243.368C391.216 240.836 398.678 234.934 403.238 226.416L406 221.256V212.731C406 204.48 405.924 204.055 403.617 199.469C401.427 195.113 396.257 189.146 392.301 186.41C390.929 185.461 390.699 184.666 390.699 180.856C390.699 173.867 389.418 168.513 386.022 161.321C383.366 155.695 381.967 153.761 377.004 148.853C372.742 144.639 369.569 142.24 365.45 140.119L359.771 137.194L359.659 83.328C359.598 53.7015 359.512 29.2329 359.467 28.9537C359.15 26.9583 355.388 26.7175 322.736 26.6046C304.34 26.5407 287.687 26.7175 285.73 26.9981L282.172 27.5081L285.374 27.7113C287.136 27.8228 303.697 27.9422 322.177 27.977C353.435 28.0366 355.866 28.129 357.048 29.3096C358.244 30.5037 358.322 33.6811 358.373 83.5077C358.403 112.619 358.19 136.584 357.899 136.763C357.609 136.943 356.464 136.704 355.354 136.233C354.117 135.706 349.485 135.361 343.374 135.339C334.054 135.306 333.067 135.436 328.074 137.354C318.483 141.037 311.025 146.491 304.899 154.305L302.81 156.968L297.848 155.467C293.96 154.29 291.611 154.033 286.987 154.275L281.087 154.584L281.274 128.606L281.46 102.627L312.951 102.443L344.442 102.257V91.7875V81.317H312.951H281.46L281.299 42.4034C281.149 6.42501 281.042 3.35916 279.875 1.75803L278.613 0.0269173L215.447 0.0041878C152.85 -0.017833 152.27 -0.00504592 151.042 1.42346ZM152.761 3.41243C151.678 4.60581 151.583 11.7405 151.583 91.5176C151.583 160.357 151.767 178.375 152.472 178.571C152.962 178.708 156.16 179.186 159.581 179.634C163.001 180.082 166.284 180.634 166.876 180.861C167.809 181.218 167.951 179.707 167.951 169.444C167.951 157.831 167.983 157.583 169.698 155.872L171.444 154.128H215.276H259.108L260.854 155.872C262.248 157.262 262.601 158.341 262.601 161.199C262.601 163.17 262.741 164.783 262.913 164.783C263.084 164.783 264.286 163.802 265.582 162.604C266.878 161.405 270.412 159.247 273.435 157.809L278.931 155.193L278.95 79.8288C278.969 7.70578 278.913 4.41402 277.668 3.28883C276.478 2.21408 271.114 2.11321 215.152 2.11321C156.753 2.11321 153.884 2.17287 152.761 3.41243ZM160.437 15.8158C160.242 16.3244 160.171 21.3608 160.28 27.0081L160.479 37.2754H215.276H270.074V26.265V15.2546L215.433 15.0728C171.079 14.925 160.726 15.065 160.437 15.8158ZM162.969 26.265V34.7892H215.276H267.583V26.265V17.7409H215.276H162.969V26.265ZM68.9396 28.9288C68.055 30.0555 68.0799 30.0803 69.2086 29.1974C69.8932 28.661 70.454 28.1013 70.454 27.9543C70.454 27.3696 69.8697 27.7454 68.9396 28.9288ZM160.282 59.1186L160.479 69.9514H215.276H270.074L270.27 59.1186L270.466 48.2858H215.276H160.086L160.282 59.1186ZM285.374 49.0587L282.172 49.4934L285.73 49.6675C287.687 49.7634 301.458 49.8614 316.331 49.8855L343.374 49.9296L343.16 59.2302L342.946 68.5307L312.737 68.4576C296.122 68.4171 282.528 68.6409 282.528 68.9555C282.528 69.2695 296.458 69.538 313.485 69.5515L344.442 69.5757V59.0803V48.5849L316.509 48.6048C301.147 48.6154 287.136 48.82 285.374 49.0587ZM84.4181 50.3089C83.7947 51.3915 84.1064 67.4617 84.7583 67.8644C85.3483 68.2281 120.629 68.4519 143.242 68.2352L149.491 68.1756L149.291 59.1186L149.092 50.0617L116.889 49.9537C99.1764 49.8941 84.5647 50.0539 84.4181 50.3089ZM162.969 58.941V67.4652H215.276H267.583V58.941V50.4169H215.276H162.969V58.941ZM44.1227 73.148C43.2637 73.7021 43.3762 73.8385 44.6984 73.8477C45.615 73.8534 46.1474 73.5444 45.9018 73.148C45.3731 72.2942 45.4471 72.2942 44.1227 73.148ZM41.5308 73.9578C40.4164 75.3728 39.8862 78.0572 40.6313 78.5168C40.9857 78.7356 41.2761 78.3201 41.2761 77.5941C41.2761 76.8681 41.6326 75.9177 42.0682 75.4836C42.503 75.0489 42.7314 74.3101 42.5756 73.8427C42.3663 73.2162 42.0916 73.2467 41.5308 73.9578ZM48.1834 76.5911C48.6531 80.086 46.6505 81.8888 43.3491 80.9441C40.8057 80.216 40.7181 80.564 43.0595 82.0956C45.4079 83.6313 48.6289 82.401 49.8295 79.5092C50.5589 77.7518 50.4771 77.2155 49.2445 75.6513L47.8134 73.8349L48.1834 76.5911ZM84.1704 81.6722C82.9749 81.9961 82.8575 82.9231 82.8439 92.1498L82.8297 102.272H115.427C136.142 102.272 148.025 102.019 148.025 101.579C148.025 101.136 136.494 100.944 116.119 101.046L84.2124 101.207V91.9722V82.7377L110.604 82.786C125.118 82.8123 139.556 82.6184 142.687 82.3555L148.38 81.8761L143.755 81.7063C134.275 81.3582 85.4336 81.3305 84.1704 81.6722ZM160.123 91.9722V102.983H215.276H270.429V91.9722V80.9618H215.276H160.123V91.9722ZM281.346 83.4893C280.839 84.8077 281.438 100.857 281.994 100.854C282.288 100.853 296.138 100.852 312.773 100.852H343.018V91.9722C343.018 85.4036 342.787 83.063 342.129 82.9778C341.64 82.9153 327.828 82.835 311.437 82.8002C291.077 82.7576 281.543 82.9757 281.346 83.4893ZM162.969 91.6171V100.141H215.276H267.583V91.6171V83.0929H215.276H162.969V91.6171ZM19.8424 106.712C19.7954 107.591 19.8097 108.71 19.873 109.198C19.9492 109.781 19.0005 110.086 17.1111 110.086C14.7078 110.086 14.2331 110.321 14.2331 111.507C14.2331 112.688 14.7078 112.927 17.0456 112.927C19.7221 112.927 19.846 113.026 19.6026 114.946C19.4624 116.056 19.6019 117.376 19.9129 117.878C20.8437 119.382 22.0613 117.985 22.0613 115.414C22.0613 113.153 22.2158 113.001 24.7301 112.793C26.5298 112.644 27.3988 112.225 27.3988 111.507C27.3988 110.789 26.5298 110.37 24.7301 110.221C22.2065 110.012 22.0613 109.867 22.0613 107.557C22.0613 104.764 19.9862 103.974 19.8424 106.712ZM52.1288 118.632C50.9674 119.098 50.5276 119.86 50.5276 121.404C50.5276 123.923 52.2676 125.118 54.6353 124.226C56.7696 123.422 57.3353 121.754 56.1952 119.628C55.2011 117.773 54.6232 117.631 52.1288 118.632ZM53.0184 120.741C52.7345 121.2 52.822 121.895 53.2134 122.286C53.6881 122.759 54.0973 122.718 54.4417 122.162C54.7257 121.703 54.6381 121.008 54.2467 120.618C53.772 120.144 53.3628 120.185 53.0184 120.741ZM25.2638 137.502C9.40596 139.737 0.0177911 143.965 2.97544 147.54C4.38238 149.24 10.3617 151.675 16.3681 152.991C22.0934 154.246 35.7671 155.506 39.8528 155.155C41.2227 155.037 44.9055 154.74 48.0368 154.495C58.2548 153.696 69.3737 150.391 71.8453 147.418C73.075 145.939 71.4176 143.747 67.7782 142.04C61.3377 139.018 53.0483 137.645 39.8528 137.417C33.0031 137.298 26.438 137.336 25.2638 137.502ZM338.748 137.498C324.592 139.835 314.6 145.535 307.556 155.288C304.958 158.886 303.923 159.811 302.81 159.533C302.027 159.337 299.625 158.671 297.472 158.052C286.717 154.962 273.865 158.061 265.949 165.654C261.732 169.699 259.276 173.605 257.336 179.353C255.754 184.044 255.68 184.128 252.03 185.411C244.805 187.95 239.736 192.808 236.125 200.655C234.709 203.733 234.491 205.344 234.491 212.731C234.491 220.893 234.588 221.454 236.785 225.936C239.549 231.573 244.644 236.572 250.347 239.24L254.417 241.145H318.11H381.804L386.574 238.896C395.881 234.509 401.837 226.68 403.534 216.602C404.422 211.327 403.301 204.753 400.618 199.504C398.78 195.907 394.02 190.679 390.637 188.544L388.085 186.932L388.031 180.976C387.859 161.846 374.425 144.34 355.818 138.998C351.804 137.846 341.908 136.976 338.748 137.498ZM2.13497 179.101V207.625L4.02157 210.094C7.15713 214.198 17.2449 218.014 27.9325 219.139L32.7362 219.645L32.739 203.047C32.7419 184.04 32.8814 183.51 38.8842 179.71C44.9084 175.896 58.4555 172.604 68.1411 172.599L72.589 172.597V162.06C72.589 156.264 72.3918 151.327 72.1513 151.087C71.9108 150.847 71.0098 151.111 70.1487 151.673C65.1828 154.922 49.7989 157.679 36.6475 157.679C24.4233 157.679 9.45293 154.864 4.51831 151.636C3.6266 151.053 2.72565 150.576 2.51571 150.576C2.30648 150.576 2.13497 163.412 2.13497 179.101ZM171.491 157.697C170.148 159.038 170.063 159.894 170.246 170.264L170.442 181.392L176.046 183.353C184.657 186.365 189.301 190.24 189.301 194.413C189.301 195.629 190.576 195.699 212.485 195.692L235.669 195.683L238.059 192.462C240.886 188.652 245.432 185.242 250.15 183.392C253.34 182.142 253.655 181.78 255.148 177.666C256.024 175.25 257.579 172.009 258.604 170.464C260.095 168.215 260.466 166.802 260.466 163.377C260.466 155.652 264.316 156.259 215.276 156.259C173.705 156.259 172.906 156.285 171.491 157.697ZM212.074 167.899C205.382 170.334 204.453 180.408 210.627 183.595C213.153 184.899 217.523 184.955 219.767 183.712C222.191 182.369 224.162 178.978 224.165 176.148C224.17 169.946 218.005 165.74 212.074 167.899ZM338.037 197.764V225.062L344.504 225.29C348.061 225.415 351.104 225.384 351.265 225.221C351.427 225.059 351.558 212.672 351.558 197.695V170.466H344.798H338.037V197.764ZM282.141 173.486C281.953 173.976 281.883 187.001 281.985 202.433L282.172 230.49H322.202C348.297 230.49 362.295 230.243 362.411 229.78C362.528 229.314 349.154 229.006 323.626 228.885L284.663 228.702V200.649C284.663 175.932 284.533 172.597 283.573 172.597C282.973 172.597 282.329 172.997 282.141 173.486ZM122.405 181.546C111.531 182.714 106.571 183.898 107.074 185.207C107.286 185.758 107.46 190.007 107.46 194.648V203.087L110.17 203.815C114.755 205.048 130.908 206.693 138.417 206.693C152.847 206.693 170.973 203.696 179.155 199.957C187.082 196.334 188.454 193.231 183.657 189.763C178.117 185.757 168.159 183.078 152.684 181.431C141.455 180.237 134.349 180.263 122.405 181.546ZM315.975 205.628C315.975 218.155 316.231 225.175 316.687 225.197C317.079 225.215 320.04 225.246 323.27 225.264L329.141 225.298L329.33 205.696L329.52 186.093H322.748H315.975V205.628ZM37.7178 188.17C37.7178 189.796 41.2583 193.494 44.3362 195.083C51.5382 198.8 66.2275 200.858 76.802 199.631C84.2174 198.77 91.4842 196.974 95.0987 195.108C98.3858 193.412 101.767 189.957 101.767 188.295C101.767 186.284 100.461 186.403 99.6675 188.486C98.2762 192.139 91.8393 195.258 81.9401 197.076C64.7287 200.238 42.5727 195.719 39.8172 188.486C39.0465 186.463 37.7178 186.262 37.7178 188.17ZM35.5038 194.223C35.3515 194.374 35.3871 197.057 35.5828 200.185C35.8746 204.846 36.234 206.186 37.5762 207.61C41.0583 211.307 48.525 214.056 59.1913 215.57C68.5795 216.902 72.453 216.895 81.6526 215.532C93.3914 213.792 101.597 210.287 104.19 205.906C104.949 204.624 105.325 202.276 105.325 198.823V193.659L103.724 195.124C99.5807 198.913 90.4743 201.815 78.4188 203.189C63.3808 204.903 44.7383 201.471 37.9028 195.729C36.735 194.749 35.6561 194.071 35.5038 194.223ZM294.389 197.222C293.597 198.012 293.828 225.158 294.626 225.197C295.017 225.215 297.979 225.246 301.209 225.265L307.08 225.299L307.273 211.024L307.465 196.749H301.164C297.699 196.749 294.649 196.962 294.389 197.222ZM189.301 207.404V216.638H210.294H231.288L231.3 212.554C231.31 208.785 232.51 202.385 233.763 199.412C234.256 198.244 232.942 198.169 211.794 198.169H189.301V207.404ZM185.578 199.323C184.139 201.531 174.497 204.923 163.325 207.152C154.493 208.913 121.942 208.978 113.865 207.25C110.929 206.622 108.273 206.35 107.962 206.645C107.651 206.941 107.491 209.71 107.606 212.799L107.816 218.414L111.374 219.312C122.574 222.138 151.692 222.281 164.393 219.573C173.476 217.636 177.321 216.41 180.932 214.298C186.118 211.264 186.545 210.455 186.307 204.116C186.192 201.041 185.864 198.884 185.578 199.323ZM35.5145 209.84C35.3444 210.009 35.3722 212.383 35.575 215.115C35.9956 220.765 37.1776 222.536 42.2019 225.052C46.9074 227.406 51.0848 228.583 58.9102 229.756C68.0593 231.128 72.3014 231.124 81.6526 229.739C93.3914 227.999 101.597 224.494 104.19 220.113C104.898 218.916 105.325 216.549 105.325 213.817V209.438L103.224 210.931C100.011 213.215 93.7793 215.777 88.0654 217.163C84.0836 218.129 79.9076 218.413 69.7423 218.406C58.1758 218.399 55.885 218.201 50.8834 216.775C45.23 215.161 39.1055 212.412 36.9485 210.519C36.3294 209.976 35.6839 209.67 35.5145 209.84ZM180.362 217.287C166.298 224.428 136.641 226.407 110.283 221.962L107.46 221.486V226.851C107.46 233.103 107.42 233.063 114.933 234.25C130.175 236.658 149.618 236.533 163.325 233.938C174.68 231.789 180.757 229.515 184.497 226.017C186.261 224.367 186.454 223.709 186.454 219.347C186.454 216.685 186.214 214.558 185.92 214.622C185.626 214.684 183.126 215.883 180.362 217.287ZM181.637 219.87C180.45 220.7 180.049 221.69 180.049 223.782C180.049 226.985 180.521 227.179 183.195 225.08C184.659 223.931 185.058 223.068 184.892 221.405C184.631 218.796 183.761 218.386 181.637 219.87ZM35.4611 224.099C35.3323 224.228 35.3871 226.884 35.5828 230.002C36.0034 236.708 36.6119 237.589 42.9164 240.627C50.7624 244.409 56.5169 245.407 70.454 245.407C80.3197 245.407 83.9434 245.132 87.8896 244.088C95.0588 242.191 101.146 239.246 103.383 236.592C105.12 234.531 105.325 233.726 105.325 228.966V223.645L103.224 225.138C96.5348 229.893 87.0043 232.331 73.3006 232.793C58.2128 233.302 46.1965 230.94 38.9119 226.033C37.1428 224.841 35.5899 223.971 35.4611 224.099ZM98.7423 230.541C97.1148 231.423 96.7853 232.075 96.7853 234.42C96.7853 237.579 96.7476 237.549 99.2426 236.414C100.78 235.715 101.055 235.121 101.055 232.507C101.055 230.812 100.975 229.437 100.877 229.453C100.78 229.469 99.8184 229.958 98.7423 230.541ZM213.691 249.542C213.88 250.106 215.695 250.326 219.249 250.214C225.737 250.01 234.853 250.014 239.057 250.224C240.889 250.314 242.311 250.046 242.468 249.579C242.661 249.001 238.629 248.767 228.074 248.74C217.107 248.712 213.482 248.914 213.691 249.542ZM251.926 249.471C251.926 249.834 252.807 250.074 253.883 250.003C254.96 249.932 256.161 249.937 256.552 250.012C257.224 250.143 306.578 250.205 311.528 250.082C312.8 250.05 313.84 249.751 313.84 249.417C313.84 249.083 299.91 248.81 282.883 248.81C264.269 248.81 251.926 249.074 251.926 249.471ZM123.117 258.209C123.117 258.753 140.105 258.984 181.472 258.999C223.473 259.015 239.828 258.802 239.828 258.239C239.828 257.677 223.454 257.455 181.472 257.448C140.086 257.442 123.117 257.663 123.117 258.209Z" fill="#C2CBD0"/>
</svg>
