<svg width="605" height="423" viewBox="0 0 605 423" fill="none" xmlns="http://www.w3.org/2000/svg">
<path fill-rule="evenodd" clip-rule="evenodd" d="M316.868 35.673L305.777 42.1212L305.525 54.8601L305.273 67.5994L294.555 73.8905L283.837 80.1816L283.967 105.933C284.096 131.305 284.112 131.684 285.106 131.684C286.099 131.684 286.116 131.304 286.246 106.505L286.377 81.3268L295.946 75.7039L305.515 70.081L305.646 94.8396C305.775 119.219 305.792 119.598 306.785 119.598C307.783 119.598 307.795 119.22 307.923 81.5015L308.052 43.4048L318.195 37.5649C323.774 34.3531 328.524 31.725 328.752 31.725C328.979 31.725 333.545 34.4075 338.898 37.6858L348.631 43.647L348.766 55.7831L348.901 67.9197L338.623 73.7369C332.97 76.9361 328.091 79.8594 327.781 80.2325C327.392 80.6993 327.175 86.7084 327.084 99.4735L326.952 118.036L316.364 124.184C304.402 131.129 301.669 133.411 299.282 138.442C297.733 141.707 297.707 141.895 297.458 151.323L297.206 160.891L294.868 162.15C291.721 163.844 278.519 171.528 276.152 173.044L274.256 174.257L270.354 172.009C268.208 170.773 265.204 169.195 263.679 168.503C260.951 167.264 252.73 165.534 251.922 166.029C251.694 166.168 250.049 166.587 248.266 166.96C244.177 167.814 243.244 168.29 224.468 179.083C201.592 192.234 200.605 193.435 200.262 208.521L200.072 216.872L196.835 218.731C193.639 220.567 192.639 222.075 194.618 222.075C195.178 222.075 196.535 221.508 197.633 220.816C198.731 220.124 199.736 219.557 199.865 219.557C199.995 219.557 200.17 226.644 200.253 235.306L200.406 251.056L202.037 254.362C204.828 260.023 206.914 261.614 225.702 272.427C235.082 277.824 243.988 282.656 245.495 283.164C251.311 285.127 258.258 284.779 264.009 282.239L266.704 281.048V284.188C266.704 287.926 267.733 292.16 269.478 295.6C272.029 300.627 274.757 302.624 294.75 314.095C305 319.976 314.737 325.279 316.388 325.881C320.748 327.469 329.698 327.495 334.087 325.931C335.793 325.323 345.662 319.94 356.019 313.968C376.954 301.896 378.538 300.696 381.557 294.618L383.419 290.87L383.588 282.658C383.681 278.142 383.932 274.446 384.145 274.446C385.253 274.446 405.14 286.482 406.055 287.706C407.455 289.579 407.479 293.02 406.106 294.857C405.551 295.599 401.581 298.165 397.283 300.559C392.985 302.954 389.194 305.09 388.86 305.306C388.124 305.783 388.568 307.179 389.456 307.179C390.378 307.179 405.386 298.755 406.784 297.453C409.631 294.802 410.243 290.333 408.241 286.826C407.272 285.13 405.56 283.951 396.023 278.418C389.922 274.879 384.64 271.801 384.285 271.578C383.783 271.263 383.67 268.519 383.781 259.233L383.923 247.292L397.535 255.155C405.022 259.479 412.395 263.485 413.921 264.058C417.677 265.469 426.521 265.556 430.486 264.221C431.972 263.721 440.934 258.855 450.401 253.407C469.458 242.442 471.374 240.976 474.071 235.289C475.672 231.914 475.682 231.841 475.847 222.704C475.939 217.65 476.111 213.514 476.231 213.514C476.351 213.514 482.141 216.815 489.099 220.85C496.058 224.884 502.068 228.064 502.454 227.915C502.841 227.767 503.158 227.328 503.158 226.938C503.158 226.544 497.535 222.988 490.428 218.888C483.426 214.85 477.293 211.25 476.799 210.888C476.008 210.309 475.917 209.502 476.042 204.139L476.185 198.048L493.831 208.242C512.062 218.775 515.191 221.016 517.229 225.006C519.01 228.493 519.924 232.902 519.544 236.173C519.185 239.265 519.716 240.307 521.078 239.178C521.608 238.739 521.812 237.46 521.812 234.587C521.812 227.959 519.503 222.681 514.682 218.287C513.474 217.185 504.261 211.538 494.209 205.738L475.933 195.192V189.086C475.933 182.163 475.196 178.869 472.806 175.109C470.551 171.561 467.698 169.308 459.603 164.682C455.158 162.142 452.228 160.153 452.076 159.574C451.911 158.945 451.376 158.625 450.487 158.625C449.718 158.625 445.634 156.618 440.919 153.923C436.394 151.337 431.588 148.915 430.238 148.541C428.889 148.168 427.527 147.517 427.21 147.095C426.734 146.459 426.406 146.432 425.296 146.937C424.559 147.272 422.663 147.549 421.081 147.552C417.064 147.561 413.601 148.594 408.679 151.252L404.446 153.538L404.268 147.636C404.1 142.108 403.979 141.51 402.359 138.223C399.761 132.951 397.362 130.995 384.255 123.459L372.579 116.745V98.4301V80.1157L361.762 73.6715L350.944 67.2268L350.796 54.705L350.648 42.1832L340.063 35.6951C334.241 32.1268 329.136 29.2112 328.719 29.2162C328.302 29.2207 322.969 32.1263 316.868 35.673ZM364.265 34.2449C361.494 35.8905 359.161 37.436 359.08 37.6787C358.999 37.9214 359.24 38.3751 359.616 38.6864C360.145 39.1245 361.542 38.5328 365.808 36.0643C368.839 34.3108 371.319 32.5604 371.319 32.1747C371.319 30.7113 369.134 31.3523 364.265 34.2449ZM414.042 43.6516L401.811 51.4922L401.942 75.7255C402.056 96.8725 402.169 99.9589 402.829 99.9589C403.487 99.9589 403.618 96.8906 403.837 76.3726L404.089 52.7858L415.685 45.3753C424.004 40.0591 427.281 37.7004 427.281 37.0271C427.281 36.5114 427.054 36.0265 426.777 35.9499C426.5 35.8734 420.769 39.339 414.042 43.6516ZM322.54 57.4973C317.383 60.4573 316.226 61.6281 317.845 62.2485C319.005 62.6931 329.221 56.4952 329.221 55.3465C329.221 54.8183 328.937 54.3857 328.59 54.3862C328.244 54.3867 325.522 55.7866 322.54 57.4973ZM273.322 61.1074C272.894 61.6225 272.97 61.968 273.638 62.5395C274.846 63.5723 284.799 69.4928 285.328 69.4928C286.191 69.4928 286.273 68.0551 285.45 67.3527C284.626 66.6487 274.386 60.4286 274.053 60.4286C273.961 60.4286 273.632 60.7342 273.322 61.1074ZM459.476 62.4433C458.466 62.8457 458.372 63.3533 458.027 70.2336C457.527 80.2285 457.767 82.2982 459.641 84.1709C461.444 85.9712 473.467 91.65 475.476 91.65C476.374 91.65 477.1 91.2874 477.428 90.6761C477.732 90.1085 477.95 85.9334 477.95 80.6726C477.95 69.4662 478.293 70.0468 469.115 65.7014C461.365 62.0319 460.901 61.8748 459.476 62.4433ZM460.304 72.9619C460.304 80.3267 460.422 81.6078 461.186 82.5162C461.871 83.331 474.99 89.8215 475.233 89.466C475.264 89.4207 475.434 85.7058 475.612 81.2104L475.936 73.0365L474.548 71.5479C473.468 70.3892 461.739 64.4571 460.529 64.4571C460.405 64.4571 460.304 68.2843 460.304 72.9619ZM222.277 66.3672C217.408 68.9082 215.048 73.9787 216.246 79.3256C216.776 81.6929 217.355 82.6814 219.488 84.8659C222.168 87.6088 224.409 88.62 227.825 88.6255C232.262 88.6331 237.094 85.4581 238.729 81.4607C242.968 71.0967 232.181 61.1995 222.277 66.3672ZM159.661 67.6241C159.007 68.5134 154.538 75.4239 149.729 82.9805L140.985 96.7199L137.305 89.7787C135.281 85.9611 133.621 82.6673 133.615 82.4598C133.598 81.8797 131.587 82.0116 131.587 82.5922C131.587 82.8732 133.189 86.2965 135.147 90.1997C137.104 94.1029 138.56 97.4426 138.382 97.6208C138.205 97.7986 132.165 98.0121 124.959 98.0947C112.942 98.2322 111.874 98.3153 112.025 99.1018C112.175 99.8814 113.494 99.971 126.593 100.092C139.827 100.215 141.059 100.154 141.77 99.337C142.969 97.9602 162.341 67.5329 162.341 67.0274C162.341 65.7886 160.75 66.1431 159.661 67.6241ZM223.437 68.2828C220.048 69.9697 218.304 72.7373 218.304 76.4285C218.304 79.6695 218.957 81.3983 220.968 83.4805C223.134 85.7234 226.705 86.7694 229.819 86.0724C239.101 83.9947 240.113 71.4341 231.295 67.7545C228.625 66.6401 226.443 66.7866 223.437 68.2828ZM350.79 75.8937C350.673 80.7718 350.513 81.8303 349.891 81.8303C349.274 81.8303 349.109 80.8242 348.992 76.3696C348.863 71.4764 348.759 70.9431 347.994 71.2367C345.529 72.1814 331.218 80.7467 331.575 81.0634C332.425 81.8177 349.657 91.3045 350.143 91.2864C351.21 91.2461 369.103 80.9289 368.709 80.5815C368.382 80.2924 352.793 70.9562 351.294 70.1515C351.095 70.0442 350.868 72.6286 350.79 75.8937ZM485.026 75.5025C484.721 76.0705 484.504 80.2607 484.504 85.5563V94.6362L485.964 96.2904C486.976 97.4375 489.605 98.9331 494.541 101.17C504.4 105.638 503.905 105.989 504.348 94.2096C504.812 81.8807 505.065 82.3198 494.73 77.5777C487.634 74.3221 485.862 73.9429 485.026 75.5025ZM197.811 77.3627C193.25 78.9776 190.093 83.689 190.093 88.8803C190.093 92.5609 191.239 95.2339 193.918 97.7971C199.867 103.49 209.441 101.752 213.082 94.3184C218.029 84.2183 208.46 73.5924 197.811 77.3627ZM486.851 81.9562C486.369 89.2308 486.448 92.4502 487.145 93.9795C487.632 95.0471 489.252 96.0507 494.5 98.5353C498.201 100.288 501.436 101.721 501.689 101.721C501.949 101.721 502.15 97.9723 502.15 93.1224C502.15 84.8357 502.108 84.4877 501.015 83.5294C499.965 82.6084 488.421 77.0464 487.56 77.0464C487.349 77.0464 487.03 79.2556 486.851 81.9562ZM200.91 78.7933C200.633 78.892 199.786 79.109 199.029 79.2757C197.086 79.7033 194.111 82.4653 193.028 84.8472C191.268 88.7167 192.264 93.3163 195.524 96.374C197.08 97.8343 201.311 99.2856 203.017 98.9442C203.522 98.8435 204.555 98.6305 205.313 98.4714C207.158 98.0836 210.071 95.4605 211.275 93.1028C213.619 88.5142 211.483 82.3067 206.708 79.8327C205.372 79.1403 201.757 78.4922 200.91 78.7933ZM383.255 81.1878C382.854 81.5886 382.662 84.1951 382.662 89.2484C382.662 95.4147 382.794 96.7678 383.416 97.0065C384.375 97.3741 397.031 89.9983 397.031 89.0722C397.031 87.6395 395.153 88.1587 390.553 90.8629C387.932 92.4038 385.651 93.6643 385.485 93.6643C385.319 93.6643 385.183 90.9727 385.183 87.6828C385.183 83.3345 385.001 81.5509 384.516 81.1485C384.029 80.7446 383.688 80.7552 383.255 81.1878ZM329.725 99.6991V116.417L332.876 114.584C341.98 109.289 346.374 107.947 352.983 108.443C357.493 108.78 360.715 109.909 366.11 113.04C368.269 114.293 370.153 115.318 370.299 115.318C370.444 115.318 370.562 108.066 370.562 99.2036C370.562 90.3407 370.459 83.0893 370.334 83.0893C370.208 83.0893 365.599 85.5865 360.091 88.6386L350.076 94.188L340.531 88.827C335.281 85.8785 330.702 83.3572 330.355 83.2237C329.858 83.0329 329.725 86.5317 329.725 99.6991ZM261.158 87.7715C257.538 90.2516 255.864 91.7034 255.864 92.364C255.864 93.0565 257.573 94.3748 261.905 97.0251C265.227 99.0575 268.176 100.644 268.459 100.55C270.066 100.015 268.954 98.6718 264.834 96.1741C262.397 94.6956 260.001 93.2191 259.511 92.8923C258.727 92.3701 259.199 91.9164 263.418 89.1382C266.638 87.0171 268.216 85.6681 268.216 85.0371C268.216 83.4045 266.642 84.0143 261.158 87.7715ZM510.821 88.2257C510.394 88.6527 510.216 91.6011 510.216 98.2795V107.729L511.676 109.383C512.689 110.53 515.318 112.026 520.253 114.263C526.492 117.09 527.525 117.418 528.625 116.917L529.879 116.347V106.524V96.7018L528.492 95.1926C526.959 93.5243 514.578 87.6214 512.612 87.6214C511.96 87.6214 511.154 87.8933 510.821 88.2257ZM512.233 97.9119C512.233 102.187 512.459 106.279 512.736 107.005C513.135 108.054 514.652 108.995 520.09 111.57C523.859 113.354 527.149 114.814 527.402 114.814C527.662 114.814 527.862 111.101 527.862 106.306C527.862 98.1395 527.817 97.7553 526.728 96.7174C525.523 95.5688 514.146 90.1393 512.944 90.1393C512.363 90.1393 512.233 91.5578 512.233 97.9119ZM170.333 91.8469C159.914 95.5648 159.93 110.754 170.357 114.241C178.179 116.857 185.995 111.294 186.026 103.09C186.032 101.489 185.731 99.4493 185.358 98.558C182.962 92.848 176.108 89.7863 170.333 91.8469ZM226.614 93.1884C226.182 94.5495 227.568 96.1942 228.427 95.3371C229.217 94.5475 228.79 92.4441 227.8 92.2558C227.296 92.1601 226.822 92.5317 226.614 93.1884ZM467.052 92.8797C466.597 94.0616 467.059 95.4031 467.98 95.5804C468.902 95.7576 469.746 93.6582 469.144 92.6858C468.667 91.9139 467.377 92.0332 467.052 92.8797ZM173.181 93.3923C172.904 93.4936 172.057 93.7126 171.299 93.8793C169.586 94.2565 166.577 96.8478 165.551 98.8304C164.289 101.269 164.511 105.315 166.052 107.942C170.134 114.899 180.413 114.032 183.298 106.488C185.529 100.652 181.786 94.4649 175.426 93.4784C174.469 93.3294 173.458 93.2911 173.181 93.3923ZM226.624 99.199C226.214 100.489 226.68 101.218 227.913 101.218C228.664 101.218 228.891 100.867 228.891 99.7071C228.891 98.5499 228.664 98.1964 227.917 98.1964C227.381 98.1964 226.799 98.6476 226.624 99.199ZM466.858 99.618C466.858 101.287 467.985 102.036 468.879 100.961C469.75 99.9126 469.269 98.4698 467.987 98.287C467.036 98.1516 466.858 98.3611 466.858 99.618ZM464.567 103.461C463.648 104.379 463.329 105.239 463.329 106.8C463.329 108.552 463.624 109.182 465.094 110.567C466.064 111.481 466.858 112.471 466.858 112.766C466.858 113.062 467.312 113.304 467.866 113.304C468.421 113.304 468.875 113.062 468.875 112.766C468.875 112.471 469.669 111.481 470.639 110.567C472.109 109.182 472.404 108.552 472.404 106.8C472.404 103.92 470.723 102.225 467.866 102.225C466.349 102.225 465.477 102.551 464.567 103.461ZM226.909 104.45C226.081 105.447 226.712 107.366 227.8 107.156C228.353 107.05 228.639 106.497 228.639 105.533C228.639 103.863 227.822 103.351 226.909 104.45ZM201.372 104.923C200.914 106.116 201.348 107.512 202.178 107.512C202.669 107.512 202.927 107.007 202.927 106.044C202.927 104.452 201.851 103.677 201.372 104.923ZM491.562 105.685C491.562 107.469 492.31 108.104 493.373 107.222C494.476 106.308 494.059 104.523 492.697 104.33C491.736 104.194 491.562 104.401 491.562 105.685ZM226.854 110.56C226.361 111.152 226.321 111.602 226.707 112.213C227.567 113.574 228.639 113.225 228.639 111.583C228.639 109.869 227.818 109.398 226.854 110.56ZM491.909 110.104C491.718 110.294 491.562 111.092 491.562 111.877C491.562 112.982 491.796 113.304 492.602 113.304C493.468 113.304 493.616 113.035 493.485 111.706C493.331 110.147 492.605 109.409 491.909 110.104ZM201.162 111.739C201.162 112.54 201.48 113.318 201.869 113.467C202.841 113.839 203.179 113.385 203.179 111.709C203.179 110.618 202.941 110.282 202.171 110.282C201.395 110.282 201.162 110.618 201.162 111.739ZM226.875 117.278C226.875 118.864 228.003 119.661 228.833 118.661C229.609 117.728 228.931 115.821 227.824 115.821C227.113 115.821 226.875 116.187 226.875 117.278ZM466.707 116.14C466.167 116.679 466.287 118.742 466.88 119.108C467.69 119.608 468.941 118.301 468.773 117.13C468.622 116.08 467.369 115.479 466.707 116.14ZM491.562 117.584C491.562 119.011 491.754 119.346 492.571 119.346C493.387 119.346 493.579 119.011 493.579 117.584C493.579 116.157 493.387 115.821 492.571 115.821C491.754 115.821 491.562 116.157 491.562 117.584ZM201.162 117.836C201.162 119.011 201.386 119.346 202.171 119.346C202.955 119.346 203.179 119.011 203.179 117.836C203.179 116.661 202.955 116.325 202.171 116.325C201.386 116.325 201.162 116.661 201.162 117.836ZM518.491 118.525C517.984 119.844 518.502 121.109 519.551 121.109C520.326 121.109 520.552 120.77 520.552 119.605C520.552 117.958 519.018 117.153 518.491 118.525ZM173.467 119.054C172.639 120.05 173.271 121.97 174.358 121.76C174.911 121.654 175.198 121.1 175.198 120.137C175.198 118.466 174.38 117.955 173.467 119.054ZM67.8162 119.336C67.6418 119.619 67.6388 120.077 67.8102 120.354C68.0129 120.681 80.2646 120.857 102.918 120.857H137.715L139.189 122.329C140.28 123.419 140.662 124.279 140.662 125.641C140.662 127.003 140.28 127.863 139.189 128.953C137.742 130.398 137.616 130.425 132.256 130.428C129.254 130.43 125.991 130.655 125.004 130.928C119.346 132.498 118.179 140.501 123.167 143.538C124.677 144.458 125.799 144.521 140.536 144.523C155.956 144.525 156.291 144.503 156.291 143.518C156.291 142.533 155.955 142.511 141.19 142.511C124.921 142.511 124.001 142.382 122.727 139.92C121.636 137.812 121.857 136.149 123.47 134.345L124.933 132.711L131.915 132.448C136.716 132.268 139.234 131.963 139.974 131.473C143.294 129.271 143.781 124.057 140.953 120.975L139.227 119.095L103.681 118.959C79.9253 118.868 68.0285 118.993 67.8162 119.336ZM346.11 119.754C343.046 120.822 312.915 138.079 310.881 139.931C306.486 143.934 306.508 151.944 310.926 155.656C313.758 158.036 344.547 175.437 347.102 176.102C352.875 177.604 354.595 176.952 373.282 166.189C382.126 161.094 390.043 156.355 390.874 155.656C395.291 151.944 395.314 143.934 390.918 139.931C388.885 138.079 358.753 120.822 355.689 119.754C354.303 119.271 352.148 118.876 350.9 118.876C349.652 118.876 347.497 119.271 346.11 119.754ZM228.724 121.697C228.153 122.266 228.349 123.265 229.197 124.112C230.416 125.329 231.556 124.241 230.799 122.581C230.255 121.389 229.397 121.023 228.724 121.697ZM464.309 122.422C463.889 123.205 463.888 123.631 464.304 124.047C465.079 124.821 466.556 123.858 466.767 122.442C466.985 120.982 465.088 120.966 464.309 122.422ZM201.372 122.548C200.914 123.741 201.348 125.137 202.178 125.137C202.669 125.137 202.927 124.632 202.927 123.669C202.927 122.077 201.851 121.302 201.372 122.548ZM491.657 123.501C491.757 124.55 492.086 125.137 492.571 125.137C493.055 125.137 493.384 124.55 493.485 123.501C493.618 122.118 493.477 121.864 492.571 121.864C491.665 121.864 491.523 122.118 491.657 123.501ZM232.382 124.847C230.32 126.906 230.345 129.437 232.449 131.538C233.879 132.966 234.174 133.055 236.569 132.771C237.989 132.603 239.343 132.273 239.58 132.036C239.816 131.8 240.147 130.447 240.315 129.03C240.599 126.637 240.511 126.343 239.081 124.914C236.977 122.813 234.443 122.788 232.382 124.847ZM518.491 124.567C517.984 125.887 518.502 127.152 519.551 127.152C520.326 127.152 520.552 126.812 520.552 125.648C520.552 124 519.018 123.196 518.491 124.567ZM173.172 125.417C172.74 126.778 174.127 128.423 174.985 127.566C175.775 126.776 175.348 124.673 174.358 124.484C173.854 124.389 173.381 124.76 173.172 125.417ZM460.405 126.497C459.673 127.228 459.62 128.24 460.293 128.656C461.103 129.155 462.825 127.948 462.825 126.882C462.825 125.763 461.371 125.532 460.405 126.497ZM491.688 127.772C491.342 127.892 491.058 128.652 491.058 129.46C491.058 130.565 491.294 130.929 492.012 130.929C492.942 130.929 493.579 130.012 493.579 128.675C493.579 127.915 492.608 127.451 491.688 127.772ZM201.499 128.243C200.904 128.837 201.141 130.812 201.838 131.08C203.036 131.539 203.843 130.629 203.489 129.22C203.177 127.975 202.232 127.511 201.499 128.243ZM455.268 129.663C454.616 130.447 454.896 131.936 455.695 131.936C456.617 131.936 458.442 130.075 458.086 129.499C457.578 128.679 456.009 128.77 455.268 129.663ZM518.283 131.367C518.283 133.151 519.031 133.786 520.094 132.905C521.197 131.99 520.78 130.205 519.417 130.012C518.457 129.876 518.283 130.083 518.283 131.367ZM51.1455 130.972C50.9594 131.273 51.0078 131.721 51.2534 131.966C51.4984 132.211 62.9631 132.475 76.7304 132.551L101.761 132.691L103.035 133.888C103.737 134.545 104.449 135.719 104.62 136.495C104.982 138.139 103.824 140.713 102.373 141.488C101.823 141.783 97.8898 142.007 93.2877 142.007C84.4663 142.007 82.8848 142.351 80.6664 144.753C79.5981 145.909 79.406 146.604 79.406 149.309C79.406 152.014 79.5981 152.709 80.6664 153.865C83.2271 156.637 82.9175 156.611 112.635 156.611C139.758 156.611 141.757 156.496 140.279 155.019C139.967 154.708 129.44 154.49 111.948 154.434L84.1134 154.345L82.6423 152.7C80.6543 150.478 80.6538 148.141 82.6408 145.918L84.1104 144.273L93.3795 144.021C103.737 143.74 104.834 143.414 106.169 140.221C107.186 137.79 107.055 135.867 105.739 133.899C103.373 130.361 103.931 130.426 76.2847 130.426C58.9691 130.425 51.3819 130.59 51.1455 130.972ZM173.126 131.143C172.658 132.361 173.286 133.446 174.459 133.446C175.315 133.446 175.486 133.183 175.357 132.066C175.178 130.517 173.615 129.871 173.126 131.143ZM450.347 132.269C449.599 132.57 449.505 134.263 450.21 134.699C451.019 135.198 452.741 133.991 452.741 132.925C452.741 131.958 451.774 131.693 450.347 132.269ZM241.835 133.147C241.476 134.082 243.262 135.664 244.25 135.286C245.329 134.872 245.218 133.585 244.05 132.96C242.732 132.256 242.16 132.305 241.835 133.147ZM489.321 133.92C488.682 134.624 487.996 134.772 486.273 134.578C484.299 134.356 483.875 134.501 482.511 135.863C481.366 137.006 480.975 137.861 480.975 139.214C480.975 140.365 480.697 141.138 480.219 141.321C479.803 141.481 479.462 142.042 479.462 142.569C479.462 143.367 479.822 143.521 481.605 143.49C482.783 143.469 484.592 143.604 485.624 143.79C487.28 144.088 487.686 143.942 489.09 142.54C490.497 141.134 490.652 140.704 490.436 138.794C490.281 137.419 490.441 136.296 490.878 135.7C491.254 135.186 491.562 134.492 491.562 134.159C491.562 133.117 490.182 132.97 489.321 133.92ZM202.924 133.955C202.478 134.676 203.088 136.325 203.918 136.643C205.05 137.077 205.87 135.712 205.213 134.486C204.622 133.382 203.447 133.11 202.924 133.955ZM445.011 135.293C444.393 135.909 444.665 137.475 445.39 137.475C446.78 137.475 447.7 136.852 447.7 135.91C447.7 135.248 447.341 134.957 446.524 134.957C445.876 134.957 445.196 135.108 445.011 135.293ZM246.859 136.215C246.525 137.087 248.721 138.75 249.54 138.244C250.383 137.724 250.149 136.547 249.091 135.982C247.757 135.269 247.201 135.327 246.859 136.215ZM518.63 135.786C518.439 135.976 518.283 136.774 518.283 137.559C518.283 138.657 518.519 138.986 519.307 138.986C519.871 138.986 520.474 138.615 520.648 138.162C521.161 136.825 519.522 134.895 518.63 135.786ZM173.428 136.725C172.633 137.682 173.299 139.588 174.358 139.388C175.448 139.182 175.77 136.698 174.758 136.31C174.347 136.153 173.749 136.34 173.428 136.725ZM440.515 138.02C440.03 138.302 439.633 138.974 439.633 139.514C439.633 140.551 440.862 140.82 442.077 140.051C442.825 139.577 442.702 137.899 441.902 137.659C441.625 137.576 441 137.738 440.515 138.02ZM206.204 139.124C206.204 139.516 206.663 140.252 207.224 140.759C208.515 141.926 209.814 141.036 208.914 139.601C208.223 138.5 206.204 138.145 206.204 139.124ZM252.083 139.436C252.083 140.734 253.958 141.847 254.773 141.033C255.547 140.259 254.584 138.784 253.166 138.573C252.36 138.453 252.083 138.674 252.083 139.436ZM435.071 141.422C433.827 142.429 434.085 143.518 435.568 143.518C436.752 143.518 437.812 142.236 437.436 141.258C437.052 140.256 436.462 140.297 435.071 141.422ZM211.426 142.265C211.079 143.166 212.078 144.525 213.088 144.525C214.257 144.525 214.536 142.943 213.5 142.186C212.294 141.305 211.787 141.324 211.426 142.265ZM257.279 142.332C256.978 143.115 258.247 144.525 259.254 144.525C260.019 144.525 260.275 143.017 259.64 142.252C258.817 141.262 257.675 141.301 257.279 142.332ZM517.985 142.766C517.599 144.303 518.349 145.305 519.544 144.846C520.65 144.422 520.362 141.823 519.184 141.6C518.601 141.49 518.21 141.871 517.985 142.766ZM173.769 142.343C173.231 142.88 173.381 144.937 173.986 145.31C174.928 145.892 175.906 144.409 175.416 143.14C174.976 142.002 174.394 141.72 173.769 142.343ZM429.815 144.332C428.257 145.889 429.949 147.212 431.784 145.872C432.372 145.442 432.617 144.856 432.42 144.346C432.015 143.292 430.863 143.285 429.815 144.332ZM475.303 144.063C474.818 144.345 474.421 145.017 474.421 145.557C474.421 146.594 475.649 146.863 476.865 146.094C477.612 145.62 477.489 143.942 476.689 143.702C476.412 143.619 475.788 143.781 475.303 144.063ZM216.467 145.287C216.121 146.188 217.12 147.546 218.129 147.546C219.299 147.546 219.577 145.964 218.541 145.207C217.335 144.327 216.829 144.346 216.467 145.287ZM262.321 145.353C262.02 146.137 263.289 147.546 264.296 147.546C265.061 147.546 265.317 146.039 264.682 145.274C263.859 144.284 262.717 144.322 262.321 145.353ZM271.374 147.309C270.689 147.788 269.791 147.958 268.997 147.759C267.372 147.352 266.641 148.784 267.976 149.759C268.468 150.118 268.937 151.033 269.018 151.792C269.383 155.209 272.498 157.079 275.688 155.795C277.118 155.22 277.529 155.232 278.516 155.878C279.551 156.555 279.74 156.549 280.352 155.812C280.936 155.11 280.896 154.89 280.075 154.29C279.547 153.904 278.927 153.589 278.698 153.589C278.468 153.589 278.424 153.018 278.599 152.321C279.564 148.481 274.61 145.045 271.374 147.309ZM470.261 147.084C469.776 147.366 469.379 148.038 469.379 148.579C469.379 149.615 470.608 149.884 471.823 149.115C472.571 148.642 472.448 146.963 471.648 146.723C471.37 146.64 470.746 146.802 470.261 147.084ZM515.844 148.102C515.271 149.022 515.286 149.301 515.945 149.959C516.594 150.607 516.851 150.624 517.526 150.065C518.496 149.261 518.331 147.362 517.275 147.162C516.859 147.084 516.215 147.507 515.844 148.102ZM175.101 148.37C174.718 149.369 175.55 150.82 176.506 150.82C177.428 150.82 177.706 149.197 176.942 148.278C176.146 147.319 175.493 147.352 175.101 148.37ZM221.509 148.308C221.163 149.209 222.162 150.568 223.171 150.568C224.34 150.568 224.619 148.986 223.583 148.229C222.377 147.348 221.87 147.367 221.509 148.308ZM464.733 150.442C463.799 151.513 464.095 152.582 465.326 152.582C466.5 152.582 467.556 151.296 467.182 150.323C466.791 149.304 465.678 149.359 464.733 150.442ZM226.551 151.33C226.204 152.231 227.203 153.589 228.213 153.589C229.382 153.589 229.661 152.007 228.625 151.25C227.419 150.369 226.912 150.389 226.551 151.33ZM511.995 152.389C510.436 153.946 512.128 155.269 513.963 153.929C514.551 153.499 514.796 152.913 514.6 152.403C514.194 151.349 513.042 151.342 511.995 152.389ZM178.56 153.623C178.785 155.136 180.249 156.047 181.096 155.201C181.944 154.354 181.032 152.892 179.517 152.668C178.605 152.533 178.425 152.713 178.56 153.623ZM459.562 153.264C458.541 154.01 458.798 155.604 459.939 155.604C461.159 155.604 462.501 154.282 462.166 153.41C461.78 152.404 460.815 152.35 459.562 153.264ZM231.592 154.351C231.246 155.252 232.245 156.611 233.254 156.611C234.424 156.611 234.702 155.028 233.666 154.272C232.46 153.391 231.954 153.41 231.592 154.351ZM506.954 155.279C505.933 156.025 506.19 157.618 507.331 157.618C508.551 157.618 509.893 156.296 509.558 155.425C509.171 154.418 508.206 154.364 506.954 155.279ZM183.482 156.4C182.896 157.106 182.938 157.325 183.778 157.939C184.937 158.786 186.289 158.642 186.289 157.672C186.289 157.295 185.811 156.669 185.228 156.281C184.302 155.668 184.078 155.683 183.482 156.4ZM454.521 156.286C453.5 157.032 453.757 158.625 454.898 158.625C456.118 158.625 457.459 157.303 457.125 156.432C456.738 155.425 455.773 155.371 454.521 156.286ZM236.634 157.373C236.288 158.273 237.287 159.632 238.296 159.632C239.465 159.632 239.744 158.05 238.708 157.293C237.502 156.412 236.995 156.431 236.634 157.373ZM282.572 157.136C282.121 157.864 283.271 159.129 284.382 159.129C285.614 159.129 286.088 158.245 285.34 157.344C284.632 156.492 283.044 156.373 282.572 157.136ZM501.912 158.3C500.891 159.046 501.148 160.639 502.289 160.639C503.509 160.639 504.851 159.317 504.516 158.446C504.13 157.44 503.165 157.386 501.912 158.3ZM416.189 159.309C412.938 160.828 384.924 176.999 382.84 178.559C380.289 180.469 378.98 183.742 379.225 187.595C379.589 193.308 379.928 193.598 399.3 204.783C408.589 210.146 416.983 214.757 417.954 215.029C420.512 215.745 425.074 215.64 427.43 214.809C430.208 213.831 460.699 196.149 462.51 194.466C464.49 192.628 465.826 189.551 465.839 186.798C465.854 183.709 463.842 179.755 461.422 178.117C457.869 175.712 429.331 159.438 427.552 158.803C424.512 157.717 419.079 157.959 416.189 159.309ZM188.614 159.314C188.148 159.874 188.2 160.21 188.854 160.863C189.81 161.818 191.331 161.714 191.331 160.694C191.331 160.316 190.853 159.69 190.269 159.303C189.358 158.699 189.123 158.7 188.614 159.314ZM309.907 160.028C306.454 163.84 306.939 171.203 310.881 174.806C311.679 175.534 319.704 180.351 328.716 185.508C346.947 195.941 348.565 196.586 353.768 195.496C355.593 195.114 358.847 193.637 362.717 191.436L368.798 187.976L369.117 184.107C369.516 179.261 371.527 174.957 374.948 171.627C376.279 170.331 380.631 167.385 384.619 165.08C388.607 162.776 391.858 160.664 391.843 160.387C391.737 158.465 389.87 159.286 375.561 167.548C354.694 179.595 357.119 178.516 350.9 178.516C344.669 178.516 346.983 179.545 326.408 167.623C318.345 162.951 311.517 159.129 311.235 159.129C310.954 159.129 310.356 159.533 309.907 160.028ZM241.65 160.46C241.317 161.327 242.655 162.654 243.861 162.654C244.881 162.654 244.64 160.738 243.546 160.153C242.239 159.455 242.022 159.49 241.65 160.46ZM287.613 160.158C287.163 160.885 288.312 162.15 289.423 162.15C290.655 162.15 291.13 161.266 290.382 160.365C289.674 159.514 288.086 159.394 287.613 160.158ZM496.705 161.244C495.144 162.802 496.962 164.404 498.605 162.919C499.131 162.444 499.438 161.737 499.289 161.347C498.956 160.481 497.526 160.423 496.705 161.244ZM193.62 162.377C193.2 162.883 193.269 163.258 193.896 163.884C194.884 164.871 196.299 164.728 196.513 163.619C196.73 162.494 194.366 161.479 193.62 162.377ZM246.692 163.482C246.366 164.33 247.688 165.675 248.848 165.675C249.991 165.675 250.041 164.203 248.925 163.423C247.524 162.443 247.086 162.455 246.692 163.482ZM286.523 169.589L276.344 175.466L280.122 177.653C282.2 178.856 284.069 179.769 284.277 179.682C284.483 179.595 287.533 177.937 291.052 175.998L297.451 172.473L297.454 168.067C297.457 165.644 297.288 163.672 297.08 163.686C296.872 163.699 292.121 166.356 286.523 169.589ZM485.512 163.998C483.794 164.668 482.487 166.385 482.487 167.975C482.487 168.951 482.186 169.711 481.731 169.886C481.315 170.045 480.975 170.652 480.975 171.234C480.975 172.038 481.249 172.261 482.109 172.157C482.733 172.082 483.739 172.292 484.345 172.625C487.694 174.461 491.562 172.412 491.562 168.8C491.562 167.202 491.793 166.739 492.823 166.27C494.175 165.655 494.592 163.661 493.368 163.661C492.058 163.661 491.058 164.263 491.058 165.052C491.058 165.737 490.948 165.732 490.143 165.004C489.121 164.08 486.669 163.547 485.512 163.998ZM198.686 165.37C198.236 165.912 198.287 166.256 198.912 166.881C199.955 167.922 201.108 167.913 201.512 166.861C201.707 166.354 201.468 165.768 200.896 165.35C199.722 164.493 199.412 164.496 198.686 165.37ZM203.644 166.643C202.553 167.733 202.171 168.593 202.171 169.955C202.171 171.318 202.553 172.178 203.644 173.267C205.328 174.949 207.112 175.151 209.924 173.977C211.682 173.244 211.75 173.12 211.75 170.665C211.75 167.363 209.839 165.171 206.96 165.171C205.596 165.171 204.735 165.554 203.644 166.643ZM476.382 173.172C475.178 174.146 475.438 175.243 476.87 175.243C477.882 175.243 478.958 174.31 478.958 173.434C478.958 172.384 477.535 172.24 476.382 173.172ZM69.728 173.708C67.2551 175.217 66.3133 177.026 66.3239 180.244C66.335 183.472 67.3655 185.406 69.7754 186.725C71.1387 187.471 73.6757 187.613 89.5393 187.832C109.575 188.109 108.962 188.004 109.961 191.335C110.424 192.878 110.374 193.495 109.678 194.84C108.063 197.959 108.734 197.904 72.684 197.904C40.2671 197.904 39.9525 197.913 38.6265 198.955C34.5846 202.131 34.9824 208.74 39.356 211.084C40.9527 211.939 42.8186 212.004 65.9039 212.004H90.7336L92.3802 213.473C93.7939 214.734 94.0269 215.275 94.0269 217.291C94.0269 219.307 93.7939 219.848 92.3802 221.109L90.7336 222.579L78.7677 222.581C67.7169 222.582 66.6763 222.659 65.1588 223.583C60.4292 226.463 60.3833 233.248 65.0761 235.763C66.6884 236.627 68.2927 236.68 89.4894 236.557C109.262 236.443 112.177 236.33 112.177 235.671C112.177 235.015 109.208 234.883 89.4894 234.664C77.0112 234.526 66.3965 234.215 65.9009 233.974C64.7353 233.406 63.5248 231.052 63.5248 229.352C63.5248 228.506 64.1519 227.391 65.2389 226.305L66.9531 224.593H79.1519C92.9883 224.593 93.5171 224.468 95.2979 220.794C96.9525 217.38 96.3279 214.063 93.5474 211.5L92.1821 210.241L66.6355 209.989C52.5854 209.851 40.684 209.54 40.1884 209.299C38.9628 208.702 37.8123 206.347 37.8123 204.436C37.8123 203.367 38.2857 202.389 39.2859 201.39L40.7596 199.918L73.1912 199.915C93.7571 199.913 106.302 199.723 107.481 199.397C112.819 197.916 114.066 190.061 109.455 186.967C107.754 185.826 107.621 185.818 90.4069 185.818C70.7641 185.818 70.1132 185.718 68.7595 182.481C67.7709 180.118 68.1843 177.791 69.8747 176.205L71.1679 174.991L104.277 174.739C133.258 174.519 137.385 174.393 137.385 173.732C137.385 173.069 133.324 172.961 104.362 172.851C72.3744 172.729 71.2889 172.755 69.728 173.708ZM213.921 174.561C213.62 175.344 214.889 176.754 215.896 176.754C216.833 176.754 216.924 175.074 216.021 174.414C214.795 173.52 214.307 173.553 213.921 174.561ZM291.506 178.236L286.31 181.16L291.593 184.244C294.499 185.941 297.007 187.329 297.167 187.329C297.327 187.329 297.458 184.609 297.458 181.286C297.458 177.962 297.288 175.258 297.08 175.278C296.872 175.296 294.363 176.628 291.506 178.236ZM218.962 177.582C218.661 178.365 219.93 179.775 220.937 179.775C221.703 179.775 221.959 178.267 221.323 177.502C220.501 176.512 219.359 176.551 218.962 177.582ZM249.562 177.439C247.208 178.08 216.208 195.677 213.658 197.82C209.212 201.557 209.022 209.251 213.273 213.424C215.121 215.237 246.773 233.396 249.316 234.101C251.88 234.812 255.305 234.813 257.881 234.103C261.122 233.21 270.226 227.681 273.51 224.612C275.543 222.712 279.713 219.976 286.228 216.265C296.823 210.231 296.965 210.088 296.943 205.508C296.93 202.846 295.611 199.654 293.869 198.071C291.611 196.017 259.942 178.08 257.393 177.411C254.368 176.617 252.559 176.624 249.562 177.439ZM309.226 180.309C307.483 182.939 307.074 186.969 308.24 190.019C309.227 192.598 311.257 194.595 315.39 197.053C318.435 198.864 318.466 198.87 321.776 198.355C325.761 197.735 331.378 198.385 335.267 199.916C336.705 200.482 342.432 203.585 347.995 206.81C353.557 210.036 358.372 212.675 358.696 212.675C359.02 212.675 361.482 211.384 364.167 209.805L369.05 206.935V198.894C369.05 194.472 368.88 190.856 368.672 190.859C368.463 190.862 366.17 192.107 363.576 193.627C360.982 195.146 357.854 196.73 356.626 197.147C353.772 198.114 348.042 198.119 345.202 197.156C343.991 196.745 335.935 192.326 327.301 187.337C318.668 182.347 311.374 178.264 311.092 178.264C310.811 178.264 309.971 179.184 309.226 180.309ZM500.889 184.588C497.839 186.646 495.279 188.728 495.201 189.214C495.123 189.7 495.577 190.421 496.21 190.815C503.326 195.251 507.906 197.833 508.266 197.611C509.606 196.784 508.366 195.436 503.671 192.616C500.904 190.954 498.636 189.453 498.63 189.28C498.625 189.108 500.472 187.753 502.734 186.269C504.997 184.785 507.142 183.277 507.503 182.918C508.234 182.187 507.902 180.765 507.011 180.813C506.694 180.831 503.94 182.529 500.889 184.588ZM132.344 188.291C126.963 188.608 125.692 189.1 124.335 191.393C123.613 192.615 123.521 195.752 123.521 219.03C123.521 248.008 123.457 247.399 126.68 249.108C128.158 249.892 130.754 249.975 154.564 249.998L180.817 250.023L182.655 248.625C183.883 247.69 184.671 246.565 185.031 245.232C185.387 243.909 185.52 234.717 185.425 217.927C185.289 194.031 185.228 192.537 184.324 191.206C182.195 188.068 182.36 188.088 158.812 188.039C147.027 188.014 135.116 188.128 132.344 188.291ZM127.011 191.822L125.537 193.294V218.796C125.537 244.936 125.586 245.636 127.51 247.112C128.115 247.575 134.691 247.729 154.424 247.741L180.537 247.757L181.775 246.521L183.012 245.285V219.145V193.005L181.683 191.677L180.354 190.35H154.419H128.485L127.011 191.822ZM147.653 199.405C146.266 200.79 146.114 201.215 146.359 203.037C146.704 205.603 148.077 207.032 150.3 207.138L152.006 207.22V202.687V198.155L150.615 197.996C149.599 197.879 148.8 198.259 147.653 199.405ZM157.111 198.676C156.618 199.959 156.756 239.866 157.256 240.655C157.501 241.041 158.066 241.218 158.509 241.048C159.207 240.781 159.316 239.541 159.316 231.91C159.316 227.055 159.42 223.082 159.547 223.082C159.673 223.082 163.439 224.894 167.915 227.109C172.392 229.324 176.258 231.011 176.509 230.856C177.927 229.981 176.31 228.796 168.139 224.724C160.884 221.108 159.316 220.137 159.316 219.262C159.316 218.375 160.755 217.535 167.948 214.219C172.695 212.031 176.696 209.942 176.838 209.578C177.572 207.69 175.724 208.142 167.978 211.74C163.493 213.824 159.715 215.529 159.582 215.529C159.449 215.529 159.278 211.622 159.202 206.848C159.082 199.307 158.957 198.148 158.246 198.011C157.795 197.925 157.285 198.224 157.111 198.676ZM380.84 200.001C379.542 201.872 379.385 202.519 379.385 206C379.385 212.373 379.565 212.541 397.535 222.965C417.314 234.438 417.803 234.669 422.239 234.642C424.18 234.63 426.579 234.33 427.57 233.977C429.339 233.345 457.747 217.136 461.422 214.662C463.842 213.033 465.854 209.081 465.839 205.988C465.827 203.475 464.517 200.146 463.017 198.817C462.104 198.006 461.374 198.364 447.191 206.559C427.638 217.859 427.824 217.774 422.491 217.766C417.106 217.757 417.436 217.906 398.055 206.737C389.624 201.879 382.628 197.904 382.51 197.904C382.392 197.904 381.64 198.847 380.84 200.001ZM148.792 201.366C148.237 202.355 148.236 202.793 148.781 203.884L149.441 205.205L149.623 203.813C149.724 203.048 149.729 201.915 149.634 201.296L149.463 200.17L148.792 201.366ZM133.061 207.936C130.475 210.519 131.534 214.516 135.086 215.579C136.818 216.097 137.279 216.046 138.773 215.165L140.48 214.159L142.758 215.316L145.036 216.472L145.065 219.464L145.093 222.456L142.675 223.588C140.41 224.647 140.183 224.667 139.087 223.9C135.949 221.705 131.587 224.341 131.587 228.432C131.587 230.405 134.136 232.65 136.377 232.65C138.733 232.65 141.166 230.411 141.166 228.243C141.166 226.979 141.511 226.618 143.693 225.597L146.22 224.416L147.6 225.702C149.647 227.608 150.975 228.191 151.677 227.49C152.368 226.8 152.485 212.638 151.809 211.572C151.217 210.639 149.747 211.185 147.846 213.042L146.277 214.573L143.722 213.28C141.553 212.182 141.166 211.77 141.166 210.553C141.166 208.383 138.986 206.464 136.522 206.464C134.998 206.464 134.191 206.807 133.061 207.936ZM134.336 209.704C133.715 210.65 133.657 211.163 134.084 211.958C135.337 214.297 138.335 214.17 138.943 211.753C139.646 208.954 135.917 207.295 134.336 209.704ZM320.292 210.215C317.948 210.948 283.566 230.592 281.308 232.49C276.276 236.719 276.552 246.106 281.831 250.313C285.096 252.915 317.84 271.441 320.612 272.255C324.485 273.392 329.198 272.975 332.75 271.18C338.622 268.212 367.861 251.106 369.222 249.843C371.678 247.562 372.794 244.867 372.794 241.211C372.794 237.552 371.674 234.848 369.222 232.589C367.223 230.746 333.561 211.46 330.481 210.393C327.509 209.362 323.262 209.288 320.292 210.215ZM364.645 212.181L360.996 214.329L364.71 216.439C366.753 217.6 368.565 218.55 368.737 218.55C368.909 218.55 369.05 216.624 369.05 214.27C369.05 211.915 368.88 209.999 368.672 210.012C368.463 210.025 366.651 211 364.645 212.181ZM148.529 215.466C147.011 217.15 146.908 220.937 148.323 223.082L149.485 224.845L149.637 222.201C149.722 220.747 149.722 218.398 149.637 216.981C149.486 214.413 149.483 214.409 148.529 215.466ZM212.319 218.329C210.757 220.314 210.103 222.898 210.339 226.159C210.727 231.512 211.31 232.009 229.648 242.604C238.521 247.73 246.861 252.346 248.181 252.862C251.09 253.998 255.698 254.08 258.629 253.048C259.804 252.634 262.075 251.5 263.676 250.528L266.587 248.762L266.826 242.091C266.983 237.714 267.345 234.676 267.878 233.259L268.69 231.098L265.554 232.914C258.109 237.225 253.486 237.995 247.536 235.915C246.56 235.574 238.654 231.187 229.968 226.167C221.281 221.147 213.985 217.039 213.755 217.039C213.524 217.039 212.878 217.62 212.319 218.329ZM381.793 218.181C378.766 221.487 378.343 225.29 380.589 228.992C381.39 230.311 382.194 231.885 382.376 232.488C382.613 233.272 387.193 236.17 398.47 242.672C417.6 253.699 418.13 253.946 422.594 253.918C426.953 253.891 427.96 253.412 447.448 242.096C461.414 233.988 462.685 233.134 464.033 230.966C466.61 226.821 466.224 220.97 463.19 218.17L462.069 217.135L447.7 225.454C439.797 230.029 431.901 234.453 430.153 235.286C426.084 237.223 421.781 237.633 417.762 236.466C415.469 235.8 394.622 224.274 384.381 218.009C382.831 217.061 382.817 217.062 381.793 218.181ZM134.612 226.104C134.058 226.657 133.604 227.451 133.604 227.866C133.604 228.919 135.431 230.636 136.551 230.636C137.675 230.636 139.15 229.113 139.15 227.952C139.15 226.906 137.393 225.096 136.377 225.096C135.961 225.096 135.167 225.55 134.612 226.104ZM147.653 233.144C146.266 234.529 146.114 234.954 146.359 236.777C146.704 239.342 148.077 240.771 150.3 240.877L152.006 240.959V236.427V231.895L150.615 231.735C149.599 231.618 148.8 231.998 147.653 233.144ZM148.792 235.105C148.237 236.094 148.236 236.532 148.781 237.623L149.441 238.945L149.623 237.553C149.724 236.787 149.729 235.654 149.634 235.035L149.463 233.909L148.792 235.105ZM211.91 238.238C210.659 240.126 210.489 240.848 210.489 244.278C210.489 250.718 210.464 250.695 230.404 262.198C239.693 267.557 248.201 272.19 249.31 272.494C250.419 272.798 252.949 272.944 254.932 272.818C258.038 272.621 259.085 272.281 262.495 270.36L266.452 268.131L266.59 259.958C266.667 255.463 266.621 251.786 266.489 251.786C266.357 251.786 264.706 252.586 262.821 253.564C260.936 254.542 257.993 255.598 256.281 255.911C250.742 256.926 248.505 256.039 230.694 245.773C222.077 240.806 214.645 236.596 214.179 236.418C213.559 236.181 212.948 236.671 211.91 238.238ZM472.343 247.976C467.734 251.104 468.198 259.219 473.118 261.552C474.127 262.03 476.135 262.362 478.026 262.363C480.267 262.364 481.692 262.648 482.78 263.31C485.824 265.165 486.29 269.542 483.701 271.974C482.465 273.135 482.037 273.199 473.752 273.439C465.513 273.679 465.094 273.74 465.094 274.698C465.094 275.66 465.474 275.711 473.412 275.837C482.811 275.985 484.3 275.601 486.384 272.483C487.865 270.27 487.97 265.808 486.59 263.718C484.97 261.264 483.548 260.619 479.081 260.317C475.992 260.108 474.563 259.77 473.539 259.006C470.784 256.952 470.803 252.127 473.575 250.072C474.98 249.03 475.361 249.016 502.984 249.016H530.97L532.498 250.724C533.888 252.278 534.005 252.677 533.799 255.16C533.639 257.083 533.247 258.214 532.469 258.991C531.405 260.055 530.903 260.104 518.306 260.346C506.118 260.582 505.153 260.668 503.855 261.637C500.266 264.316 499.299 267.874 501.131 271.656C503.18 275.883 501.533 275.672 534.754 275.957L564.082 276.209L565.375 277.423C567.965 279.854 567.5 284.231 564.455 286.086C562.987 286.98 561.428 287.032 535.92 287.034L508.938 287.036L507.103 288.281C504.792 289.85 503.407 293.171 503.81 296.178C504.12 298.478 505.239 300.259 507.384 301.86C508.688 302.833 509.638 302.914 522.591 303.15C535.691 303.389 536.461 303.456 537.445 304.439C538.791 305.785 539.262 308.746 538.443 310.719C537.131 313.885 540.133 313.725 481.824 313.725C428.978 313.725 428.67 313.719 427.361 312.691C425.406 311.155 424.713 308.364 425.701 306.003C427.129 302.589 426.576 302.646 458.338 302.646C486.208 302.646 486.68 302.63 488.364 301.59C492.932 298.77 492.979 291.322 488.445 288.561C486.818 287.57 485.994 287.543 457.657 287.541C428.994 287.539 428.541 287.555 428.541 288.534C428.541 289.512 429.041 289.532 457.52 289.667L486.498 289.805L487.807 291.113C489.359 292.663 489.893 295.762 488.928 297.611C488.567 298.303 487.48 299.266 486.514 299.75C484.903 300.557 482.392 300.631 456.523 300.633C429.24 300.636 428.234 300.669 426.646 301.637C421.546 304.742 421.782 312.414 427.061 315.116L429.287 316.256L482.823 316.123C536.005 315.992 536.369 315.984 537.751 314.953C540.326 313.033 541.223 311.35 541.223 308.437C541.223 305.526 540.327 303.844 537.753 301.922C536.452 300.951 535.491 300.867 522.911 300.628C515.513 300.487 509.055 300.176 508.559 299.937C506.352 298.873 505.419 293.888 507.005 291.627C508.786 289.087 509.227 289.05 537.803 289.046C563.023 289.043 564.49 288.994 565.856 288.094C568.209 286.545 569.197 284.594 569.199 281.496C569.2 278.198 568.005 275.924 565.571 274.597C564.042 273.763 561.578 273.671 534.556 273.439C505.76 273.193 505.182 273.168 504.164 272.15C502.817 270.805 502.346 267.844 503.165 265.87C504.325 263.071 505.385 262.864 518.567 262.864C529.899 262.864 530.596 262.809 532.457 261.764C537.471 258.949 537.722 251.168 532.904 247.883L531.242 246.75H502.696H474.15L472.343 247.976ZM280.125 254.935C278.322 257.296 277.71 259.201 277.702 262.476C277.693 266.078 279.187 269.348 281.743 271.321C285.259 274.035 317.908 292.47 320.627 293.277C323.93 294.257 326.173 294.296 329.509 293.432C332.083 292.765 365.052 274.135 368.691 271.292C371.519 269.081 372.794 266.307 372.794 262.361C372.794 258.922 371.673 255.966 369.693 254.176C368.749 253.324 368.132 253.631 351.615 263.19C342.209 268.633 333.493 273.477 332.246 273.954C328.839 275.258 325.595 275.572 322.09 274.937C318.177 274.228 318.369 274.327 298.366 262.798C289.299 257.572 281.766 253.296 281.628 253.296C281.49 253.296 280.813 254.034 280.125 254.935ZM123.174 261.983C122.287 263.17 120.864 266.855 120.264 269.517C119.933 270.982 119.453 272.17 119.197 272.157C118.941 272.144 117.156 271.943 115.231 271.711C103.392 270.278 92.2124 278.456 90.169 290.044L89.6507 292.982L88.0611 292.527C85.3688 291.756 79.4625 292.003 76.1748 293.026C61.2283 297.672 55.4626 315.55 64.9168 327.933C67.309 331.066 71.9131 334.26 75.8037 335.486C82.1643 337.491 90.3338 336.422 95.5525 332.904C96.8593 332.024 97.9745 331.37 98.0309 331.452C98.0869 331.534 98.7322 332.648 99.4648 333.927C101.208 336.97 105.692 341.024 109.089 342.629C117.466 346.587 127.818 344.951 134.621 338.595L137.023 336.351L140.776 339.04C147.519 343.873 154.301 346.016 162.846 346.016C174.514 346.016 184.663 341.255 191.927 332.374L194.771 328.897L196.391 330.942C203.975 340.512 218.159 343.332 229.599 337.542C234.039 335.294 241.715 326.885 240.75 325.325C240.084 324.249 239.032 324.879 237.494 327.272C230.805 337.684 217.149 341.368 205.997 335.771C202.35 333.94 197.99 329.914 196.122 326.653L194.729 324.221L192.795 327.408C190.326 331.476 185.107 336.606 180.957 339.043C171.329 344.696 158.365 345.432 148.347 340.896C144.968 339.365 139.594 335.768 137.937 333.928L136.977 332.861L134.257 335.863C125.991 344.987 112.143 345.004 103.704 335.901C102.115 334.187 100.555 331.886 100.04 330.496C99.546 329.165 99.0857 328 99.0176 327.906C98.9495 327.811 97.675 328.653 96.1852 329.777C91.078 333.628 85.9002 335.079 80.0932 334.286C71.3953 333.097 63.9342 325.91 62.5941 317.429C60.4907 304.119 72.1178 292.588 85.9057 294.309C89.326 294.736 90.0041 295.34 90.4135 298.322C90.7856 301.032 93.1597 305.94 95.249 308.317C100.832 314.668 112.605 315.074 118.327 309.111C122.835 304.414 122.525 296.451 117.691 292.768C116.059 291.526 115.33 291.316 112.631 291.316C108.925 291.316 107.162 292.327 105.684 295.3C104.871 296.933 104.821 297.486 105.326 299.171C105.945 301.234 106.314 301.503 107.25 300.568C107.625 300.193 107.664 299.595 107.363 298.806C106.432 296.36 108.582 293.649 111.759 293.261C117.016 292.62 121.057 298.936 118.951 304.502C116.93 309.845 108.872 312.681 102.18 310.403C97.437 308.789 93.4153 303.317 92.2184 296.85C89.7747 283.645 103.284 270.956 116.492 274.051C118.278 274.47 120.136 274.981 120.622 275.187C121.321 275.484 121.504 275.311 121.504 274.354C121.504 272.515 122.923 267.453 124.256 264.538C125.266 262.328 125.333 261.886 124.695 261.642C123.701 261.261 123.716 261.257 123.174 261.983ZM159.821 262.814C159.821 264.272 163.548 268.943 166.29 270.921C167.633 271.891 197.124 289.113 231.825 309.193C266.525 329.273 294.92 345.815 294.924 345.954C294.928 346.092 282.916 352.745 268.231 360.737C253.545 368.729 241.292 375.554 241.003 375.903C240.627 376.354 240.673 376.702 241.16 377.106C241.695 377.549 247.64 374.514 268.265 363.266C282.796 355.342 295.366 348.534 296.198 348.138C297.657 347.443 297.888 347.517 302.752 350.22C309.146 353.775 314.449 355.473 320.371 355.861C325.545 356.2 331.469 355.246 336.257 353.304C338.674 352.323 347.75 347.342 351.278 345.061L352.412 344.327V362.194V380.06L341.951 385.976C331.733 391.755 330.538 392.567 331.048 393.391C331.606 394.293 333.297 393.527 343.628 387.694L354.429 381.594V354.255V326.917L364.979 320.832L375.528 314.748L385.384 320.82L395.241 326.892L395.379 334.535C395.511 341.795 395.569 342.177 396.527 342.177C397.494 342.177 397.535 341.841 397.535 333.879V325.582L386.696 318.907C380.734 315.236 375.72 312.228 375.554 312.223C375.387 312.218 370.113 315.18 363.832 318.805L352.412 325.396V333.591V341.786L346.236 345.323C337.62 350.256 335.387 351.318 331.166 352.486C323.957 354.481 314.055 353.531 307.504 350.215C306.044 349.476 274.089 331.078 236.494 309.331C166.67 268.941 164.805 267.787 162.525 263.558C161.524 261.702 159.821 261.233 159.821 262.814ZM183.611 262.733C183.717 263.281 190.561 267.538 201.924 274.124C287.502 323.721 312.437 338.085 314.437 338.942C319.661 341.179 326.395 341.141 332.551 338.841C335.399 337.776 336.339 336.748 335.36 335.77C334.964 335.374 333.926 335.627 331.638 336.677C328.796 337.981 327.938 338.132 323.423 338.115C319.563 338.1 317.79 337.857 315.86 337.078C314.474 336.518 293.261 324.431 268.721 310.219C244.18 296.007 215.351 279.311 204.656 273.118C193.96 266.925 184.812 261.857 184.326 261.857C183.758 261.857 183.503 262.17 183.611 262.733ZM68.1364 279.659C64.768 283.032 62.0123 286.071 62.0123 286.413C62.0123 288.08 64.28 286.519 69.6932 281.127C72.9557 277.877 75.6248 274.955 75.6248 274.634C75.6248 272.786 73.7362 274.053 68.1364 279.659ZM149.411 274.259C143.81 276.242 140.074 283.549 141.174 290.372C142.415 298.075 148.517 303.536 157.804 305.254C162.939 306.205 170.449 304.5 174.997 301.352C177.087 299.905 182.004 294.821 182.004 294.107C182.004 293.886 181.641 293.405 181.199 293.038C180.515 292.471 180.314 292.519 179.869 293.354C178.687 295.567 173.725 299.778 170.502 301.303C167.322 302.808 166.802 302.898 161.333 302.894C155.818 302.89 155.371 302.81 152.167 301.248C145.974 298.23 142.803 293.067 143.306 286.818C143.675 282.223 145.953 278.431 149.438 276.614C151.414 275.583 156.137 275.589 158.138 276.623C161.279 278.248 162.96 281.82 161.898 284.61C161.503 285.647 161.557 286.091 162.138 286.572C163.138 287.401 163.812 286.678 164.186 284.377C165.407 276.861 157.451 271.412 149.411 274.259ZM280.442 275.571C276.503 279.76 276.802 287.417 281.072 291.682C282.688 293.296 316.79 313.042 319.817 314.116C323.035 315.258 328.482 315.111 331.438 313.802C336.522 311.551 367.783 293.26 369.621 291.462C372.282 288.858 373.457 284.831 372.663 281.032C372.109 278.385 369.892 274.446 368.955 274.446C368.702 274.446 360.962 278.796 351.756 284.112C342.551 289.429 333.771 294.295 332.246 294.927C328.994 296.275 323.166 296.505 319.582 295.428C318.352 295.058 309.638 290.314 300.217 284.885C290.797 279.456 282.738 274.88 282.309 274.716C281.85 274.54 281.081 274.893 280.442 275.571ZM148.479 322.194C143.715 324.941 141.91 326.818 144.029 326.818C145.45 326.818 155.006 321.085 155.192 320.12C155.48 318.626 153.728 319.167 148.479 322.194ZM252.82 337.028C247.64 339.992 245.681 341.925 247.855 341.925C249.09 341.925 258.642 336.456 258.991 335.549C259.729 333.627 258.065 334.026 252.82 337.028ZM375.73 349.84C374.779 350.181 374.829 367.031 375.782 367.397C376.664 367.734 390.729 359.508 390.729 358.654C390.729 357.108 388.901 357.651 383.636 360.762C380.546 362.588 377.929 364.082 377.82 364.082C377.71 364.082 377.621 361.051 377.621 357.345C377.621 350.575 377.294 349.279 375.73 349.84Z" fill="#C2CBD0"/>
</svg>
