<svg width="605" height="423" fill="none" xmlns="http://www.w3.org/2000/svg"><path fill-rule="evenodd" clip-rule="evenodd" d="M45.18 218.904c-1.789 1.132-.56 3.096 1.936 3.096 1.274 0 1.941-.687 1.941-2 0-2.109-1.576-2.555-3.878-1.096zm7.877.959c0 2.455 4.335 2.353 4.81-.113.25-1.301-.324-1.75-2.237-1.75-1.843 0-2.573.528-2.573 1.863zm8-.43c0 1.97 4.027 3.142 5.06 1.472 1.15-1.861.21-2.905-2.619-2.905-1.452 0-2.44.58-2.44 1.433zm9-.05c0 1.418 3.44 2.844 4.442 1.842 1.421-1.422.335-3.225-1.942-3.225-1.462 0-2.5.574-2.5 1.383zm8.19.367c.186.963 1.225 1.75 2.31 1.75s2.124-.787 2.31-1.75c.252-1.311-.328-1.75-2.31-1.75s-2.562.439-2.31 1.75zm8.81.333c0 2.437 2.337 2.093 2.823-.416.192-.987-.318-1.667-1.25-1.667-.927 0-1.573.855-1.573 2.083zm-49.086 2.799c-2.23 1.819-2.274 2.024-.586 2.68 2.248.875 4.944-1.505 3.8-3.355-.625-1.011-1.328-.863-3.214.675zm-5.949 6.66c-1.01 1.217-1.022 1.798-.055 2.75.96.946 1.536.787 2.657-.733.788-1.068 1.433-2.305 1.433-2.75 0-1.379-2.688-.89-4.035.733zm-2.367 6.194c-1.256 1.255-.569 5.264.902 5.264.825 0 1.5-.413 1.5-.918 0-.505.251-1.572.557-2.371.564-1.468-1.854-3.081-2.959-1.975zm-.598 10.764c0 1.556.567 2.5 1.5 2.5s1.5-.944 1.5-2.5-.567-2.5-1.5-2.5-1.5.944-1.5 2.5zm0 9c0 1.556.567 2.5 1.5 2.5s1.5-.944 1.5-2.5-.567-2.5-1.5-2.5-1.5.944-1.5 2.5zm0 8c0 1.556.567 2.5 1.5 2.5s1.5-.944 1.5-2.5-.567-2.5-1.5-2.5-1.5.944-1.5 2.5zm0 9c0 1.556.567 2.5 1.5 2.5s1.5-.944 1.5-2.5-.567-2.5-1.5-2.5-1.5.944-1.5 2.5zm127 5.418c0 .505-.273 1.63-.607 2.5-.398 1.038-.055 1.582 1 1.582 1.047 0 1.607-.87 1.607-2.5 0-1.375-.45-2.5-1-2.5s-1 .413-1 .918zm-126.816 2.755c.46 3.893 2.816 4.236 2.816.41 0-2.132-.483-3.083-1.566-3.083-1.11 0-1.475.779-1.25 2.673zm122.545 5.459c-2.07 1.158-2.279 2.868-.351 2.868 1.714 0 4.014-2.64 2.899-3.329-.451-.278-1.598-.071-2.548.461zM29.057 289.5c0 1.556.567 2.5 1.5 2.5s1.5-.944 1.5-2.5-.567-2.5-1.5-2.5-1.5.944-1.5 2.5zm94-.5c0 .55 1.35 1 3 1s3-.45 3-1-1.35-1-3-1-3 .45-3 1zm9 0c0 .55 1.35 1 3 1s3-.45 3-1-1.35-1-3-1-3 .45-3 1zm9 0c0 .55 1.098 1 2.441 1 1.343 0 2.719-.45 3.059-1 .361-.583-.656-1-2.441-1-1.682 0-3.059.45-3.059 1zm-111.816 8.531c.174 1.392.766 2.531 1.316 2.531s1.142-1.139 1.316-2.531c.226-1.804-.152-2.531-1.316-2.531-1.164 0-1.542.727-1.316 2.531zm-.184 8.969c0 1.556.567 2.5 1.5 2.5s1.5-.944 1.5-2.5-.567-2.5-1.5-2.5-1.5.944-1.5 2.5zm25.64 4.194c-1.237 1.236-.623 4.306.86 4.306.825 0 1.5-.873 1.5-1.941 0-2.087-1.318-3.408-2.36-2.365zm-24.973 1.973c-1.309 1.309-.68 5.333.833 5.333 1 0 1.5-1 1.5-3 0-2.867-.9-3.767-2.333-2.333zm179.083 3.905c-.412.419-.75 1.901-.75 3.295 0 1.82.305 2.228 1.085 1.448.596-.596.934-2.079.75-3.295-.184-1.215-.673-1.867-1.085-1.448zM54.057 321.5c0 1.556.567 2.5 1.5 2.5s1.5-.944 1.5-2.5-.567-2.5-1.5-2.5-1.5.944-1.5 2.5zm-25 2c0 1.556.567 2.5 1.5 2.5s1.5-.944 1.5-2.5-.567-2.5-1.5-2.5-1.5.944-1.5 2.5zm174.554 2.071c-1.298.958-1.613 1.77-.947 2.436.667.667 1.649.522 2.947-.436 1.297-.958 1.613-1.77.946-2.436-.667-.667-1.649-.522-2.946.436zm-19.304 2.679c.229.688 1.467 1.25 2.75 1.25s2.521-.562 2.75-1.25c.275-.825-.661-1.25-2.75-1.25s-3.025.425-2.75 1.25zm9.246-.243c-.783 1.266 2.001 2.4 4.004 1.631.825-.316 1.5-1.039 1.5-1.607 0-1.328-4.685-1.349-5.504-.024zM29.057 332.5c0 1.556.567 2.5 1.5 2.5s1.5-.944 1.5-2.5-.567-2.5-1.5-2.5-1.5.944-1.5 2.5zm0 8c0 1.556.567 2.5 1.5 2.5s1.5-.944 1.5-2.5-.567-2.5-1.5-2.5-1.5.944-1.5 2.5zm36.188 2.563c.24.721 1.028 1.509 1.75 1.75.75.25 1.125-.125.875-.875-.24-.722-1.029-1.51-1.75-1.75-.75-.25-1.125.125-.875.875zm5.812.437c0 .825.45 1.5 1 1.5s1-.675 1-1.5-.45-1.5-1-1.5-1 .675-1 1.5zm30.694-.861c-.799.799.104 2.361 1.365 2.361.518 0 .941-.675.941-1.5 0-1.546-1.18-1.987-2.306-.861zM29.057 349.5c0 1.556.567 2.5 1.5 2.5s1.5-.944 1.5-2.5-.567-2.5-1.5-2.5-1.5.944-1.5 2.5zm1.032 6.25c.017.413.694 1.626 1.504 2.696 1.715 2.269 3.922.911 2.89-1.779-.622-1.62-4.458-2.42-4.394-.917zM186.825 359c-.687 1.1-1.816 2-2.509 2-.692 0-1.259.675-1.259 1.5s.575 1.5 1.278 1.5c.703 0 2.048.9 2.99 2 4.389 5.126 11.951-.965 8.236-6.635-1.987-3.032-6.941-3.239-8.736-.365zm-149.337 2.112c-.725 1.173 1.208 2.847 3.32 2.873.687.008 1.25-.885 1.25-1.985 0-2.187-3.363-2.841-4.57-.888zm53.26-.39c-3.467.521-3.027 2.661.636 3.094 2.137.253 2.673-.097 2.673-1.75 0-1.136-.112-1.999-.25-1.916-.138.082-1.514.34-3.059.572zm-44.69 1.778c0 .933.943 1.5 2.5 1.5 1.555 0 2.5-.567 2.5-1.5s-.945-1.5-2.5-1.5c-1.557 0-2.5.567-2.5 1.5zm8 0c0 .933.943 1.5 2.5 1.5 1.555 0 2.5-.567 2.5-1.5s-.945-1.5-2.5-1.5c-1.557 0-2.5.567-2.5 1.5zm9 0c0 .933.943 1.5 2.5 1.5 1.555 0 2.5-.567 2.5-1.5s-.945-1.5-2.5-1.5c-1.557 0-2.5.567-2.5 1.5zm8 0c0 1.164.726 1.542 2.53 1.316 1.392-.174 2.531-.766 2.531-1.316s-1.139-1.142-2.53-1.316c-1.805-.226-2.532.152-2.532 1.316zm9 0c0 .933.943 1.5 2.5 1.5 1.555 0 2.5-.567 2.5-1.5s-.945-1.5-2.5-1.5c-1.557 0-2.5.567-2.5 1.5zm17 0c0 .933.943 1.5 2.5 1.5 1.555 0 2.499-.567 2.499-1.5s-.944-1.5-2.5-1.5-2.5.567-2.5 1.5zm8.999 0c0 .933.944 1.5 2.5 1.5s2.5-.567 2.5-1.5-.944-1.5-2.5-1.5-2.5.567-2.5 1.5zm8 0c0 .933.944 1.5 2.5 1.5s2.5-.567 2.5-1.5-.944-1.5-2.5-1.5-2.5.567-2.5 1.5zm9 0c0 .933.944 1.5 2.5 1.5s2.5-.567 2.5-1.5-.944-1.5-2.5-1.5-2.5.567-2.5 1.5zm8 0c0 .933.944 1.5 2.5 1.5s2.5-.567 2.5-1.5-.944-1.5-2.5-1.5-2.5.567-2.5 1.5zm9 0c0 .933.944 1.5 2.5 1.5s2.5-.567 2.5-1.5-.944-1.5-2.5-1.5-2.5.567-2.5 1.5zm8 0c0 1.164.727 1.542 2.531 1.316 1.392-.174 2.531-.766 2.531-1.316s-1.139-1.142-2.531-1.316c-1.804-.226-2.531.152-2.531 1.316zm9 0c0 .933.944 1.5 2.5 1.5s2.5-.567 2.5-1.5-.944-1.5-2.5-1.5-2.5.567-2.5 1.5zm8.245-.25c.616 1.87 4.409 2.095 5.096.303.459-1.195-.108-1.553-2.456-1.553-1.994 0-2.909.433-2.64 1.25zm8.755.25c0 .933.944 1.5 2.5 1.5s2.5-.567 2.5-1.5-.944-1.5-2.5-1.5-2.5.567-2.5 1.5z" fill="#C2CBD0"/><path d="M93.057 286.5V305l13.75.015 13.25-1.015v-36h-27v18.5z" fill="#C2CBD0"/><path d="M151.357 305.865s0 0 0 0l-.018.359c.324-.069.653-.155.973-.254l-.955-.105zm0 0l-.378-.019a43.93 43.93 0 01-1.114-.065 4.248 4.248 0 01-.301-.031c-.026-.005.002-.002.055.016a.937.937 0 01.554.527c.02.046.035.092.048.138.236-.044.515-.094.836-.152.093-.017.187-.035.282-.055l.018-.359zm-32.195.049l.23.364-1.303-.847c.163-.12.346-.24.536-.361m.537.844c.177-.112.105-.216-.197-.311 0 0 0 0 0 0a4.787 4.787 0 00-.646-.139.888.888 0 01.177-.285.74.74 0 01.129-.109m.537.844l.23.364-.527.159a7.72 7.72 0 00-.376-.048c.149-.131.374-.285.673-.475zm-.537-.844l.002-.001h0l-.002.001zm31.694.178l.619.036-.058.011c-.605.108-1.084.195-1.406.265a4.4 4.4 0 00-.447.115c-.052.018-.18.063-.308.148a1.043 1.043 0 00-.318.329 1.017 1.017 0 00.337 1.397c.097.06.185.093.234.11.101.034.198.053.261.063.134.023.301.039.476.053.359.028.881.055 1.548.088h.001c.663.033 1.228.167 1.593.326.071.03.127.059.172.085-3.23.033-6.619.056-9.996.068-7.305.028-14.542.005-19.95-.074-.992-.014-1.921-.03-2.778-.048a1.019 1.019 0 00.201-1.242 1.105 1.105 0 00-.46-.444 1.161 1.161 0 00-.049-.026c.09-.106.177-.245.227-.423.144-.516-.12-.904-.309-1.085h17.848c5.36 0 9.671.09 12.562.248zm13.049 2.871c-2.078.044-4.384.082-6.831.114.058-.113.108-.226.153-.336a5.065 5.065 0 00.367-1.863c0-.166.013-.256.026-.303a.124.124 0 01.009-.028c.013-.013.146-.135.715-.252 1.19-.243 3.446-.319 7.761-.364 2.233-.024 3.927-.034 5.218-.006 1.304.027 2.134.093 2.668.202.404.082.528.168.553.191.009.017.05.124.05.551 0 .371-.114.775-.307 1.111-.188.33-.394.498-.521.557-.016.003-.063.013-.157.026-.144.02-.344.041-.603.063-.516.044-1.225.086-2.105.126-1.757.08-4.161.151-6.996.211zm10.645-2.64l-.004-.004.004.004zM119.057 304v.591l-.067-.016c-.549-.128-1.406-.227-2.484-.305-2.187-.159-5.515-.25-9.698-.255h0l-12.75-.014V269h24.998v35zm57 25h-1v21h-63v-2c0-1.032-.13-1.957-.469-2.662-.364-.758-1.024-1.338-1.972-1.338-.458 0-.757-.101-.924-.199a.463.463 0 01-.171-.149.28.28 0 01.022-.031c.061-.073.243-.227.666-.338.523-.136 1.176-.335 1.683-.93.481-.564.713-1.345.857-2.332.288-1.977.308-5.551.308-12.138V315h63v5.5c0 1.561.006 2.777.053 3.71.047.911.136 1.667.36 2.249.257.667.699 1.126 1.354 1.352.534.184 1.166.189 1.733.189.678 0 1.101.127 1.319.258.175.105.181.177.181.242s-.006.137-.181.242c-.218.131-.641.258-1.319.258h-2.5zm-67.542 14.665l.001-.004-.001.004zM106.557 263h-12.5v-5h25v5h-12.5z" stroke="#C2CBD0" stroke-width="2"/><path fill-rule="evenodd" clip-rule="evenodd" d="M197.057 264.5v3.5h64v-7h-64v3.5zm.45 7.771c-.275.715-.376 9.158-.225 18.764l.275 17.465h5.252c4.266 0 5.251.317 5.25 1.691-.003 2.542 1.807 3.152 2.177.733.316-2.072.729-2.109 25.321-2.265l25-.159v-37l-31.276-.264c-24.922-.211-31.377-.001-31.774 1.035z" fill="#C2CBD0"/><path d="M120.987 176.863l.891-.454c1.875 3.674 2.172 7.023.491 9.182-1.701 2.188-4.962 2.575-8.819 1.419l7.437-10.147zm0 0l.891-.454-1.801-3.53 1.6-1.296s0 0 0 0c.727-.588 1.228-.968 1.64-1.197.386-.216.61-.249.793-.231.213.022.524.131 1.053.483.528.351 1.177.877 2.068 1.627m-6.244 4.598l6.244-4.598m-19.847 53.692h-.001c-1.052.536-1.793.934-2.315 1.289-.524.356-.717.597-.799.774-.071.155-.115.389-.016.881.102.512.333 1.176.698 2.137.462 1.214.652 1.366.934 1.46.219.072.58.118 1.238.092.648-.025 1.49-.113 2.633-.248l.118.993-.117-.993c2.125-.252 3.601-.369 4.732-.064 1.267.342 1.989 1.168 2.745 2.248h0c1.136 1.622 1.91 3.014 1.616 4.647-.141.784-.514 1.536-1.042 2.322-.528.785-1.253 1.662-2.16 2.696h0l-2.544 2.896 1.862 1.862h0l2.02 2.02 3.247-1.578c3.811-1.854 7.236-2.082 9.346-.26 2.125 1.834 2.325 5.221.932 9.171h0l-1.131 3.205 2.371 1.227h.001l2.417 1.25 2.395-2.986.78.626-.78-.626c2.15-2.68 4.015-3.998 6.468-3.998 1.905 0 3.454.375 4.547 1.827.989 1.313 1.483 3.378 1.903 6.28.168 1.165.295 1.991.44 2.6.148.621.284.875.386.992.066.075.17.161.521.222.39.068.933.079 1.789.079 1.221 0 2.256.111 3.016.442.397.173.767.427 1.035.801.189.265.302.553.354.85.022-.182.034-.381.034-.593 0-.597-.094-1.096-.214-1.41a1.494 1.494 0 00-.054-.125 1.319 1.319 0 01-.534-.257 1.403 1.403 0 01-.455-.687c-.125-.407-.086-.851-.025-1.2.13-.741.474-1.665.901-2.569a18.6 18.6 0 011.572-2.713c.57-.806 1.239-1.581 1.929-2.02 1.685-1.072 3.581-1.06 5.288-.188 1.672.855 3.133 2.509 4.181 4.707.439.921.771 1.562 1.08 2.015.301.444.528.626.72.716.191.089.474.143 1.001.086.54-.057 1.237-.219 2.215-.481 1.087-.291 1.163-.456 1.224-.621.062-.166.112-.465.1-1.037-.011-.561-.079-1.295-.191-2.286l.994-.112-.994.112c-.482-4.282.925-7.639 3.605-9.06 2.7-1.431 6.179-.63 9.246 2.309l-.692.722.692-.722 2.14 2.05 2.023-1.592h0l2.018-1.587-1.593-2.702c-1.418-2.403-2.181-4.585-2.094-6.514.09-2.008 1.092-3.598 2.852-4.751v-.001c.633-.414 1.238-.768 1.893-.988.677-.228 1.363-.298 2.152-.214 1.487.159 3.422.889 6.504 2.144h0c.177.072.269.071.308.066.031-.004.094-.018.202-.109.265-.225.624-.756 1.081-1.861.653-1.575.724-2 .574-2.408-.086-.235-.282-.546-.731-1.033-.447-.485-1.074-1.072-1.951-1.876-2.965-2.715-4.485-5.555-3.537-8.105.467-1.253 1.478-2.248 2.847-3.003 1.367-.754 3.155-1.307 5.311-1.661l.162.987-.162-.987c1.008-.165 1.721-.295 2.247-.441.53-.147.75-.281.855-.38.078-.073.164-.191.225-.527.067-.367.085-.877.085-1.665 0-1.413-.132-1.96-.332-2.249-.167-.243-.51-.478-1.656-.76h-.001c-2.35-.578-4.315-1.478-5.715-2.641-1.406-1.168-2.296-2.657-2.296-4.355 0-1.482.256-2.668 1.292-3.854.946-1.083 2.517-2.126 4.909-3.543h0c.764-.453 1.286-.777 1.651-1.059.36-.28.473-.448.516-.552.037-.09.072-.245.004-.613-.071-.387-.231-.893-.493-1.645-.271-.775-.456-1.27-.643-1.611-.171-.312-.292-.399-.391-.446-.136-.063-.397-.123-.974-.1-.572.023-1.325.118-2.39.264-1.781.244-3.124.326-4.257.08-1.198-.261-2.065-.864-2.948-1.747-1.455-1.455-2.31-2.963-2.127-4.793.173-1.724 1.255-3.504 2.965-5.579h.001l2.371-2.876-1.731-2.17.782-.623-.782.623-1.685-2.113-2.648 1.614c-2.309 1.407-4.387 2.185-6.234 2.119-1.935-.07-3.447-1.058-4.565-2.766l.836-.548-.836.548c-.714-1.089-1.18-2.026-1.24-3.238-.056-1.141.256-2.433.79-4.218.285-.949.483-1.66.602-2.219.119-.565.14-.904.115-1.128-.034-.307-.145-.529-.977-1.137h0c-1.388-1.015-1.992-1.158-2.548-.998-.332.096-.755.331-1.344.829-.585.496-1.274 1.198-2.145 2.156-1.722 1.893-3.282 3.161-4.919 3.558-1.737.421-3.309-.185-4.887-1.382-1.093-.828-1.841-1.776-2.307-3.177-.445-1.339-.621-3.056-.685-5.394l-57.751 65.179zm0 0c3.6-1.837 5.484-4.665 5.101-7.529-.382-2.852-2.937-5.14-6.898-6.077-.875-.207-1.49-.371-1.941-.544-.445-.17-.64-.316-.745-.437-.096-.11-.191-.283-.256-.665-.067-.402-.088-.945-.088-1.743 0-.845.013-1.398.074-1.794.059-.378.142-.469.176-.5.054-.052.21-.157.703-.255.488-.097 1.158-.162 2.128-.24 4.195-.34 7.218-2.184 8.19-4.929.988-2.789-.331-5.929-3.575-8.403-1.201-.916-1.901-1.618-2.267-2.198-.332-.527-.373-.924-.264-1.34l-.338 36.654zm50.931-62.93c-.175.709-.258 1.247-.258 1.503 0 .827-.389 1.541-.895 2.095-.509.555-1.187 1.009-1.922 1.349-1.457.672-3.337.984-5.007.565-.988-.248-1.94-.931-2.773-1.792-.847-.878-1.643-2.017-2.302-3.308a52.72 52.72 0 00-1.501-2.759c-.13-.219-.245-.404-.342-.555-.131.039-.282.086-.45.138a81.84 81.84 0 00-2.201.734c-.722.252-1.181.431-1.498.61-.286.163-.381.286-.435.402-.071.15-.135.419-.129.978.005.556.076 1.286.191 2.307l19.522-2.267zm0 0c.168-.683.4-1.442.652-2.106m-.652 2.106l.652-2.106m0 0c.371-.976.673-1.346 1.034-1.551.418-.238 1.104-.37 2.531-.37.789 0 1.345.019 1.752.074.412.056.555.136.601.171l.002.001c.018.014.074.057.13.279.065.257.1.64.118 1.253l-6.168.143zm-31.736 11.344c3.138 2.64 6.349 3.539 8.758 2.06m-8.758-2.06l8.758 2.06m0 0c2.356-1.447 3.282-4.79 2.804-9.031l-2.804 9.031zM109.41 186.67c-.688.291-1.257.986-1.688 2.633l1.688-2.633zm0 0c.769-.326 2.008-.298 4.14.34l-4.14-.34zm47.806 85.376l-.005-.004a.022.022 0 00.005.004zm-21.75-36.575h0c3.34 3.306 6.464 5.584 9.985 7.02 3.52 1.436 7.366 2.003 12.108 1.994 6.063-.011 9.382-.55 13.005-2.214 10.663-4.897 17.965-16.419 17.938-28.273-.01-4.144-.41-7.444-1.461-10.517-1.051-3.076-2.733-5.861-5.218-9.005-5.862-7.417-14.519-11.496-24.184-11.42-4.4.035-8.98.747-11.787 1.886-20.563 8.346-26.065 35.004-10.386 50.529zm8.77-31.298h.001c1.491-1.958 4.512-4.393 6.618-5.349 2.513-1.142 4.627-1.682 6.695-1.684 2.069-.003 4.174.532 6.673 1.666 12 5.451 12.902 21.308 1.353 29.091h0c-4.34 2.925-11.203 2.905-16.533-.219l-.506.863.506-.863c-3.031-1.776-4.83-3.364-5.914-5.355-1.091-2.004-1.529-4.549-1.545-8.401v0c-.012-2.873.08-4.509.442-5.822.351-1.273.976-2.307 2.21-3.927zm-.421-44.184l-.012.003.012-.003z" stroke="#C2CBD0" stroke-width="2"/><path d="M293.6 169.454h0a8.468 8.468 0 00-.714.357c.02.231.074.572.186 1.1.353 1.665.696 3.325.754 3.651l.002.008a3.65 3.65 0 01-.015 1.167l-.002.015c-.041.26-.102.543-.169.82-.136.56-.331 1.224-.553 1.876-.896 2.623-3.08 4.084-5.589 4.284-2.372.189-4.903-.727-7.135-2.374 0 0 0 0 0 0h-.001l-1.487-1.097-.906.906h0l-.859.858.769.978s0 0 0 0c1.537 1.954 2.524 4.11 2.582 6.328.061 2.304-.893 4.36-2.637 5.939-.956.866-2.063 1.659-3.659 1.842-1.379.158-2.856-.187-4.439-.627h-.001c-.792-.221-1.356-.358-1.78-.433a4.1 4.1 0 00-.481-.06 3.944 3.944 0 00-.15.191h0c-.79 1.066-.683 1.465-.673 1.5v.001c.032.124.266.667 1.679 1.501 3.711 2.192 5.692 5.759 4.749 9.351-.927 3.532-4.353 5.792-8.662 6.151v.001c-.752.062-1.22.119-1.534.183-.044.227-.09.567-.142 1.097l30.867-45.514zm0 0c.741-.337 1.248-.553 1.618-.684.143.283.322.685.564 1.271 1.525 3.681 4.654 5.894 7.971 5.937 3.442.045 6.448-2.268 7.325-6.214.3-1.345.73-3.126.997-4.145.214-.068.581-.118 1.045-.065.509.058.926.216 1.167.374.044.029.076.053.098.071.367 2.453.745 4.345 1.369 5.781.726 1.672 1.766 2.698 3.173 3.451h0c2.013 1.077 4.224 1.266 6.28.415 1.989-.823 3.533-2.492 4.607-4.568l.001-.001c.626-1.212 1.16-1.451 1.341-1.496.154-.038.669-.091 1.675.666.107.081.167.136.198.167.01.08.019.263-.021.617-.045.39-.139.903-.3 1.603-.905 3.927-.25 7.822 2.819 9.734 3.003 1.87 6.849.899 10.169-1.465v-.001l1.275-.907.952.952h0l.878.879-.668.849v.001c-1.737 2.208-2.643 4.867-2.589 7.28.052 2.372 1.127 5.079 3.958 6.042h0c.678.231 1.367.433 1.944.575.285.07.574.133.838.176l.017.003c.154.026.664.11 1.186.019l.008-.002c.326-.058 1.985-.401 3.65-.754.528-.111.87-.165 1.101-.186a8.8 8.8 0 01.357.714v.001c.345.757.558 1.245.684 1.595-.374.25-.935.562-1.827 1.043l1.185 2.201-1.185-2.201c-2.164 1.165-3.916 2.743-4.817 4.737-.943 2.089-.816 4.345.29 6.411h0c.739 1.381 1.788 2.346 3.411 3.019 1.391.577 3.239.95 5.646 1.319.041.295.067.717.067 1.329 0 .624-.011 1.024-.035 1.297-.348.094-.861.192-1.684.325-1.253.204-2.564.59-3.694 1.048-1.048.425-2.256 1.037-3.053 1.834-1.915 1.916-2.178 4.521-1.456 6.761.711 2.208 2.385 4.211 4.656 5.553 1.451.857 1.65 1.384 1.673 1.481.008.034.113.477-.772 1.689-.088.12-.159.212-.219.284a10.42 10.42 0 01-.102-.021c-.334-.075-.8-.218-1.504-.463v-.001c-4.084-1.423-8.078-.529-10.073 2.648-1.932 3.075-1.247 7.15 1.439 10.566l.768.976-.885.885-.885.885-.849-.668h-.001c-3.344-2.631-7.313-3.473-10.43-1.835-3.304 1.737-4.412 5.562-3.252 9.605 0 0 0 0 0 0l.048.17c.286.995.475 1.655.588 2.152-.205.097-.481.223-.861.396h-.001c-.801.365-1.305.58-1.659.698-.26-.371-.585-.942-1.09-1.88h0c-1.156-2.147-2.689-3.907-4.658-4.809-2.083-.954-4.305-.785-6.339.303-.648.347-1.313.798-1.908 1.489-.584.679-.994 1.465-1.321 2.349-.559 1.511-.998 3.675-1.532 6.803M293.6 169.454l19.366 97.063m0 0a4.66 4.66 0 00-2.016-1.156 1.458 1.458 0 01-.11-.177c-.214-.391-.467-1.131-.672-2.415-.635-3.969-2.789-7.21-6.236-7.912-3.475-.707-6.684 1.482-8.722 4.932l17.756 6.728zm-33.757-16.632h0c2.084-1.374 4.233-2.271 6.386-2.286 2.277-.016 4.214.955 5.732 2.632.866.956 1.659 2.063 1.842 3.659.158 1.379-.187 2.856-.627 4.439l-.001.001c-.22.792-.357 1.356-.432 1.78a4.1 4.1 0 00-.06.481c.044.037.106.087.191.15h0c1.064.788 1.469.684 1.507.675v-.001c.118-.03.649-.25 1.462-1.625l-16-9.905zm0 0c-.617.407-1.024.673-1.33.854a35.72 35.72 0 01-.77-.711l-.679-.637 1.307-1.975c1.008-1.524 1.811-2.901 2.145-4.308.377-1.588.104-2.939-.398-4.26-.793-2.083-2.154-3.78-4.371-4.527m4.096 15.564l-4.096-15.564m7.059-15.093h0c-2.04-13.976 7.258-28.193 21.101-32.728 1.054-.345 2.867-.521 4.657-.613a72.339 72.339 0 016.342-.031s0 0 0 0l-.098 2.498-32.002 30.874zm0 0c2.188 14.985 14.607 26.205 29.378 26.244m-29.378-26.244l29.378 26.244m10.54-20.547h0c5.148-4.966 5.526-12.074.774-17.839h0c-4.382-5.316-10.048-6.728-15.285-4.382l14.511 22.221zm0 0c-2.715 2.619-5.124 3.934-7.465 4.338-2.329.401-4.939-.041-8.177-1.609-2.024-.98-4.037-2.837-5.547-5.073-1.522-2.255-2.344-4.609-2.344-6.451 0-5.516 3.608-10.999 9.022-13.426l14.511 22.221zm-59.428-9.1c.405.093.968.191 1.796.324 4.314.69 7.806 2.957 8.603 6.573.813 3.681-1.514 7.105-5.245 9.305-.805.476-1.294.78-1.613 1.019.06.23.166.564.345 1.077l-3.886-18.298zm0 0c.013-.212.036-.488.071-.856l-.071.856zm4.207 19.198c.454-.128.957-.27 1.483-.421l-1.483.421zm0 0a85.94 85.94 0 01-.32-.899l.32.899zm8.244-.702c-2.038-.687-4.359-.408-6.761.281l6.761-.281zm36.437 11.151c4.099.012 7.501-.338 10.611-1.269m-10.611 1.269l10.611-1.269m0 0c3.134-.938 5.846-2.428 8.615-4.54l-8.615 4.54zm-26.451-75.572l-.005.001.005-.001zm18.719-2.588l-.007-.01.007.01zm-3.441 99.361l-.01-.009.01.009z" stroke="#C2CBD0" stroke-width="5"/><path fill-rule="evenodd" clip-rule="evenodd" d="M235.472 104.75c-.859 4.765-2.058 6.25-5.047 6.25-2.266 0-3.572-1.053-6.693-5.397-1.032-1.436-2.032-1.73-4.108-1.209-2.643.663-2.719.865-2.081 5.502 1.059 7.7-3.379 10.461-9.518 5.922l-2.952-2.182-2.506 2.355c-2.163 2.031-2.319 2.571-1.137 3.932 3.288 3.785 3.848 6.091 2.121 8.727-1.508 2.302-2.062 2.46-6.492 1.85-4.218-.58-4.982-.406-5.922 1.351-1.65 3.083-1.363 3.811 2.42 6.149 2.65 1.638 3.5 2.842 3.5 4.959 0 3.398-1.346 4.572-6.25 5.456-3.443.62-3.75.947-3.75 3.988 0 3.087.288 3.374 4.226 4.205 3.375.712 4.429 1.469 5.234 3.757.923 2.627.685 3.136-2.868 6.119-3.332 2.797-3.778 3.64-3.182 6.013.663 2.643.89 2.734 5.308 2.128 7.58-1.039 10.534 3.243 6.114 8.862-2.272 2.888-1.89 4.812 1.363 6.864 1.144.722 2.3.405 4.318-1.183 3.416-2.686 5.655-2.745 7.951-.207 1.391 1.536 1.633 2.905 1.121 6.323-.606 4.04-.458 4.453 2.009 5.577 1.466.668 2.752 1.085 2.859.926 3.473-5.129 4.851-6.633 6.464-7.055 3.054-.799 5.836 1.848 6.582 6.262.635 3.76.887 4.006 4.089 4.006 3.064 0 3.412-.284 3.412-2.777 0-4.092 2.59-7.223 5.975-7.223 2.192 0 3.368.819 5.025 3.5 2.322 3.757 3.075 4.065 6.043 2.477 1.605-.859 1.814-1.74 1.301-5.486-1.012-7.379 3.52-9.869 9.676-5.318 2.855 2.111 2.998 2.121 4.96.345 2.5-2.262 2.503-3.343.02-6.518-4.126-5.275-.984-9.57 6.212-8.491 4.06.609 4.481.461 5.589-1.972 1.556-3.415 1.719-3.033-2.301-5.404-2.726-1.609-3.5-2.71-3.5-4.977 0-3.513 1.311-4.681 6.25-5.571 3.451-.622 3.75-.942 3.75-4.019 0-3.072-.304-3.4-3.75-4.044-4.728-.884-6.25-2.139-6.25-5.154 0-2.255 1.061-3.579 5.322-6.638 1.376-.988 1.65-1.995 1.118-4.113-.67-2.669-.912-2.773-5.004-2.16-7.835 1.175-10.806-3.333-6.254-9.489l2.182-2.952-2.311-2.46-2.312-2.46-3.473 2.649c-3.256 2.483-3.641 2.555-6.121 1.148-2.344-1.33-2.647-2.112-2.647-6.838 0-4.407-.348-5.474-2-6.126-3.078-1.214-3.195-1.159-5.5 2.571-1.638 2.65-2.842 3.5-4.959 3.5-3.398 0-4.572-1.346-5.456-6.25-.625-3.468-.932-3.75-4.085-3.75s-3.46.282-4.085 3.75zm-5.915 21.962c-7.147 2.444-14.838 10.319-16.917 17.322-3.346 11.266-1.107 20.573 6.868 28.548 4.124 4.123 6.563 5.657 11.093 6.974 17.293 5.027 33.967-6.035 36.07-23.931 2.308-19.637-17.994-35.453-37.114-28.913zm3.466 11.108c-5.956 2.64-9.966 8.548-9.966 14.683 0 9.628 5.536 15.639 14.984 16.273 16.965 1.138 23.432-19.84 9.094-29.502-3.374-2.274-10.585-3.017-14.112-1.454zm144.211 81.733c.452 2.172 2.227 2.305 2.633.197.21-1.095-.28-1.75-1.31-1.75-.961 0-1.512.647-1.323 1.553zm6.304-.523c-.388.629-.254 1.597.3 2.151 1.421 1.421 4.719.586 4.719-1.195 0-1.798-4.024-2.564-5.019-.956zm8.519.411c0 1.893 1.432 2.714 3.41 1.955 2.536-.973 1.886-3.396-.91-3.396-1.51 0-2.5.571-2.5 1.441zm9 .553c0 1.502.555 1.909 2.25 1.651 3.313-.504 3.592-3.645.323-3.645-1.904 0-2.573.519-2.573 1.994zm8.187-.244c.183.963 1.341 1.894 2.573 2.07 1.701.242 2.24-.179 2.24-1.75 0-1.557-.638-2.07-2.573-2.07-1.912 0-2.488.45-2.24 1.75zm9 0c.416 2.181 4.813 3.028 4.813.927 0-1.389-2-2.677-4.155-2.677-.545 0-.842.787-.658 1.75zm7.477 2.919c-.367.368.076 1.491.986 2.496 1.265 1.398 1.974 1.562 3.014.699 1.028-.853 1.083-1.463.226-2.497-1.217-1.467-3.139-1.784-4.226-.698zm6.038 5.962c-.989.989 1.203 4.369 2.833 4.369 1.739 0 1.807-.492.43-3.066-1.062-1.983-2.149-2.417-3.263-1.303zm2.678 8.821c-.712 1.856.327 3.548 2.179 3.548.87 0 1.441-.99 1.441-2.5 0-2.748-2.671-3.521-3.62-1.048zm.345 9.49c-.571 2.185-.016 3.058 1.942 3.058.755 0 1.333-1.083 1.333-2.5 0-2.972-2.53-3.403-3.275-.558zm.275 9.058c0 2.089.425 3.025 1.25 2.75.688-.229 1.25-1.467 1.25-2.75s-.562-2.521-1.25-2.75c-.825-.275-1.25.661-1.25 2.75zm-90 4.5v3.5h47v-7h-47v3.5zm90 4c0 1.556.567 2.5 1.5 2.5s1.5-.944 1.5-2.5-.567-2.5-1.5-2.5-1.5.944-1.5 2.5zm-90 13c0 7.778-.272 9.5-1.5 9.5-.825 0-1.5.45-1.5 1s.675 1 1.5 1c1.19 0 1.5 1.444 1.5 7v7h-59v7h65v-5h41v-37h-47v9.5zm89.754-5.25c-.688 1.872.228 3.75 1.829 3.75.845 0 1.417-1.01 1.417-2.5 0-2.596-2.409-3.524-3.246-1.25zm-122.739 6c.025 2.039 1.683 4.054 2.779 3.377 1.419-.877.276-4.627-1.411-4.627-.76 0-1.376.563-1.368 1.25zM435.057 282c0 2.089.425 3.025 1.25 2.75.688-.229 1.25-1.467 1.25-2.75s-.562-2.521-1.25-2.75c-.825-.275-1.25.661-1.25 2.75zm-118.582 3.132c-.714 1.157 1.236 2.827 3.332 2.853 1.863.023 1.511-1.341-.704-2.724-1.389-.868-2.148-.905-2.628-.129zm8.28 1.504c-1.464 1.463-.587 2.364 2.302 2.364 1.65 0 3-.45 3-1s-.413-1-.918-1c-.505 0-1.541-.239-2.302-.531-.762-.292-1.698-.217-2.082.167zm9.003-.004c-1.406 1.406-.642 2.368 1.882 2.368 1.622 0 2.429-.465 2.167-1.25-.481-1.446-3.02-2.147-4.049-1.118zm101.299 3.868c0 1.556.567 2.5 1.5 2.5s1.5-.944 1.5-2.5-.567-2.5-1.5-2.5-1.5.944-1.5 2.5zm0 9c0 1.556.567 2.5 1.5 2.5s1.5-.944 1.5-2.5-.567-2.5-1.5-2.5-1.5.944-1.5 2.5zm-19.506 6.509c-.804 1.302.358 4.991 1.573 4.991.513 0 .933-1.35.933-3 0-2.951-1.282-3.97-2.506-1.991zm19.506 1.491c0 1.556.567 2.5 1.5 2.5s1.5-.944 1.5-2.5-.567-2.5-1.5-2.5-1.5.944-1.5 2.5zm-149 10.393c0 2.538-.522 4.093-1.5 4.469-.825.316-1.5 1.039-1.5 1.607 0 .567.675 1.031 1.5 1.031 1.256 0 1.5 2.111 1.5 13v13h65v-37h-65v3.893zm129.753-3.159c-.802 1.597-.203 4.611.997 5.013.781.262 1.25-.528 1.25-2.105 0-2.48-1.492-4.412-2.247-2.908zm19.247 1.766c0 1.556.567 2.5 1.5 2.5s1.5-.944 1.5-2.5-.567-2.5-1.5-2.5-1.5.944-1.5 2.5zm-160 7c0 .933.944 1.5 2.5 1.5s2.5-.567 2.5-1.5-.944-1.5-2.5-1.5-2.5.567-2.5 1.5zm160 1.417c0 2.132.483 3.083 1.566 3.083 1.111 0 1.475-.779 1.25-2.673-.46-3.893-2.816-4.236-2.816-.41zm-18.848-1.032c-1.593 1.01-1.192 4.269.598 4.865.82.273 1.25-.645 1.25-2.667 0-3.428.032-3.39-1.848-2.198zm18.848 9.615c0 1.556.567 2.5 1.5 2.5s1.5-.944 1.5-2.5-.567-2.5-1.5-2.5-1.5.944-1.5 2.5zm-82 5.5c0 .55.675 1 1.5 1s1.5-.45 1.5-1-.675-1-1.5-1-1.5.45-1.5 1zm25 0c0 .55 1.125 1 2.5 1s2.5-.45 2.5-1-1.125-1-2.5-1-2.5.45-2.5 1zm8 0c0 .55 1.35 1 3 1s3-.45 3-1-1.35-1-3-1-3 .45-3 1zm48.725 2.942c-.571 2.185-.016 3.058 1.942 3.058.755 0 1.333-1.083 1.333-2.5 0-2.972-2.53-3.403-3.275-.558zm.233 8.137c-.767 1.432-.812 2.467-.138 3.141 1.362 1.362 3.18.092 3.18-2.22 0-2.818-1.744-3.346-3.042-.921zm-3.347 7.798c-1.248 1.379-1.412 2.128-.58 2.642 1.641 1.015 4.689-2.199 3.353-3.535-.708-.708-1.577-.428-2.773.893zm-7.361 2.79c-2.251.9-1.428 3.497 1 3.153 1.238-.176 2.25-.957 2.25-1.737 0-1.581-1.359-2.173-3.25-1.416zm-139.25 1.833c0 1.128.702 1.539 2.25 1.32 1.238-.176 2.25-.77 2.25-1.32s-1.012-1.144-2.25-1.32c-1.548-.219-2.25.192-2.25 1.32zm8 0c0 .933.944 1.5 2.5 1.5s2.5-.567 2.5-1.5-.944-1.5-2.5-1.5-2.5.567-2.5 1.5zm9 0c0 .933.944 1.5 2.5 1.5s2.5-.567 2.5-1.5-.944-1.5-2.5-1.5-2.5.567-2.5 1.5zm8 .066c0 1.111.779 1.475 2.673 1.25 3.893-.46 4.236-2.816.41-2.816-2.132 0-3.083.483-3.083 1.566zm9-.066c0 .933.944 1.5 2.5 1.5s2.5-.567 2.5-1.5-.944-1.5-2.5-1.5-2.5.567-2.5 1.5zm8.694-.861c-1.134 1.134.356 2.361 2.865 2.361 1.503 0 2.441-.576 2.441-1.5 0-1.497-4.018-2.148-5.306-.861zm8.306.861c0 .933.944 1.5 2.5 1.5s2.5-.567 2.5-1.5-.944-1.5-2.5-1.5-2.5.567-2.5 1.5zm9 0c0 .933.944 1.5 2.5 1.5s2.5-.567 2.5-1.5-.944-1.5-2.5-1.5-2.5.567-2.5 1.5zm8 0c0 1 1 1.5 3 1.5s3-.5 3-1.5-1-1.5-3-1.5-3 .5-3 1.5zm9 0c0 .933.944 1.5 2.5 1.5s2.5-.567 2.5-1.5-.944-1.5-2.5-1.5-2.5.567-2.5 1.5zm9 0c0 .933.944 1.5 2.5 1.5s2.5-.567 2.5-1.5-.944-1.5-2.5-1.5-2.5.567-2.5 1.5zm8 .066c0 1.111.779 1.475 2.673 1.25 3.893-.46 4.236-2.816.41-2.816-2.132 0-3.083.483-3.083 1.566zm9-.066c0 .933.944 1.5 2.5 1.5s2.5-.567 2.5-1.5-.944-1.5-2.5-1.5-2.5.567-2.5 1.5zm9 0c0 .933.944 1.5 2.5 1.5s2.5-.567 2.5-1.5-.944-1.5-2.5-1.5-2.5.567-2.5 1.5zm8 0c0 .933.944 1.5 2.5 1.5s2.5-.567 2.5-1.5-.944-1.5-2.5-1.5-2.5.567-2.5 1.5zm9 0c0 .933.944 1.5 2.5 1.5s2.5-.567 2.5-1.5-.944-1.5-2.5-1.5-2.5.567-2.5 1.5z" fill="#C2CBD0"/></svg>C331.803 176.561 332.458 180.456 335.527 182.368C338.53 184.238 342.376 183.267 345.696 180.903L345.696 180.902L346.971 179.995L347.923 180.947L347.923 180.947L348.801 181.826L348.133 182.675C348.133 182.676 348.133 182.676 348.133 182.676C346.396 184.884 345.49 187.543 345.544 189.956C345.596 192.328 346.671 195.035 349.502 195.998L349.502 195.998C350.18 196.229 350.869 196.431 351.446 196.573C351.731 196.643 352.02 196.706 352.284 196.749L352.301 196.752C352.455 196.778 352.965 196.862 353.487 196.771L353.495 196.769C353.821 196.711 355.48 196.368 357.145 196.015C357.673 195.904 358.015 195.85 358.246 195.829C358.331 195.977 358.447 196.201 358.603 196.543L358.603 196.544C358.948 197.301 359.161 197.789 359.287 198.139C358.913 198.389 358.352 198.701 357.46 199.182L358.645 201.383L357.46 199.182C355.296 200.347 353.544 201.925 352.643 203.919C351.7 206.008 351.827 208.264 352.933 210.33L352.933 210.33C353.672 211.711 354.721 212.676 356.344 213.349C357.735 213.926 359.583 214.299 361.99 214.668C362.031 214.963 362.057 215.385 362.057 215.997C362.057 216.621 362.046 217.021 362.022 217.294C361.674 217.388 361.161 217.486 360.338 217.619C359.085 217.823 357.774 218.209 356.644 218.667C355.596 219.092 354.388 219.704 353.591 220.501C351.676 222.417 351.413 225.022 352.135 227.262C352.846 229.47 354.52 231.473 356.791 232.815C358.242 233.672 358.441 234.199 358.464 234.296C358.472 234.33 358.577 234.773 357.692 235.985C357.604 236.105 357.533 236.197 357.473 236.269C357.443 236.263 357.409 236.256 357.371 236.248C357.037 236.173 356.571 236.03 355.867 235.785L355.867 235.784C351.783 234.361 347.789 235.255 345.794 238.432C343.862 241.507 344.547 245.582 347.233 248.998L348.001 249.974L347.116 250.859L346.231 251.744L345.382 251.076C345.382 251.076 345.381 251.076 345.381 251.076C342.037 248.445 338.068 247.603 334.951 249.241C331.647 250.978 330.539 254.803 331.699 258.846C331.699 258.846 331.699 258.846 331.699 258.846L331.747 259.016C332.033 260.011 332.222 260.671 332.335 261.168C332.13 261.265 331.854 261.391 331.474 261.564L331.473 261.564C330.672 261.929 330.168 262.144 329.814 262.262C329.554 261.891 329.229 261.32 328.724 260.382L328.724 260.382C327.568 258.235 326.035 256.475 324.066 255.573C321.983 254.619 319.761 254.788 317.727 255.876C317.079 256.223 316.414 256.674 315.819 257.365C315.235 258.044 314.825 258.83 314.498 259.714C313.939 261.225 313.5 263.389 312.966 266.517M293.6 169.454L312.966 266.517M312.966 266.517C312.44 266.001 311.774 265.596 310.95 265.361C310.925 265.328 310.888 265.272 310.84 265.184C310.626 264.793 310.373 264.053 310.168 262.769C309.533 258.8 307.379 255.559 303.932 254.857C300.457 254.15 297.248 256.339 295.21 259.789L312.966 266.517ZM279.209 249.885L279.209 249.885C281.293 248.511 283.442 247.614 285.595 247.599C287.872 247.583 289.809 248.554 291.327 250.231C292.193 251.187 292.986 252.294 293.169 253.89C293.327 255.269 292.982 256.746 292.542 258.329L292.541 258.33C292.321 259.122 292.184 259.686 292.109 260.11C292.069 260.34 292.054 260.494 292.049 260.591C292.093 260.628 292.155 260.678 292.24 260.741L292.24 260.741C293.304 261.529 293.709 261.425 293.747 261.416L293.747 261.415C293.865 261.385 294.396 261.165 295.209 259.79L279.209 249.885ZM279.209 249.885C278.592 250.292 278.185 250.558 277.879 250.739C277.697 250.578 277.455 250.354 277.109 250.028L276.43 249.391L277.737 247.416C278.745 245.892 279.548 244.515 279.882 243.108C280.259 241.52 279.986 240.169 279.484 238.848C278.691 236.765 277.33 235.068 275.113 234.321M279.209 249.885L275.113 234.321M282.172 219.228L282.172 219.228C280.132 205.252 289.43 191.035 303.273 186.5C304.327 186.155 306.14 185.979 307.93 185.887C309.841 185.788 312.103 185.771 314.272 185.856C314.272 185.856 314.272 185.856 314.272 185.856L314.174 188.354L282.172 219.228ZM282.172 219.228C284.36 234.213 296.779 245.433 311.55 245.472M282.172 219.228L311.55 245.472M322.09 224.925L322.09 224.925C327.238 219.959 327.616 212.851 322.864 207.086L322.864 207.086C318.482 201.77 312.816 200.358 307.579 202.704L322.09 224.925ZM322.09 224.925C319.375 227.544 316.966 228.859 314.625 229.263C312.296 229.664 309.686 229.222 306.448 227.654C304.424 226.674 302.411 224.817 300.901 222.581C299.379 220.326 298.557 217.972 298.557 216.13C298.557 210.614 302.165 205.131 307.579 202.704L322.09 224.925ZM262.662 215.825C263.067 215.918 263.63 216.016 264.458 216.149C268.772 216.839 272.264 219.106 273.061 222.722C273.874 226.403 271.547 229.827 267.816 232.027C267.011 232.503 266.522 232.807 266.203 233.046C266.263 233.276 266.369 233.61 266.548 234.123L262.662 215.825ZM262.662 215.825C262.675 215.613 262.698 215.337 262.733 214.969L262.662 215.825ZM266.869 235.023C267.323 234.895 267.826 234.753 268.352 234.602L266.869 235.023ZM266.869 235.023C266.767 234.741 266.659 234.439 266.549 234.124L266.869 235.023ZM275.113 234.321C273.075 233.634 270.754 233.913 268.352 234.602L275.113 234.321ZM311.55 245.472C315.649 245.484 319.051 245.134 322.161 244.203M311.55 245.472L322.161 244.203M322.161 244.203C325.295 243.265 328.007 241.775 330.776 239.663L322.161 244.203ZM295.71 168.631C295.71 168.631 295.708 168.631 295.705 168.632C295.708 168.631 295.71 168.631 295.71 168.631ZM314.429 166.043C314.429 166.043 314.426 166.04 314.422 166.033C314.427 166.039 314.43 166.043 314.429 166.043ZM310.988 265.404C310.988 265.404 310.985 265.402 310.978 265.395C310.985 265.4 310.988 265.404 310.988 265.404Z" stroke="#C2CBD0" stroke-width="5"/>
<path fill-rule="evenodd" clip-rule="evenodd" d="M235.472 104.75C234.613 109.515 233.414 111 230.425 111C228.159 111 226.853 109.947 223.732 105.603C222.7 104.167 221.7 103.873 219.624 104.394C216.981 105.057 216.905 105.259 217.543 109.896C218.602 117.596 214.164 120.357 208.025 115.818L205.073 113.636L202.567 115.991C200.404 118.022 200.248 118.562 201.43 119.923C204.718 123.708 205.278 126.014 203.551 128.65C202.043 130.952 201.489 131.11 197.059 130.5C192.841 129.92 192.077 130.094 191.137 131.851C189.487 134.934 189.774 135.662 193.557 138C196.207 139.638 197.057 140.842 197.057 142.959C197.057 146.357 195.711 147.531 190.807 148.415C187.364 149.035 187.057 149.362 187.057 152.403C187.057 155.49 187.345 155.777 191.283 156.608C194.658 157.32 195.712 158.077 196.517 160.365C197.44 162.992 197.202 163.501 193.649 166.484C190.317 169.281 189.871 170.124 190.467 172.497C191.13 175.14 191.357 175.231 195.775 174.625C203.355 173.586 206.309 177.868 201.889 183.487C199.617 186.375 199.999 188.299 203.252 190.351C204.396 191.073 205.552 190.756 207.57 189.168C210.986 186.482 213.225 186.423 215.521 188.961C216.912 190.497 217.154 191.866 216.642 195.284C216.036 199.324 216.184 199.737 218.651 200.861C220.117 201.529 221.403 201.946 221.51 201.787C224.983 196.658 226.361 195.154 227.974 194.732C231.028 193.933 233.81 196.58 234.556 200.994C235.191 204.754 235.443 205 238.645 205C241.709 205 242.057 204.716 242.057 202.223C242.057 198.131 244.647 195 248.032 195C250.224 195 251.4 195.819 253.057 198.5C255.379 202.257 256.132 202.565 259.1 200.977C260.705 200.118 260.914 199.237 260.401 195.491C259.389 188.112 263.921 185.622 270.077 190.173C272.932 192.284 273.075 192.294 275.037 190.518C277.537 188.256 277.54 187.175 275.057 184C270.931 178.725 274.073 174.43 281.269 175.509C285.329 176.118 285.75 175.97 286.858 173.537C288.414 170.122 288.577 170.504 284.557 168.133C281.831 166.524 281.057 165.423 281.057 163.156C281.057 159.643 282.368 158.475 287.307 157.585C290.758 156.963 291.057 156.643 291.057 153.566C291.057 150.494 290.753 150.166 287.307 149.522C282.579 148.638 281.057 147.383 281.057 144.368C281.057 142.113 282.118 140.789 286.379 137.73C287.755 136.742 288.029 135.735 287.497 133.617C286.827 130.948 286.585 130.844 282.493 131.457C274.658 132.632 271.687 128.124 276.239 121.968L278.421 119.016L276.11 116.556L273.798 114.096L270.325 116.745C267.069 119.228 266.684 119.3 264.204 117.893C261.86 116.563 261.557 115.781 261.557 111.055C261.557 106.648 261.209 105.581 259.557 104.929C256.479 103.715 256.362 103.77 254.057 107.5C252.419 110.15 251.215 111 249.098 111C245.7 111 244.526 109.654 243.642 104.75C243.017 101.282 242.71 101 239.557 101C236.404 101 236.097 101.282 235.472 104.75ZM229.557 126.712C222.41 129.156 214.719 137.031 212.64 144.034C209.294 155.3 211.533 164.607 219.508 172.582C223.632 176.705 226.071 178.239 230.601 179.556C247.894 184.583 264.568 173.521 266.671 155.625C268.979 135.988 248.677 120.172 229.557 126.712ZM233.023 137.82C227.067 140.46 223.057 146.368 223.057 152.503C223.057 162.131 228.593 168.142 238.041 168.776C255.006 169.914 261.473 148.936 247.135 139.274C243.761 137 236.55 136.257 233.023 137.82ZM377.234 219.553C377.686 221.725 379.461 221.858 379.867 219.75C380.077 218.655 379.587 218 378.557 218C377.596 218 377.045 218.647 377.234 219.553ZM383.538 219.03C383.15 219.659 383.284 220.627 383.838 221.181C385.259 222.602 388.557 221.767 388.557 219.986C388.557 218.188 384.533 217.422 383.538 219.03ZM392.057 219.441C392.057 221.334 393.489 222.155 395.467 221.396C398.003 220.423 397.353 218 394.557 218C393.047 218 392.057 218.571 392.057 219.441ZM401.057 219.994C401.057 221.496 401.612 221.903 403.307 221.645C406.62 221.141 406.899 218 403.63 218C401.726 218 401.057 218.519 401.057 219.994ZM409.244 219.75C409.427 220.713 410.585 221.644 411.817 221.82C413.518 222.062 414.057 221.641 414.057 220.07C414.057 218.513 413.419 218 411.484 218C409.572 218 408.996 218.45 409.244 219.75ZM418.244 219.75C418.66 221.931 423.057 222.778 423.057 220.677C423.057 219.288 421.057 218 418.902 218C418.357 218 418.06 218.787 418.244 219.75ZM425.721 222.669C425.354 223.037 425.797 224.16 426.707 225.165C427.972 226.563 428.681 226.727 429.721 225.864C430.749 225.011 430.804 224.401 429.947 223.367C428.73 221.9 426.808 221.583 425.721 222.669ZM431.759 228.631C430.77 229.62 432.962 233 434.592 233C436.331 233 436.399 232.508 435.022 229.934C433.96 227.951 432.873 227.517 431.759 228.631ZM434.437 237.452C433.725 239.308 434.764 241 436.616 241C437.486 241 438.057 240.01 438.057 238.5C438.057 235.752 435.386 234.979 434.437 237.452ZM434.782 246.942C434.211 249.127 434.766 250 436.724 250C437.479 250 438.057 248.917 438.057 247.5C438.057 244.528 435.527 244.097 434.782 246.942ZM435.057 256C435.057 258.089 435.482 259.025 436.307 258.75C436.995 258.521 437.557 257.283 437.557 256C437.557 254.717 436.995 253.479 436.307 253.25C435.482 252.975 435.057 253.911 435.057 256ZM345.057 260.5V264H368.557H392.057V260.5V257H368.557H345.057V260.5ZM435.057 264.5C435.057 266.056 435.624 267 436.557 267C437.49 267 438.057 266.056 438.057 264.5C438.057 262.944 437.49 262 436.557 262C435.624 262 435.057 262.944 435.057 264.5ZM345.057 277.5C345.057 285.278 344.785 287 343.557 287C342.732 287 342.057 287.45 342.057 288C342.057 288.55 342.732 289 343.557 289C344.747 289 345.057 290.444 345.057 296V303H315.557H286.057V306.5V310H318.557H351.057V307.5V305H371.557H392.057V286.5V268H368.557H345.057V277.5ZM434.811 272.25C434.123 274.122 435.039 276 436.64 276C437.485 276 438.057 274.99 438.057 273.5C438.057 270.904 435.648 269.976 434.811 272.25ZM312.072 278.25C312.097 280.289 313.755 282.304 314.851 281.627C316.27 280.75 315.127 277 313.44 277C312.68 277 312.064 277.563 312.072 278.25ZM435.057 282C435.057 284.089 435.482 285.025 436.307 284.75C436.995 284.521 437.557 283.283 437.557 282C437.557 280.717 436.995 279.479 436.307 279.25C435.482 278.975 435.057 279.911 435.057 282ZM316.475 285.132C315.761 286.289 317.711 287.959 319.807 287.985C321.67 288.008 321.318 286.644 319.103 285.261C317.714 284.393 316.955 284.356 316.475 285.132ZM324.755 286.636C323.291 288.099 324.168 289 327.057 289C328.707 289 330.057 288.55 330.057 288C330.057 287.45 329.644 287 329.139 287C328.634 287 327.598 286.761 326.837 286.469C326.075 286.177 325.139 286.252 324.755 286.636ZM333.758 286.632C332.352 288.038 333.116 289 335.64 289C337.262 289 338.069 288.535 337.807 287.75C337.326 286.304 334.787 285.603 333.758 286.632ZM435.057 290.5C435.057 292.056 435.624 293 436.557 293C437.49 293 438.057 292.056 438.057 290.5C438.057 288.944 437.49 288 436.557 288C435.624 288 435.057 288.944 435.057 290.5ZM435.057 299.5C435.057 301.056 435.624 302 436.557 302C437.49 302 438.057 301.056 438.057 299.5C438.057 297.944 437.49 297 436.557 297C435.624 297 435.057 297.944 435.057 299.5ZM415.551 306.009C414.747 307.311 415.909 311 417.124 311C417.637 311 418.057 309.65 418.057 308C418.057 305.049 416.775 304.03 415.551 306.009ZM435.057 307.5C435.057 309.056 435.624 310 436.557 310C437.49 310 438.057 309.056 438.057 307.5C438.057 305.944 437.49 305 436.557 305C435.624 305 435.057 305.944 435.057 307.5ZM286.057 317.893C286.057 320.431 285.535 321.986 284.557 322.362C283.732 322.678 283.057 323.401 283.057 323.969C283.057 324.536 283.732 325 284.557 325C285.813 325 286.057 327.111 286.057 338V351H318.557H351.057V332.5V314H318.557H286.057V317.893ZM415.81 314.734C415.008 316.331 415.607 319.345 416.807 319.747C417.588 320.009 418.057 319.219 418.057 317.642C418.057 315.162 416.565 313.23 415.81 314.734ZM435.057 316.5C435.057 318.056 435.624 319 436.557 319C437.49 319 438.057 318.056 438.057 316.5C438.057 314.944 437.49 314 436.557 314C435.624 314 435.057 314.944 435.057 316.5ZM275.057 323.5C275.057 324.433 276.001 325 277.557 325C279.113 325 280.057 324.433 280.057 323.5C280.057 322.567 279.113 322 277.557 322C276.001 322 275.057 322.567 275.057 323.5ZM435.057 324.917C435.057 327.049 435.54 328 436.623 328C437.734 328 438.098 327.221 437.873 325.327C437.413 321.434 435.057 321.091 435.057 324.917ZM416.209 323.885C414.616 324.895 415.017 328.154 416.807 328.75C417.627 329.023 418.057 328.105 418.057 326.083C418.057 322.655 418.089 322.693 416.209 323.885ZM435.057 333.5C435.057 335.056 435.624 336 436.557 336C437.49 336 438.057 335.056 438.057 333.5C438.057 331.944 437.49 331 436.557 331C435.624 331 435.057 331.944 435.057 333.5ZM353.057 339C353.057 339.55 353.732 340 354.557 340C355.382 340 356.057 339.55 356.057 339C356.057 338.45 355.382 338 354.557 338C353.732 338 353.057 338.45 353.057 339ZM378.057 339C378.057 339.55 379.182 340 380.557 340C381.932 340 383.057 339.55 383.057 339C383.057 338.45 381.932 338 380.557 338C379.182 338 378.057 338.45 378.057 339ZM386.057 339C386.057 339.55 387.407 340 389.057 340C390.707 340 392.057 339.55 392.057 339C392.057 338.45 390.707 338 389.057 338C387.407 338 386.057 338.45 386.057 339ZM434.782 341.942C434.211 344.127 434.766 345 436.724 345C437.479 345 438.057 343.917 438.057 342.5C438.057 339.528 435.527 339.097 434.782 341.942ZM435.015 350.079C434.248 351.511 434.203 352.546 434.877 353.22C436.239 354.582 438.057 353.312 438.057 351C438.057 348.182 436.313 347.654 435.015 350.079ZM431.668 357.877C430.42 359.256 430.256 360.005 431.088 360.519C432.729 361.534 435.777 358.32 434.441 356.984C433.733 356.276 432.864 356.556 431.668 357.877ZM424.307 360.667C422.056 361.567 422.879 364.164 425.307 363.82C426.545 363.644 427.557 362.863 427.557 362.083C427.557 360.502 426.198 359.91 424.307 360.667ZM285.057 362.5C285.057 363.628 285.759 364.039 287.307 363.82C288.545 363.644 289.557 363.05 289.557 362.5C289.557 361.95 288.545 361.356 287.307 361.18C285.759 360.961 285.057 361.372 285.057 362.5ZM293.057 362.5C293.057 363.433 294.001 364 295.557 364C297.113 364 298.057 363.433 298.057 362.5C298.057 361.567 297.113 361 295.557 361C294.001 361 293.057 361.567 293.057 362.5ZM302.057 362.5C302.057 363.433 303.001 364 304.557 364C306.113 364 307.057 363.433 307.057 362.5C307.057 361.567 306.113 361 304.557 361C303.001 361 302.057 361.567 302.057 362.5ZM310.057 362.566C310.057 363.677 310.836 364.041 312.73 363.816C316.623 363.356 316.966 361 313.14 361C311.008 361 310.057 361.483 310.057 362.566ZM319.057 362.5C319.057 363.433 320.001 364 321.557 364C323.113 364 324.057 363.433 324.057 362.5C324.057 361.567 323.113 361 321.557 361C320.001 361 319.057 361.567 319.057 362.5ZM327.751 361.639C326.617 362.773 328.107 364 330.616 364C332.119 364 333.057 363.424 333.057 362.5C333.057 361.003 329.039 360.352 327.751 361.639ZM336.057 362.5C336.057 363.433 337.001 364 338.557 364C340.113 364 341.057 363.433 341.057 362.5C341.057 361.567 340.113 361 338.557 361C337.001 361 336.057 361.567 336.057 362.5ZM345.057 362.5C345.057 363.433 346.001 364 347.557 364C349.113 364 350.057 363.433 350.057 362.5C350.057 361.567 349.113 361 347.557 361C346.001 361 345.057 361.567 345.057 362.5ZM353.057 362.5C353.057 363.5 354.057 364 356.057 364C358.057 364 359.057 363.5 359.057 362.5C359.057 361.5 358.057 361 356.057 361C354.057 361 353.057 361.5 353.057 362.5ZM362.057 362.5C362.057 363.433 363.001 364 364.557 364C366.113 364 367.057 363.433 367.057 362.5C367.057 361.567 366.113 361 364.557 361C363.001 361 362.057 361.567 362.057 362.5ZM371.057 362.5C371.057 363.433 372.001 364 373.557 364C375.113 364 376.057 363.433 376.057 362.5C376.057 361.567 375.113 361 373.557 361C372.001 361 371.057 361.567 371.057 362.5ZM379.057 362.566C379.057 363.677 379.836 364.041 381.73 363.816C385.623 363.356 385.966 361 382.14 361C380.008 361 379.057 361.483 379.057 362.566ZM388.057 362.5C388.057 363.433 389.001 364 390.557 364C392.113 364 393.057 363.433 393.057 362.5C393.057 361.567 392.113 361 390.557 361C389.001 361 388.057 361.567 388.057 362.5ZM397.057 362.5C397.057 363.433 398.001 364 399.557 364C401.113 364 402.057 363.433 402.057 362.5C402.057 361.567 401.113 361 399.557 361C398.001 361 397.057 361.567 397.057 362.5ZM405.057 362.5C405.057 363.433 406.001 364 407.557 364C409.113 364 410.057 363.433 410.057 362.5C410.057 361.567 409.113 361 407.557 361C406.001 361 405.057 361.567 405.057 362.5ZM414.057 362.5C414.057 363.433 415.001 364 416.557 364C418.113 364 419.057 363.433 419.057 362.5C419.057 361.567 418.113 361 416.557 361C415.001 361 414.057 361.567 414.057 362.5Z" fill="#C2CBD0"/>
</svg>
