<svg width="605" height="687" viewBox="0 0 605 687" fill="none" xmlns="http://www.w3.org/2000/svg">
<path fill-rule="evenodd" clip-rule="evenodd" d="M188.839 211.226C187.063 213.945 186.837 215.618 188.245 215.618C188.869 215.618 189.21 226.72 189.21 246.989C189.21 274.702 189.388 278.429 190.737 278.948C191.577 279.271 209.384 279.536 230.308 279.536C255.663 279.536 268.353 279.867 268.353 280.529C268.353 281.095 269.6 280.875 271.248 280.02C274.816 278.168 274.865 277.327 271.539 275.141C269.759 273.97 268.816 273.782 268.563 274.545C268.344 275.205 266.059 275.662 262.983 275.662H257.775L257.515 256.051L257.253 236.44H252.428H247.602L247.34 256.051C247.019 280.191 245.348 282.581 244.971 259.44L244.706 243.219H239.398H234.09L233.825 259.44C233.667 269.16 233.183 275.662 232.619 275.662C232.049 275.662 231.677 270.103 231.677 261.619V247.577H226.369H221.06V261.619C221.06 279.289 219.298 280.683 218.918 263.314L218.647 250.966L213.58 250.674L208.513 250.38V263.022C208.513 273.612 208.279 275.662 207.066 275.662C205.88 275.662 205.618 273.994 205.618 266.461V257.261H200.31H195.001V266.461C195.001 273.994 194.739 275.662 193.553 275.662C192.298 275.662 192.106 271.689 192.106 245.72C192.106 223.327 192.397 215.682 193.262 215.392C194.145 215.097 194.117 214.28 193.144 211.922C191.614 208.213 190.883 208.095 188.839 211.226ZM256.047 215.333C254.824 215.569 253.873 216.464 253.871 217.38C253.867 219.532 244.135 227.343 234.828 232.665C224.827 238.383 214.788 242.484 204.226 245.162C198.616 246.586 195.484 247.849 195.484 248.689C195.484 250.835 203.123 249.779 213.987 246.134C228.951 241.112 239.971 235.137 251.208 225.953C254.253 223.464 257.401 221.429 258.205 221.429C259.009 221.429 259.672 220.884 259.68 220.218C259.686 219.553 259.955 218.027 260.274 216.828C260.876 214.574 260.559 214.461 256.047 215.333ZM106.038 295.465C104.148 296.379 103.873 297.161 104.107 300.968L104.38 305.407L99.6513 305.408C95.8177 305.408 94.7793 305.775 94.1693 307.344C92.7717 310.937 93.2678 312.614 96.1758 314.123C99.8559 316.032 99.8559 318.435 96.1758 320.902C92.8798 323.111 92.543 325.115 94.9694 328.074C96.4007 329.82 97.1284 329.996 99.7449 329.231C103.739 328.064 105.321 329.767 104.47 334.316C103.818 337.805 104.658 339.041 108.477 340.216C110.257 340.764 111 340.278 112.641 337.484C114.946 333.565 116.548 333.693 120.31 338.097C122.565 340.735 122.917 340.842 125.482 339.67C128.035 338.502 128.193 338.118 127.671 334.299C127.004 329.412 127.813 328.672 133.444 329.018C137.266 329.255 137.532 329.099 138.154 326.256C138.872 322.976 137.725 320.871 134.695 319.905C131.925 319.023 132.477 315.906 135.747 313.969C137.469 312.948 138.637 311.454 138.628 310.282C138.6 306.609 137.002 305.407 132.152 305.407H127.543L127.834 300.802C128.1 296.562 127.915 296.116 125.495 295.193C122.174 293.926 120.58 294.542 119.176 297.632C117.691 300.902 115.045 300.723 112.431 297.175C110.116 294.033 109.397 293.841 106.038 295.465ZM477.14 272.312C475.414 273.368 473.567 275.63 472.885 277.522C471.747 280.679 471.476 280.839 468.046 280.377C463.08 279.709 459.44 283.199 459.44 288.626C459.44 294.98 461.975 296.458 473.456 296.791L483.086 297.071V303.85V310.629L466.919 310.895L450.753 311.16V313.987C450.753 316.619 450.472 316.833 446.651 317.111L442.549 317.409V327.093V336.778H452.201H461.852V327.093V317.409L457.75 317.111C454.957 316.908 453.649 316.368 453.649 315.417C453.649 314.297 455.474 314.019 462.818 314.019C470.161 314.019 471.986 314.297 471.986 315.417C471.986 316.368 470.678 316.908 467.885 317.111L463.783 317.409V327.093V336.778L473.675 337.054L483.568 337.33V327.127V316.924H479.225C476.008 316.924 474.882 316.548 474.882 315.472C474.882 314.278 476.598 314.019 484.533 314.019C492.298 314.019 494.185 314.292 494.185 315.417C494.185 316.368 492.876 316.908 490.083 317.111L485.981 317.409L485.706 327.369L485.43 337.331L495.358 337.054L505.284 336.778V327.093V317.409L501.182 317.111C498.389 316.908 497.08 316.368 497.08 315.417C497.08 314.297 498.905 314.019 506.249 314.019C513.593 314.019 515.418 314.297 515.418 315.417C515.418 316.368 514.109 316.908 511.316 317.111L507.214 317.409V327.093V336.778L517.107 337.054L527 337.33V327.127V316.924H522.657C518.475 316.924 518.314 316.817 518.314 314.019V311.114H502.389H486.464V303.85V296.587H495.933C504.111 296.587 505.689 296.32 507.503 294.623C513.584 288.938 508.741 279.072 500.526 280.409C497.597 280.886 497.13 280.642 496.077 278.092C495.429 276.525 493.619 274.162 492.056 272.841C488.456 269.801 481.639 269.559 477.14 272.312ZM110.585 309.056C105.041 312.805 104.407 320.049 109.201 324.859C110.992 326.656 112.562 327.197 115.991 327.197C127.024 327.197 130.161 313.426 120.294 308.306C116.474 306.324 114.387 306.485 110.585 309.056ZM142.986 326.159C141.517 326.74 141.055 327.822 141.055 330.691C141.055 334.419 141.012 334.463 137.045 334.753C133.662 335 132.938 335.433 132.416 337.519C131.837 339.835 133.734 342.565 135.988 342.661C137.615 342.731 136.55 345.585 134.209 347.432C132.058 349.129 131.831 349.79 132.602 352.103C133.378 354.438 134.002 354.797 137.277 354.797C140.923 354.797 141.057 354.913 141.107 358.104C141.144 360.453 141.809 361.842 143.403 362.904C145.517 364.313 145.767 364.248 147.73 361.777C150.309 358.533 151.826 358.476 154.223 361.532C156.973 365.041 160.197 363.595 160.841 358.566C161.293 355.042 161.549 354.778 164.81 354.505C167.399 354.288 168.571 353.611 169.356 351.881C170.267 349.876 170.083 349.289 168.041 347.676C165.165 345.406 165.001 343.126 167.597 341.499C171.415 339.106 169.202 333.483 164.888 334.615C161.869 335.407 160.127 333.58 160.628 330.148C160.981 327.735 160.614 327.051 158.428 326.052C156.029 324.955 155.642 325.077 153.899 327.478C151.53 330.741 149.934 330.795 147.9 327.681C146.201 325.08 145.929 324.995 142.986 326.159ZM145.566 339.122C142.506 342.392 142.718 347.77 146.011 350.369C151.987 355.085 160.042 350.064 158.415 342.637C157.169 336.941 149.558 334.859 145.566 339.122ZM444.962 327.093V334.356H452.201H459.44V327.093V319.83H452.201H444.962V327.093ZM466.196 327.093V334.356H473.434H480.673V327.093V319.83H473.434H466.196V327.093ZM488.394 327.093V334.356H495.633H502.871V327.093V319.83H495.633H488.394V327.093ZM509.627 327.093V334.356H516.866H524.104V327.093V319.83H516.866H509.627V327.093ZM234.536 317.899C231.91 319.327 231.867 319.462 233.479 321.25C234.404 322.274 235.516 323.112 235.95 323.112C236.679 323.112 239.686 318.084 239.686 316.865C239.686 315.908 237.327 316.381 234.536 317.899ZM367.545 284.33C367.191 284.685 366.902 286.573 366.902 288.525C366.902 291.944 366.741 292.111 362.503 293.084L358.102 294.094L356.606 290.343C355.223 286.875 353.606 285.727 352.154 287.183C351.829 287.511 352.246 289.492 353.082 291.587C354.511 295.173 354.495 295.475 352.788 296.75C347.756 300.508 346.765 300.636 343.915 297.896C342.432 296.472 340.701 295.306 340.066 295.306C338.037 295.306 338.825 297.765 341.757 300.583L344.601 303.318L342.036 306.817C340.626 308.742 339.394 310.451 339.297 310.616C339.2 310.78 337.508 310.238 335.536 309.411C333.564 308.585 331.563 308.149 331.089 308.444C329.183 309.625 330.429 311.555 334.009 312.966C337.768 314.448 337.787 314.483 336.928 318.198C336.452 320.255 336.053 322.24 336.04 322.609C336.027 322.977 334.171 323.413 331.915 323.578C329.045 323.786 327.813 324.311 327.813 325.328C327.813 326.345 329.045 326.87 331.915 327.078C334.171 327.242 336.027 327.678 336.04 328.046C336.053 328.415 336.444 330.365 336.91 332.378C337.738 335.957 337.674 336.081 333.991 337.966C328.028 341.019 329.452 343.92 335.64 341.326C337.603 340.502 339.268 339.944 339.341 340.084C339.413 340.224 340.626 341.913 342.036 343.839L344.601 347.338L341.757 350.073C340.192 351.577 338.912 353.379 338.912 354.078C338.912 356.18 342.011 355.516 344.823 352.813L347.461 350.277L350.667 352.5C352.429 353.723 354.035 354.845 354.234 354.996C354.434 355.146 353.914 356.981 353.08 359.073C352.245 361.166 351.829 363.145 352.154 363.472C353.606 364.929 355.223 363.781 356.606 360.313L358.102 356.561L362.454 357.56C366.666 358.527 366.815 358.686 367.095 362.514C367.304 365.369 367.854 366.559 369.073 366.792C370.478 367.059 370.762 366.384 370.762 362.792C370.762 358.604 370.868 358.451 374.209 357.822C376.104 357.465 378.168 356.981 378.793 356.747C379.419 356.514 380.659 358.064 381.549 360.194C382.464 362.384 383.826 364.066 384.685 364.066C386.581 364.066 386.593 362.998 384.744 358.559C383.941 356.631 383.398 354.977 383.538 354.885C383.678 354.793 385.45 353.717 387.476 352.494L391.16 350.269L393.802 352.809C398.62 357.441 400.808 355.188 396.189 350.351L393.627 347.667L396.206 343.755L398.786 339.843L402.249 341.295C404.155 342.094 406.101 342.506 406.575 342.212C408.487 341.026 407.242 338.971 403.952 337.882C400.618 336.778 400.491 336.572 401.046 333.206C401.364 331.27 401.631 329.165 401.636 328.528C401.643 327.836 403.491 327.252 406.232 327.076C409.532 326.863 410.816 326.374 410.816 325.328C410.816 324.288 409.548 323.793 406.35 323.585C402.02 323.304 401.866 323.186 401.294 319.711C400.399 314.282 400.439 314.184 404.06 312.87C407.314 311.689 408.451 309.607 406.501 308.397C405.986 308.078 404.217 308.515 402.572 309.37C399.225 311.105 398.27 310.664 395.644 306.175C394.021 303.402 394.038 303.285 396.368 301.089C398.856 298.743 399.587 295.306 397.598 295.306C396.963 295.306 395.255 296.449 393.802 297.846L391.16 300.386L387.476 298.162C385.45 296.939 383.678 295.863 383.538 295.771C383.398 295.679 383.941 294.025 384.744 292.096C386.593 287.657 386.581 286.59 384.685 286.59C383.826 286.59 382.464 288.272 381.549 290.462C380.659 292.591 379.419 294.142 378.793 293.908C378.168 293.674 376.104 293.191 374.209 292.833C370.879 292.207 370.762 292.041 370.762 287.935C370.762 283.922 369.435 282.434 367.545 284.33ZM318.155 376.752C316.156 377.225 312.767 378.509 310.624 379.606L306.728 381.6L308.913 385.186C315.385 395.808 325.445 410.563 326.214 410.563C326.716 410.563 327.098 403.038 327.098 393.131V375.699L324.443 375.795C322.984 375.85 320.154 376.28 318.155 376.752ZM328.063 409.653V443.609L332.647 442.961C343.576 441.418 353.706 434.163 359.099 424.016C361.058 420.331 361.36 418.403 361.36 409.594C361.36 400.423 361.108 398.951 358.779 394.583C353.857 385.352 346.846 379.683 337.27 377.194C327.056 374.538 328.063 370.989 328.063 409.653ZM231.482 322.143C231.097 322.769 231.216 323.716 231.747 324.249C232.39 324.895 232.945 324.839 233.413 324.08C233.798 323.455 233.679 322.508 233.148 321.975C232.504 321.329 231.949 321.385 231.482 322.143ZM329.993 409.235V440.585H332.369C340.87 440.585 353.18 431.588 357.234 422.412C360.273 415.535 360.613 405.624 358.045 398.799C354.271 388.768 344.718 380.646 334.423 378.716L329.993 377.885V409.235ZM317.446 379.291C316.65 379.584 314.583 380.4 312.854 381.104L309.708 382.386L316.139 392.359C325.742 407.251 325.167 407.281 325.167 391.885V378.604L322.031 378.68C320.305 378.722 318.242 378.997 317.446 379.291ZM227.582 326.082C226.694 327.524 227.724 328.308 229.571 327.597C230.424 327.268 230.852 326.561 230.521 326.024C229.739 324.754 228.383 324.78 227.582 326.082ZM243.305 327.54C240.159 329.253 240.033 329.998 242.512 332.249C244.301 333.874 244.431 333.826 245.89 330.994C248.521 325.889 247.889 325.045 243.305 327.54ZM298.957 388.02C292.349 394.852 290.172 399.844 289.652 409.352C289.132 418.839 287.613 418.29 306.288 415.373C322.341 412.867 323.237 412.661 323.237 411.495C323.237 409.73 306.113 383.935 304.759 383.662C304.029 383.514 301.417 385.475 298.957 388.02ZM223.803 329.824C223.497 330.32 223.689 330.999 224.228 331.334C225.38 332.048 227.139 331.141 227.139 329.834C227.139 328.655 224.526 328.648 223.803 329.824ZM421.117 367.08C420.285 368.696 420.054 369.986 420.597 369.986C421.23 369.986 421.663 381.121 421.828 401.702L422.083 433.419L461.121 433.673C490.891 433.866 500.335 434.21 500.9 435.126C501.474 436.054 502.211 435.977 504.178 434.782C507.382 432.835 507.365 432.042 504.082 430.12C502.067 428.94 501.345 428.862 501.013 429.787C500.705 430.652 497.666 430.998 490.379 430.998C480.554 430.998 480.235 430.932 481.772 429.227C482.651 428.252 483.37 426.419 483.37 425.151C483.37 423 483.095 423.118 479.231 426.923C475.955 430.149 474.387 430.998 471.704 430.998C468.362 430.998 468.32 430.949 468.708 427.366L469.102 423.735L464.896 427.607L460.689 431.48L464.79 427.086C468.362 423.261 470.272 418.408 468.205 418.408C466.453 418.408 459.241 426.751 459.241 428.778C459.241 430.5 458.699 430.998 456.828 430.998C454.758 430.998 454.415 430.558 454.415 427.903V424.808L450.796 428.144L447.176 431.479L450.796 427.567C453.262 424.901 454.415 422.752 454.415 420.824V417.997L449.589 422.766C446.935 425.39 444.764 428.314 444.764 429.266C444.764 430.468 444.024 430.998 442.351 430.998C440.376 430.998 439.938 430.525 439.938 428.396V425.794L436.801 428.636L433.664 431.478L436.801 428.044C439.596 424.985 441.072 420.345 439.251 420.345C438.023 420.345 430.286 428.459 430.286 429.747C430.286 430.435 429.202 430.998 427.874 430.998H425.461V400.572C425.461 378.453 425.765 370.046 426.573 369.775C427.334 369.521 427.147 368.575 425.98 366.789C423.801 363.451 422.963 363.5 421.117 367.08ZM299.595 390.349C294.809 395.663 292.207 401.848 291.609 409.326L291.118 415.471L294.871 414.885C314.139 411.874 319.831 410.714 319.65 409.837C319.274 408.006 304.859 386.352 304.016 386.352C303.563 386.352 301.574 388.15 299.595 390.349ZM359.859 297.671C335.174 306.506 333.146 339.621 356.553 351.615C362.293 354.556 371.922 355.115 378.586 352.895C385.485 350.596 393.88 342.322 396.169 335.566C400.001 324.257 397.483 313.241 389.172 304.952C385.23 301.022 382.407 299.144 378.614 297.93C372.46 295.962 364.925 295.858 359.859 297.671ZM220.866 332.796C220.48 333.422 220.599 334.369 221.13 334.902C221.774 335.548 222.329 335.492 222.796 334.733C223.181 334.108 223.062 333.16 222.531 332.628C221.888 331.982 221.333 332.038 220.866 332.796ZM239.365 332.474C238.254 333.588 238.661 334.733 240.169 334.733C240.965 334.733 241.616 334.08 241.616 333.281C241.616 331.768 240.475 331.359 239.365 332.474ZM32.0239 379.997C30.9671 381.792 30.7133 383.059 31.3329 383.444C31.9641 383.835 32.3135 395.241 32.3135 415.469V446.887H71.4319C105.251 446.887 110.626 447.082 111.104 448.335C111.587 449.595 112.019 449.567 114.452 448.125C117.909 446.077 117.929 445.573 114.618 444.059C112.791 443.224 111.884 443.177 111.642 443.904C111.431 444.542 108.132 444.95 103.172 444.95H95.0482V430.006V415.063L98.6675 409.188C100.659 405.957 102.786 403.499 103.396 403.727C104.446 404.117 105.801 397.955 104.87 397.02C104.084 396.233 98.846 399.517 99.4155 400.44C99.7282 400.948 98.5739 403.733 96.8491 406.625L93.7134 411.887L89.7109 409.534C87.5104 408.239 85.3977 407.18 85.0164 407.18C84.6352 407.18 83.4587 409.141 82.4018 411.538C81.345 413.935 80.2322 415.896 79.9291 415.896C79.626 415.896 77.8936 414.589 76.0801 412.991C74.2666 411.393 72.3797 410.086 71.8884 410.086C71.0237 410.086 69.6831 414.111 68.3956 420.569C67.6225 424.448 66.9343 424.886 63.6036 423.615C61.2583 422.72 60.5914 422.954 57.8359 425.633L54.7194 428.664L50.798 426.399L46.8766 424.135L43.2148 427.659C40.0665 430.688 39.2471 431.04 37.3805 430.17C34.6289 428.888 34.3943 423.715 36.9829 421.365C38.6429 419.857 38.8688 419.879 40.5105 421.699C42.9282 424.38 43.6791 424.165 45.537 420.254C46.423 418.39 47.4432 416.865 47.8032 416.865C48.1641 416.865 49.6746 418.626 51.1619 420.779C52.6704 422.963 54.5109 424.568 55.3255 424.411C56.2733 424.227 57.6515 420.984 59.2508 415.17C60.6059 410.243 62.0015 406.212 62.3518 406.212C62.7022 406.212 63.3662 408.282 63.8266 410.812C64.3738 413.817 65.1536 415.412 66.0744 415.412C66.8504 415.412 69.5354 411.716 72.0419 407.198C74.7656 402.29 76.7847 399.562 77.0607 400.419C77.3145 401.208 77.91 403.134 78.3829 404.699C78.8568 406.263 79.6984 407.696 80.2534 407.882C80.8093 408.067 84.8523 404.274 89.2389 399.453C94.0068 394.213 97.8471 390.789 98.7862 390.943C99.9617 391.136 100.432 390.29 100.656 387.569C100.821 385.572 100.69 383.938 100.367 383.938C98.542 383.938 94.2201 387.043 94.6139 388.072C95.0646 389.252 81.9656 403.148 81.2176 402.285C81.012 402.048 80.2399 399.893 79.5006 397.496C78.7622 395.099 77.7237 393.176 77.1929 393.222C76.6621 393.269 74.2116 396.898 71.7475 401.288C69.2835 405.678 67.0511 408.909 66.7876 408.467C66.5242 408.026 65.7945 405.158 65.1672 402.096C63.1741 392.369 61.4002 394.787 56.2878 414.202C55.6218 416.732 54.7609 418.802 54.3739 418.802C53.9878 418.802 52.4494 417.068 50.9553 414.948C49.4613 412.829 47.7423 411.086 47.1372 411.075C46.5311 411.064 45.3169 412.855 44.4396 415.056L42.8433 419.057L40.6678 417.006C38.6188 415.075 38.3949 415.052 36.8497 416.601C35.3054 418.152 35.2089 417.245 35.2089 401.174C35.2089 389.322 35.5429 383.987 36.3015 383.733C37.0553 383.481 36.8979 382.405 35.7938 380.263C34.9145 378.556 34.0816 377.158 33.9446 377.158C33.8075 377.158 32.9428 378.436 32.0239 379.997ZM217.046 336.603C216.332 337.763 218.148 338.91 219.433 338.113C220.513 337.444 219.804 335.702 218.453 335.702C217.985 335.702 217.351 336.107 217.046 336.603ZM235.384 336.603C235.078 337.099 235.27 337.778 235.81 338.113C236.961 338.827 238.721 337.92 238.721 336.613C238.721 335.434 236.108 335.427 235.384 336.603ZM251.268 338.368C249.41 339.298 247.961 340.495 248.049 341.028C248.137 341.561 247.742 342.56 247.173 343.248C246.433 344.143 246.448 344.811 247.224 345.59C248.028 346.396 248.463 346.275 248.903 345.125C249.23 344.271 250.084 343.797 250.8 344.073C252.133 344.586 255.515 339.285 254.946 337.576C254.781 337.081 253.126 337.437 251.268 338.368ZM214.022 339.94C213.204 342.078 214.292 343.169 215.767 341.69C216.637 340.816 216.64 340.275 215.782 339.414C214.923 338.552 214.504 338.677 214.022 339.94ZM232.447 339.575C232.062 340.201 232.181 341.148 232.712 341.681C233.356 342.327 233.911 342.271 234.378 341.512C234.763 340.887 234.644 339.94 234.113 339.407C233.469 338.761 232.915 338.817 232.447 339.575ZM367.517 306.443C367.212 307.242 366.113 307.896 365.076 307.896C362.301 307.896 357.485 312.366 356.777 315.599C355.818 319.981 358.384 323.893 363.503 325.856C367.757 327.485 367.867 327.635 367.867 331.754C367.867 336.89 365.739 337.496 363.237 333.072C360.428 328.105 356.285 328.039 356.285 332.964C356.285 336.309 359.889 339.85 364.185 340.726C366.528 341.204 367.469 341.968 367.7 343.578C368.088 346.28 370.165 345.811 370.589 342.926C370.785 341.58 371.585 340.823 372.807 340.823C376.074 340.823 380.089 338.138 381.334 335.122C383.706 329.376 379.979 323.062 373.442 321.749C371.003 321.26 370.762 320.832 370.762 316.975C370.762 312.094 371.457 311.778 374.661 315.2C377.403 318.129 380.764 318.03 381.193 315.006C381.575 312.316 378.106 309.063 374.038 308.297C372.31 307.971 370.662 307.095 370.377 306.348C369.696 304.566 368.216 304.616 367.517 306.443ZM210.249 343.449C209.461 344.728 210.616 346.541 211.763 345.829C212.936 345.102 212.928 342.481 211.754 342.481C211.254 342.481 210.577 342.917 210.249 343.449ZM228.547 343.514C227.659 344.956 228.689 345.74 230.536 345.029C231.39 344.701 231.817 343.993 231.486 343.456C230.704 342.186 229.348 342.213 228.547 343.514ZM206.43 347.256C205.716 348.415 207.531 349.563 208.817 348.766C209.897 348.097 209.187 346.355 207.836 346.355C207.368 346.355 206.735 346.76 206.43 347.256ZM224.768 347.256C224.462 347.752 224.654 348.431 225.193 348.766C226.345 349.48 228.104 348.573 228.104 347.266C228.104 346.087 225.492 346.08 224.768 347.256ZM243.106 347.256C242.391 348.415 244.207 349.563 245.492 348.766C246.572 348.097 245.863 346.355 244.512 346.355C244.044 346.355 243.411 346.76 243.106 347.256ZM258.748 348.845C255.601 350.559 255.476 351.304 257.954 353.555C259.744 355.18 259.873 355.132 261.332 352.3C263.963 347.195 263.331 346.351 258.748 348.845ZM364.73 313.784C362.483 315.097 362.582 318.234 364.908 319.483C367.697 320.98 367.867 320.816 367.867 316.612C367.867 312.536 367.473 312.181 364.73 313.784ZM203.405 350.593C202.588 352.731 203.675 353.822 205.15 352.343C206.021 351.469 206.024 350.928 205.165 350.067C204.307 349.205 203.888 349.33 203.405 350.593ZM221.831 350.228C221.446 350.854 221.564 351.801 222.095 352.334C222.739 352.98 223.294 352.924 223.761 352.165C224.146 351.54 224.027 350.593 223.497 350.06C222.853 349.414 222.298 349.47 221.831 350.228ZM240.081 350.593C239.263 352.731 240.351 353.822 241.826 352.343C242.696 351.469 242.699 350.928 241.841 350.067C240.982 349.205 240.563 349.33 240.081 350.593ZM199.793 353.78C198.683 354.893 199.09 356.039 200.597 356.039C201.394 356.039 202.045 355.385 202.045 354.586C202.045 353.074 200.903 352.665 199.793 353.78ZM217.931 354.167C217.043 355.609 218.072 356.393 219.92 355.682C220.773 355.353 221.2 354.646 220.869 354.109C220.088 352.839 218.732 352.865 217.931 354.167ZM236.308 354.102C235.52 355.381 236.675 357.193 237.822 356.482C238.995 355.755 238.987 353.134 237.813 353.134C237.313 353.134 236.636 353.57 236.308 354.102ZM254.807 353.78C253.696 354.893 254.103 356.039 255.611 356.039C256.407 356.039 257.059 355.385 257.059 354.586C257.059 353.074 255.917 352.665 254.807 353.78ZM214.987 357.372C214.169 359.51 215.257 360.601 216.732 359.122C217.602 358.248 217.605 357.707 216.747 356.846C215.888 355.984 215.469 356.109 214.987 357.372ZM195.813 357.909C195.507 358.405 195.699 359.084 196.239 359.419C197.39 360.133 199.15 359.226 199.15 357.919C199.15 356.74 196.537 356.733 195.813 357.909ZM232.489 357.909C231.775 359.068 233.59 360.216 234.876 359.419C235.956 358.75 235.246 357.008 233.895 357.008C233.427 357.008 232.794 357.413 232.489 357.909ZM250.827 357.909C250.113 359.068 251.928 360.216 253.214 359.419C254.294 358.75 253.584 357.008 252.233 357.008C251.765 357.008 251.132 357.413 250.827 357.909ZM266.469 359.498C263.322 361.212 263.197 361.957 265.676 364.208C267.465 365.833 267.594 365.785 269.054 362.953C271.685 357.848 271.052 357.004 266.469 359.498ZM305.623 417.141C291.485 419.444 290.422 419.763 290.422 421.697C290.422 426.246 293.71 433.112 298.303 438.155C303.877 444.274 310.976 448.008 318.791 448.929L324.202 449.567V432.002C324.202 415.875 324.064 414.446 322.513 414.551C321.585 414.614 313.984 415.78 305.623 417.141ZM192.876 360.881C192.491 361.507 192.61 362.454 193.141 362.987C193.784 363.633 194.339 363.577 194.807 362.818C195.192 362.193 195.073 361.246 194.542 360.713C193.898 360.067 193.343 360.123 192.876 360.881ZM211.214 360.881C210.427 362.16 211.581 363.973 212.728 363.261C213.901 362.534 213.893 359.913 212.719 359.913C212.219 359.913 211.542 360.349 211.214 360.881ZM229.464 361.245C228.647 363.384 229.734 364.475 231.209 362.995C232.08 362.122 232.083 361.581 231.225 360.72C230.366 359.858 229.947 359.983 229.464 361.245ZM247.89 360.881C247.505 361.507 247.623 362.454 248.154 362.987C248.798 363.633 249.353 363.577 249.82 362.818C250.205 362.193 250.086 361.246 249.556 360.713C248.912 360.067 248.357 360.123 247.89 360.881ZM309.846 427.39C304.357 432.916 300.269 437.686 300.761 437.991C301.253 438.296 306.395 433.775 312.188 427.943C317.982 422.112 322.07 417.342 321.273 417.342C320.477 417.342 315.334 421.864 309.846 427.39ZM474.095 398.484C473.803 399.244 473.708 400.8 473.883 401.941C474.178 403.864 474.441 403.764 477.527 400.558L480.852 397.102H477.738C475.929 397.102 474.4 397.682 474.095 398.484ZM477.779 401.255C474.175 404.94 472.318 409.692 474.482 409.692C476.191 409.692 483.37 401.254 483.37 399.244C483.37 396.194 482.382 396.549 477.779 401.255ZM303.157 425.384C299.306 429.273 296.47 432.773 296.857 433.16C297.565 433.871 311.655 420.448 311.655 419.061C311.655 417.304 309.76 418.714 303.157 425.384ZM370.762 332.107C370.762 336.311 370.932 336.476 373.721 334.978C375.825 333.848 376.169 331.14 374.43 329.395C372.139 327.097 370.762 328.115 370.762 332.107ZM188.976 364.82C188.088 366.262 189.118 367.046 190.965 366.335C191.818 366.006 192.246 365.298 191.915 364.762C191.133 363.492 189.777 363.518 188.976 364.82ZM207.395 364.688C206.681 365.848 208.496 366.995 209.782 366.198C210.862 365.529 210.152 363.787 208.801 363.787C208.333 363.787 207.7 364.192 207.395 364.688ZM225.852 364.433C224.742 365.546 225.149 366.692 226.656 366.692C227.453 366.692 228.104 366.038 228.104 365.239C228.104 363.727 226.962 363.318 225.852 364.433ZM243.99 364.82C243.102 366.262 244.131 367.046 245.979 366.335C246.832 366.006 247.259 365.298 246.928 364.762C246.147 363.492 244.791 363.518 243.99 364.82ZM262.327 364.82C261.44 366.262 262.469 367.046 264.317 366.335C265.17 366.006 265.597 365.298 265.266 364.762C264.485 363.492 263.129 363.518 262.327 364.82ZM296.318 423.527C294.576 425.332 293.551 427.057 294.042 427.361C294.533 427.666 296.612 426.19 298.664 424.081C301.005 421.677 301.853 420.247 300.941 420.247C300.141 420.247 298.061 421.723 296.318 423.527ZM459.885 401.622C459.53 401.976 459.241 402.901 459.241 403.677C459.241 404.821 459.514 404.86 460.689 403.881C461.485 403.218 462.136 402.293 462.136 401.826C462.136 400.823 460.801 400.702 459.885 401.622ZM461.834 403.693C460.235 405.367 459.241 407.488 459.241 409.224V412.041L464.023 407.314C466.653 404.714 468.583 402.224 468.309 401.782C467.316 400.169 464.368 401.039 461.834 403.693ZM204.37 368.025C203.553 370.163 204.64 371.254 206.115 369.775C206.986 368.901 206.989 368.36 206.131 367.499C205.272 366.637 204.853 366.762 204.37 368.025ZM259.384 368.025C258.566 370.163 259.654 371.254 261.129 369.775C261.999 368.901 262.002 368.36 261.144 367.499C260.285 366.637 259.866 366.762 259.384 368.025ZM185.197 368.562C184.891 369.058 185.083 369.737 185.622 370.072C186.774 370.786 188.533 369.879 188.533 368.572C188.533 367.393 185.92 367.385 185.197 368.562ZM221.872 368.562C221.566 369.058 221.758 369.737 222.298 370.072C223.449 370.786 225.209 369.879 225.209 368.572C225.209 367.393 222.596 367.385 221.872 368.562ZM240.21 368.562C239.904 369.058 240.096 369.737 240.636 370.072C241.787 370.786 243.547 369.879 243.547 368.572C243.547 367.393 240.934 367.385 240.21 368.562ZM83.5948 416.025C81.871 420.188 81.5361 422.947 81.5361 432.973V444.95H87.327H93.1179V430.018V415.086L89.8673 413.07C88.0798 411.962 86.4004 411.054 86.135 411.054C85.8706 411.054 84.7278 413.291 83.5948 416.025ZM273.598 370.622C271.814 371.713 270.615 372.871 270.937 373.192C271.257 373.514 271.021 374.381 270.411 375.118C269.589 376.111 269.582 376.741 270.387 377.548C271.191 378.355 271.627 378.234 272.067 377.083C272.394 376.229 273.247 375.756 273.963 376.032C274.738 376.33 275.879 375.344 276.779 373.598C279.537 368.246 278.724 367.486 273.598 370.622ZM477.779 408.034C474.175 411.719 472.318 416.471 474.482 416.471C476.191 416.471 483.37 408.033 483.37 406.024C483.37 402.973 482.382 403.328 477.779 408.034ZM312.81 433.13C308.426 437.551 305.156 441.487 305.543 441.876C306.251 442.587 322.272 427.229 322.272 425.837C322.272 424.054 320.306 425.57 312.81 433.13ZM463.302 409.003C460.4 411.97 459.241 413.963 459.241 415.987V418.82L464.067 414.05C467.066 411.086 468.892 408.442 468.892 407.066C468.892 403.939 467.929 404.273 463.302 409.003ZM182.26 371.534C181.874 372.16 181.993 373.107 182.524 373.64C183.168 374.286 183.723 374.229 184.19 373.471C184.575 372.846 184.456 371.898 183.925 371.366C183.282 370.72 182.727 370.776 182.26 371.534ZM200.759 371.212C199.648 372.326 200.055 373.471 201.563 373.471C202.359 373.471 203.01 372.817 203.01 372.019C203.01 370.506 201.869 370.097 200.759 371.212ZM218.935 371.534C218.55 372.16 218.669 373.107 219.2 373.64C219.843 374.286 220.398 374.229 220.866 373.471C221.251 372.846 221.132 371.898 220.601 371.366C219.957 370.72 219.402 370.776 218.935 371.534ZM237.273 371.534C236.888 372.16 237.007 373.107 237.538 373.64C238.181 374.286 238.736 374.229 239.203 373.471C239.589 372.846 239.47 371.898 238.939 371.366C238.295 370.72 237.74 370.776 237.273 371.534ZM255.611 371.534C254.823 372.813 255.978 374.626 257.125 373.914C258.298 373.187 258.29 370.566 257.116 370.566C256.616 370.566 255.939 371.002 255.611 371.534ZM445.97 406.459C444.646 406.996 444.278 411.629 445.561 411.629C446.498 411.629 450.555 407.448 450.555 406.483C450.555 405.733 447.798 405.72 445.97 406.459ZM448.338 410.459C445.151 413.733 443.498 418.408 445.528 418.408C446.995 418.408 454.415 410.089 454.415 408.445C454.415 405.776 452.172 406.519 448.338 410.459ZM71.8778 419.031C71.2987 421.302 70.4118 424.424 69.907 425.967C69.4022 427.512 68.9891 432.437 68.9891 436.911V445.047L74.5387 444.756L80.0884 444.466L80.3615 432.941C80.6192 422.081 80.5072 421.279 78.4312 419.052C74.1517 414.46 73.0447 414.456 71.8778 419.031ZM178.359 375.473C177.471 376.915 178.501 377.698 180.349 376.988C181.202 376.659 181.629 375.951 181.298 375.415C180.517 374.145 179.161 374.171 178.359 375.473ZM196.778 375.341C196.472 375.837 196.664 376.516 197.204 376.851C198.355 377.565 200.115 376.658 200.115 375.351C200.115 374.172 197.502 374.165 196.778 375.341ZM215.035 375.473C214.147 376.915 215.177 377.698 217.024 376.988C217.877 376.659 218.305 375.951 217.974 375.415C217.192 374.145 215.836 374.171 215.035 375.473ZM233.373 375.473C232.485 376.915 233.515 377.698 235.362 376.988C236.215 376.659 236.643 375.951 236.312 375.415C235.53 374.145 234.174 374.171 233.373 375.473ZM251.792 375.341C251.078 376.5 252.893 377.648 254.179 376.851C255.259 376.182 254.549 374.44 253.198 374.44C252.73 374.44 252.097 374.845 251.792 375.341ZM478.303 414.276C475.618 417.018 473.718 419.848 473.718 421.104C473.718 424.168 474.704 423.804 479.384 419.02C482.555 415.778 483.448 414.182 483.205 412.191C482.888 409.599 482.874 409.606 478.303 414.276ZM432.83 412.668C431.048 414.073 430.286 415.584 430.286 417.712V420.748L434.63 416.471C437.018 414.119 438.973 411.849 438.973 411.428C438.973 409.949 435.348 410.68 432.83 412.668ZM449.348 416.213C446.663 418.955 444.764 421.785 444.764 423.041C444.764 426.104 445.75 425.741 450.43 420.957C453.601 417.715 454.493 416.119 454.25 414.128C453.933 411.536 453.919 411.543 449.348 416.213ZM463.302 415.782C459.697 419.467 457.84 424.219 460.005 424.219C461.714 424.219 468.892 415.781 468.892 413.771C468.892 410.721 467.905 411.076 463.302 415.782ZM193.841 378.313C193.456 378.939 193.575 379.886 194.106 380.419C194.75 381.065 195.305 381.009 195.772 380.25C196.157 379.625 196.038 378.678 195.507 378.145C194.863 377.499 194.309 377.555 193.841 378.313ZM248.767 378.678C247.95 380.816 249.037 381.907 250.512 380.428C251.383 379.554 251.386 379.013 250.528 378.152C249.669 377.29 249.25 377.415 248.767 378.678ZM175.021 379.846C175.021 381.557 177.099 381.259 177.695 379.464C177.906 378.831 177.389 378.313 176.549 378.313C175.709 378.313 175.021 379.004 175.021 379.846ZM211.256 379.215C210.95 379.711 211.142 380.39 211.681 380.725C212.833 381.439 214.592 380.532 214.592 379.225C214.592 378.046 211.979 378.038 211.256 379.215ZM230.034 379.846C230.034 380.69 230.55 381.208 231.181 380.997C232.97 380.398 233.267 378.313 231.562 378.313C230.722 378.313 230.034 379.004 230.034 379.846ZM266.269 379.215C265.555 380.374 267.37 381.522 268.656 380.725C269.736 380.056 269.027 378.313 267.675 378.313C267.207 378.313 266.574 378.719 266.269 379.215ZM315.699 438.946C312.917 441.773 310.953 444.398 311.334 444.781C312.043 445.493 322.272 435.939 322.272 434.565C322.272 432.881 320.517 434.051 315.699 438.946ZM434.348 417.719C430.743 421.404 428.886 426.156 431.051 426.156C432.759 426.156 439.938 417.718 439.938 415.708C439.938 412.658 438.951 413.013 434.348 417.719ZM171.643 382.187C170.855 383.466 172.01 385.279 173.157 384.567C174.33 383.84 174.322 381.219 173.148 381.219C172.648 381.219 171.971 381.655 171.643 382.187ZM189.941 382.252C189.053 383.694 190.083 384.478 191.93 383.767C192.784 383.438 193.211 382.731 192.88 382.194C192.098 380.924 190.742 380.951 189.941 382.252ZM208.319 382.187C207.934 382.813 208.052 383.76 208.583 384.293C209.227 384.939 209.782 384.882 210.249 384.124C210.634 383.498 210.515 382.551 209.984 382.019C209.341 381.373 208.786 381.429 208.319 382.187ZM226.656 382.187C225.869 383.466 227.023 385.279 228.171 384.567C229.343 383.84 229.336 381.219 228.161 381.219C227.661 381.219 226.985 381.655 226.656 382.187ZM245.155 381.865C244.045 382.978 244.452 384.124 245.959 384.124C246.756 384.124 247.407 383.47 247.407 382.671C247.407 381.159 246.265 380.75 245.155 381.865ZM263.244 382.551C262.427 384.69 263.515 385.781 264.989 384.301C265.86 383.428 265.863 382.886 265.005 382.025C264.146 381.164 263.727 381.288 263.244 382.551ZM478.303 421.055C475.618 423.798 473.718 426.627 473.718 427.883C473.718 430.947 474.704 430.583 479.384 425.799C482.555 422.557 483.448 420.961 483.205 418.97C482.888 416.378 482.874 416.385 478.303 421.055ZM58.5617 429.743C55.7656 432.637 55.4771 433.499 55.4771 438.944V444.95H61.268H67.0588V436.752C67.0588 429.639 66.8118 428.421 65.1922 427.552C62.4445 426.077 61.9436 426.241 58.5617 429.743ZM44.4415 430.524C42.2217 433.171 41.9148 434.315 42.1619 439.024L42.4475 444.466L48.0406 444.757L53.6336 445.049L53.3489 438.178C53.0787 431.658 52.9088 431.207 50.0355 429.385L47.0069 427.465L44.4415 430.524ZM167.824 385.994C167.11 387.153 168.925 388.301 170.211 387.504C171.291 386.835 170.581 385.093 169.23 385.093C168.762 385.093 168.129 385.498 167.824 385.994ZM186.162 385.994C185.856 386.49 186.048 387.169 186.587 387.504C187.739 388.218 189.498 387.311 189.498 386.004C189.498 384.825 186.886 384.818 186.162 385.994ZM204.5 385.994C203.785 387.153 205.601 388.301 206.886 387.504C207.966 386.835 207.257 385.093 205.906 385.093C205.438 385.093 204.805 385.498 204.5 385.994ZM222.837 385.994C222.123 387.153 223.939 388.301 225.224 387.504C226.304 386.835 225.595 385.093 224.244 385.093C223.776 385.093 223.142 385.498 222.837 385.994ZM241.175 385.994C240.461 387.153 242.276 388.301 243.562 387.504C244.642 386.835 243.933 385.093 242.581 385.093C242.113 385.093 241.48 385.498 241.175 385.994ZM259.633 385.739C258.522 386.852 258.929 387.998 260.437 387.998C261.233 387.998 261.884 387.344 261.884 386.545C261.884 385.033 260.743 384.624 259.633 385.739ZM319.865 444.453C318.901 445.521 318.561 446.395 319.109 446.395C320.323 446.395 322.73 443.628 322.082 442.977C321.826 442.72 320.828 443.383 319.865 444.453ZM164.799 389.331C163.982 391.469 165.069 392.56 166.544 391.08C167.415 390.207 167.418 389.666 166.56 388.805C165.701 387.943 165.282 388.068 164.799 389.331ZM183.225 388.966C182.84 389.592 182.958 390.539 183.489 391.072C184.133 391.718 184.688 391.662 185.155 390.903C185.54 390.278 185.421 389.331 184.891 388.798C184.247 388.152 183.692 388.208 183.225 388.966ZM201.475 389.331C200.657 391.469 201.745 392.56 203.22 391.08C204.09 390.207 204.093 389.666 203.235 388.805C202.376 387.943 201.957 388.068 201.475 389.331ZM219.813 389.331C218.995 391.469 220.083 392.56 221.558 391.08C222.428 390.207 222.431 389.666 221.573 388.805C220.714 387.943 220.295 388.068 219.813 389.331ZM238.238 388.966C237.853 389.592 237.972 390.539 238.503 391.072C239.146 391.718 239.701 391.662 240.169 390.903C240.554 390.278 240.435 389.331 239.904 388.798C239.26 388.152 238.705 388.208 238.238 388.966ZM255.652 389.868C255.347 390.364 255.539 391.043 256.078 391.378C257.23 392.092 258.989 391.185 258.989 389.878C258.989 388.699 256.376 388.691 255.652 389.868ZM35.2089 438.739V444.95H38.1044C40.9564 444.95 40.9998 444.872 40.9998 439.836C40.9998 435.043 40.8184 434.652 38.1044 433.625L35.2089 432.529V438.739ZM161.188 392.518C160.077 393.631 160.484 394.777 161.991 394.777C162.788 394.777 163.439 394.123 163.439 393.324C163.439 391.812 162.297 391.403 161.188 392.518ZM179.325 392.905C178.437 394.347 179.466 395.131 181.314 394.42C182.167 394.091 182.594 393.383 182.263 392.847C181.482 391.577 180.126 391.603 179.325 392.905ZM197.702 392.84C196.914 394.118 198.069 395.931 199.216 395.22C200.389 394.493 200.381 391.872 199.207 391.872C198.707 391.872 198.03 392.307 197.702 392.84ZM216.04 392.84C215.252 394.118 216.407 395.931 217.554 395.22C218.727 394.493 218.719 391.872 217.544 391.872C217.045 391.872 216.368 392.307 216.04 392.84ZM234.338 392.905C233.45 394.347 234.48 395.131 236.327 394.42C237.18 394.091 237.608 393.383 237.277 392.847C236.495 391.577 235.139 391.603 234.338 392.905ZM252.715 392.84C252.33 393.466 252.449 394.413 252.98 394.946C253.624 395.592 254.179 395.535 254.646 394.777C255.031 394.151 254.912 393.204 254.381 392.672C253.738 392.026 253.183 392.082 252.715 392.84ZM157.207 396.647C156.493 397.806 158.308 398.954 159.594 398.157C160.674 397.488 159.965 395.745 158.613 395.745C158.145 395.745 157.512 396.151 157.207 396.647ZM175.986 397.279C175.986 398.122 176.502 398.64 177.133 398.429C178.922 397.831 179.218 395.745 177.514 395.745C176.674 395.745 175.986 396.436 175.986 397.279ZM193.883 396.647C193.169 397.806 194.984 398.954 196.27 398.157C197.35 397.488 196.64 395.745 195.289 395.745C194.821 395.745 194.188 396.151 193.883 396.647ZM212.221 396.647C211.507 397.806 213.322 398.954 214.608 398.157C215.688 397.488 214.978 395.745 213.627 395.745C213.159 395.745 212.526 396.151 212.221 396.647ZM230.559 396.647C230.253 397.143 230.445 397.822 230.984 398.157C232.136 398.871 233.895 397.964 233.895 396.657C233.895 395.478 231.282 395.47 230.559 396.647ZM248.815 396.779C247.927 398.221 248.957 399.004 250.804 398.294C251.658 397.965 252.085 397.257 251.754 396.721C250.972 395.451 249.616 395.477 248.815 396.779ZM154.27 399.619C153.885 400.245 154.004 401.192 154.535 401.725C155.178 402.371 155.733 402.314 156.201 401.556C156.586 400.931 156.467 399.983 155.936 399.451C155.292 398.805 154.737 398.861 154.27 399.619ZM172.608 399.619C171.821 400.898 172.975 402.711 174.122 401.999C175.295 401.272 175.287 398.651 174.113 398.651C173.613 398.651 172.936 399.087 172.608 399.619ZM190.858 399.983C190.041 402.122 191.128 403.213 192.603 401.733C193.474 400.86 193.477 400.319 192.619 399.458C191.76 398.596 191.341 398.721 190.858 399.983ZM209.196 399.983C208.378 402.122 209.466 403.213 210.941 401.733C211.811 400.86 211.814 400.319 210.956 399.458C210.097 398.596 209.679 398.721 209.196 399.983ZM227.622 399.619C227.237 400.245 227.355 401.192 227.886 401.725C228.53 402.371 229.085 402.314 229.552 401.556C229.937 400.931 229.818 399.983 229.287 399.451C228.644 398.805 228.089 398.861 227.622 399.619ZM245.036 400.521C244.73 401.017 244.922 401.696 245.461 402.031C246.613 402.744 248.372 401.838 248.372 400.531C248.372 399.352 245.76 399.344 245.036 400.521ZM150.37 403.558C149.482 405 150.512 405.783 152.359 405.073C153.212 404.744 153.64 404.036 153.309 403.5C152.527 402.23 151.171 402.256 150.37 403.558ZM168.789 403.426C168.075 404.585 169.89 405.733 171.176 404.936C172.256 404.267 171.546 402.525 170.195 402.525C169.727 402.525 169.094 402.93 168.789 403.426ZM187.247 403.171C186.136 404.284 186.543 405.43 188.05 405.43C188.847 405.43 189.498 404.776 189.498 403.977C189.498 402.465 188.356 402.056 187.247 403.171ZM205.584 403.171C204.473 404.284 204.881 405.43 206.388 405.43C207.185 405.43 207.836 404.776 207.836 403.977C207.836 402.465 206.694 402.056 205.584 403.171ZM223.721 403.558C222.834 405 223.863 405.783 225.711 405.073C226.564 404.744 226.991 404.036 226.66 403.5C225.879 402.23 224.523 402.256 223.721 403.558ZM242.099 403.493C241.714 404.119 241.832 405.066 242.363 405.598C243.007 406.244 243.562 406.188 244.029 405.43C244.414 404.804 244.296 403.857 243.765 403.325C243.121 402.679 242.566 402.735 242.099 403.493ZM165.764 406.763C164.947 408.901 166.034 409.992 167.509 408.513C168.38 407.639 168.383 407.098 167.525 406.237C166.666 405.375 166.247 405.5 165.764 406.763ZM146.591 407.3C146.285 407.796 146.477 408.475 147.016 408.81C148.168 409.524 149.927 408.617 149.927 407.31C149.927 406.131 147.314 406.123 146.591 407.3ZM183.266 407.3C182.96 407.796 183.152 408.475 183.692 408.81C184.843 409.524 186.603 408.617 186.603 407.31C186.603 406.131 183.99 406.123 183.266 407.3ZM201.604 407.3C201.298 407.796 201.49 408.475 202.03 408.81C203.181 409.524 204.941 408.617 204.941 407.31C204.941 406.131 202.328 406.123 201.604 407.3ZM220.383 407.931C220.383 408.775 220.898 409.293 221.53 409.082C223.319 408.484 223.615 406.398 221.911 406.398C221.07 406.398 220.383 407.089 220.383 407.931ZM238.28 407.3C237.566 408.459 239.381 409.607 240.667 408.81C241.747 408.141 241.037 406.398 239.686 406.398C239.218 406.398 238.585 406.804 238.28 407.3ZM328.823 475.886C324.728 479.994 326.12 485.882 331.689 488.007C337.409 490.19 343.256 483.982 340.886 478.241C338.732 473.021 332.827 471.867 328.823 475.886ZM331.473 478.544C329.735 480.287 330.076 482.997 332.175 484.123C335.781 486.06 338.963 482.867 337.033 479.249C335.91 477.143 333.21 476.801 331.473 478.544ZM448.87 452.731C447.534 455.325 447.531 455.637 448.845 455.637C450.034 455.637 450.318 457.035 450.318 462.9C450.318 467.096 450.725 470.163 451.283 470.163C451.84 470.163 452.248 467.123 452.248 462.98C452.248 458.697 452.669 455.657 453.291 455.45C454.479 455.052 452.492 449.826 451.153 449.826C450.721 449.826 449.694 451.133 448.87 452.731ZM153.259 458.695C151.922 461.288 151.919 461.6 153.234 461.6C154.524 461.6 154.707 465.557 154.707 493.559V525.518H193.715C221.899 525.518 232.824 525.822 233.088 526.614C233.339 527.37 234.412 527.212 236.546 526.104C238.247 525.222 239.64 524.304 239.64 524.065C239.64 523.826 238.247 522.908 236.546 522.025C234.412 520.918 233.339 520.76 233.088 521.516C232.86 522.201 230.036 522.612 225.565 522.612H218.407V503.412V484.212L220.898 481.864C222.267 480.573 223.643 479.734 223.953 480.001C224.672 480.615 226.507 475.215 225.815 474.521C224.79 473.494 219.326 475.331 219.59 476.615C219.956 478.401 206.449 493.178 203.821 493.868C202.207 494.292 200.916 493.584 198.523 490.962C195.045 487.153 192.893 487.152 191.449 490.961C190.163 494.357 180.185 505.822 178.022 506.39C175.746 506.986 174.65 506.332 173.156 503.485C171.653 500.624 168.413 500.668 167.315 503.566C166.845 504.808 164.249 507.682 161.548 509.951L156.637 514.076V487.838C156.637 464.964 156.826 461.6 158.11 461.6C159.424 461.6 159.422 461.288 158.085 458.695C157.262 457.097 156.176 455.789 155.672 455.789C155.168 455.789 154.082 457.097 153.259 458.695ZM306.49 484.168C299.532 486.981 302.228 498.688 309.834 498.688C316.313 498.688 319.406 489.262 314.259 485.2C311.532 483.047 309.824 482.82 306.49 484.168ZM354.926 484.311C349.999 487.015 349.105 492.45 352.952 496.31C356.756 500.128 362.217 499.395 364.613 494.744C366.642 490.807 366.384 489.215 363.204 486.023C360.216 483.026 358.075 482.582 354.926 484.311ZM307.344 488.229C304.92 490.661 306.724 494.814 310.206 494.814C311.142 494.814 312.358 493.971 312.908 492.941C314.2 490.518 314.185 490.389 312.391 488.588C310.577 486.768 308.917 486.65 307.344 488.229ZM355.447 488.473C352.883 491.573 356.649 496.334 359.993 494.221C362.295 492.767 362.578 490.524 360.697 488.636C358.758 486.692 356.966 486.635 355.447 488.473ZM422.329 462.82C422.329 465.128 423.439 467.258 424.64 467.258C425.267 467.258 427.918 469.437 430.533 472.1C433.147 474.763 435.628 476.942 436.045 476.942C438 476.942 436.386 474.033 432.059 469.757C429.449 467.177 427.518 464.527 427.77 463.868C428.024 463.207 427.232 462.402 426.003 462.072C422.772 461.203 422.329 461.294 422.329 462.82ZM476.377 462.334C475.01 462.728 474.067 463.648 474.202 464.457C474.332 465.243 472.269 468.031 469.617 470.651C466.965 473.272 464.795 475.76 464.795 476.179C464.795 478.145 467.699 476.516 471.991 472.144C474.582 469.505 477.064 467.57 477.506 467.844C478.262 468.313 480.238 464.339 480.238 462.353C480.238 461.342 479.836 461.34 476.377 462.334ZM51.9469 485.341C49.8998 487.529 49.8487 488.216 49.8487 513.742C49.8487 539.834 49.8544 539.906 52.082 542.007C53.7199 543.55 55.5237 544.112 58.8381 544.112C63.6532 544.112 63.9196 544.447 62.3686 548.542C61.8233 549.982 61.5849 551.37 61.8406 551.626C62.0954 551.882 65.1376 550.296 68.5996 548.101L74.8952 544.112H92.8181C110.56 544.112 110.765 544.088 113.109 541.735L115.479 539.358V513.606V487.854L113.109 485.478L110.741 483.1H82.3935H54.0461L51.9469 485.341ZM331.762 494.814C330.426 497.407 330.423 497.719 331.737 497.719C332.73 497.719 333.21 498.666 333.21 500.625C333.21 502.223 333.644 503.53 334.175 503.53C334.706 503.53 335.14 502.259 335.14 500.705C335.14 499.152 335.609 497.724 336.183 497.532C337.371 497.134 335.384 491.909 334.045 491.909C333.613 491.909 332.586 493.216 331.762 494.814ZM317.545 501.181C317.817 502.605 318.961 504.034 320.213 504.511C321.419 504.971 322.691 505.81 323.039 506.375C323.388 506.941 324.081 507.404 324.581 507.404C325.976 507.404 325.658 504.876 324.098 503.577C323.334 502.941 322.924 501.855 323.188 501.165C323.466 500.438 322.733 499.659 321.442 499.312C317.627 498.288 317.047 498.566 317.545 501.181ZM346.41 499.369C345.442 499.62 344.87 500.4 345.138 501.103C345.407 501.805 344.798 503.133 343.784 504.053C341.027 506.557 342.556 507.679 346.065 505.724C349.676 503.713 350.548 502.679 350.568 500.383C350.583 498.696 349.768 498.498 346.41 499.369ZM76.0911 497.595C71.4554 500.513 69.5483 505.616 71.0115 511.185C71.6417 513.582 72.8926 516.633 73.7911 517.964C74.6897 519.296 75.6606 521.257 75.9473 522.322C76.3874 523.951 77.422 524.305 82.462 524.548C87.8205 524.805 88.4546 524.64 88.4546 522.984C88.4546 521.965 89.276 520.083 90.2797 518.803C92.8943 515.467 94.5968 509.008 93.8759 505.154C92.4417 497.482 82.7873 493.38 76.0911 497.595ZM444.303 477.968C442.323 479.017 439.973 481.286 439.082 483.01C436.207 488.57 437.614 497.799 442.142 503.091C442.827 503.889 443.534 505.633 443.716 506.964C444.033 509.302 444.294 509.385 451.283 509.385C458.197 509.385 458.536 509.281 458.85 507.053C459.03 505.771 460.333 502.97 461.745 500.829C463.888 497.582 464.313 495.855 464.313 490.408C464.313 484.788 463.977 483.512 461.9 481.254C457.002 475.927 450.461 474.705 444.303 477.968ZM296.983 508.326C292.066 510.326 290.785 517.13 294.604 520.962C300.187 526.564 309.473 519.445 306.552 511.805C305.975 510.298 301.315 507.338 299.719 507.465C299.295 507.499 298.063 507.886 296.983 508.326ZM330.797 508.522C325.87 511.226 324.976 516.661 328.823 520.521C333.183 524.897 339.947 522.816 341.496 516.621C342.254 513.586 339.851 509.618 336.475 508.329C333.494 507.192 333.203 507.201 330.797 508.522ZM366.025 508.09C362.787 509.285 361.199 511.646 361.199 515.264C361.199 522.269 368.435 525.411 373.307 520.521C377.112 516.705 376.381 511.225 371.746 508.821C368.847 507.316 368.311 507.248 366.025 508.09ZM81.2035 504.446C80.8299 505.626 79.4305 506.653 77.727 506.995C74.9223 507.557 74.9088 507.589 76.896 508.986C78.4895 510.106 78.7819 511.016 78.281 513.301L77.6479 516.197L80.1804 514.532C82.5923 512.947 82.8114 512.953 84.7658 514.689C86.8187 516.511 86.8187 516.511 86.2174 513.383C85.7204 510.8 85.9887 510.051 87.7588 509.085L89.9024 507.915L87.4895 507.339C86.1624 507.023 84.6481 505.798 84.124 504.616C82.9369 501.942 82.0123 501.888 81.2035 504.446ZM297.085 512.799C295.235 514.656 295.207 515.253 296.866 517.53C298.791 520.17 303.29 518.854 303.29 515.651C303.29 514.301 302.488 512.851 301.424 512.28C299.009 510.983 298.881 510.999 297.085 512.799ZM332.004 512.323C328.867 514.157 330.561 519.025 334.334 519.025C335.77 519.025 338.036 516.438 338.036 514.8C338.036 514.066 335.088 511.274 334.348 511.307C333.987 511.323 332.932 511.78 332.004 512.323ZM365.611 512.799C363.761 514.656 363.733 515.253 365.392 517.53C367.316 520.17 371.816 518.854 371.816 515.651C371.816 514.301 371.014 512.851 369.949 512.28C367.535 510.983 367.406 510.999 365.611 512.799ZM447.712 484.036C447.288 484.742 446.216 485.587 445.331 485.912C444.147 486.348 443.723 487.685 443.723 490.985C443.723 494.28 444.149 495.626 445.331 496.07C446.216 496.403 447.379 497.262 447.916 497.979C448.624 498.924 449.883 499.073 452.494 498.523C455.245 497.943 456.523 496.966 457.899 494.388C459.668 491.074 459.667 490.945 457.768 487.29C456.337 484.536 455.368 483.69 454.043 484.038C453.056 484.297 452.007 484.113 451.71 483.63C450.91 482.332 448.596 482.566 447.712 484.036ZM312.233 513.962L310.078 515.636L312.887 517.245C315.249 518.597 315.779 518.636 316.22 517.487C316.506 516.735 317.841 516.12 319.185 516.12C320.529 516.12 321.628 515.684 321.628 515.151C321.628 514.619 320.325 514.183 318.733 514.183C317.14 514.183 315.837 513.747 315.837 513.214C315.837 511.816 314.694 512.053 312.233 513.962ZM351.548 513.214C351.548 513.747 350.245 514.183 348.652 514.183C347.06 514.183 345.757 514.619 345.757 515.151C345.757 515.684 347.06 516.12 348.652 516.12C350.604 516.12 351.548 516.601 351.548 517.598C351.548 518.917 351.859 518.914 354.443 517.572C357.982 515.736 358.075 514.831 354.881 513.37C351.882 511.999 351.548 511.984 351.548 513.214ZM213.774 488.91C212.965 489.722 212.616 494.98 212.616 506.342C212.616 520.159 212.834 522.612 214.064 522.612C215.297 522.612 215.511 520.029 215.511 505.18C215.511 495.593 215.381 487.748 215.222 487.748C215.062 487.748 214.411 488.271 213.774 488.91ZM193.889 490.502C193.555 491.045 193.752 491.78 194.326 492.136C195.811 493.056 196.768 491.796 195.529 490.553C194.836 489.857 194.296 489.841 193.889 490.502ZM412.438 488.494C409.131 490.392 409.127 490.859 412.41 492.36C414.237 493.195 415.144 493.242 415.386 492.515C415.596 491.884 418.76 491.469 423.374 491.469C427.824 491.469 431.015 491.064 431.015 490.501C431.015 489.942 427.975 489.532 423.825 489.532C418.896 489.532 416.391 489.129 415.862 488.252C415.233 487.208 414.601 487.253 412.438 488.494ZM486.029 488.523C486.029 489.033 482.663 489.578 478.549 489.734C474.394 489.891 471.069 490.446 471.069 490.985C471.069 491.523 474.394 492.079 478.549 492.236C482.663 492.392 486.029 492.948 486.029 493.472C486.029 493.996 487.418 493.703 489.117 492.822L492.206 491.219L489.975 489.407C487.53 487.421 486.029 487.084 486.029 488.523ZM208.328 494.743C207.151 496.428 206.825 499.683 206.825 509.754C206.825 521.966 206.921 522.612 208.755 522.612C210.602 522.612 210.685 521.966 210.685 507.601C210.685 499.345 210.493 492.59 210.258 492.59C210.022 492.59 209.154 493.559 208.328 494.743ZM192.015 496.299C190.705 497.75 190.417 500.281 190.417 510.341C190.417 521.966 190.519 522.612 192.348 522.612C194.189 522.612 194.278 521.966 194.278 508.57C194.278 500.846 194.128 494.527 193.945 494.527C193.762 494.527 192.893 495.324 192.015 496.299ZM196.208 508.57C196.208 521.966 196.297 522.612 198.139 522.612C199.972 522.612 200.069 521.966 200.069 509.732C200.069 497.441 199.477 494.527 196.98 494.527C196.556 494.527 196.208 500.846 196.208 508.57ZM202.964 497.433C202.964 497.965 203.399 498.401 203.929 498.401C204.46 498.401 204.895 497.965 204.895 497.433C204.895 496.9 204.46 496.464 203.929 496.464C203.399 496.464 202.964 496.9 202.964 497.433ZM322.583 525.333C321.916 526.138 320.708 526.684 319.9 526.543C318.512 526.303 316.418 530.907 317.446 531.937C318.259 532.753 323.076 531.009 323.076 529.899C323.076 529.298 323.619 528.262 324.282 527.596C325.669 526.204 325.894 523.867 324.641 523.867C324.176 523.867 323.25 524.527 322.583 525.333ZM341.896 524.779C341.896 525.28 342.358 525.976 342.921 526.325C343.485 526.675 344.321 527.951 344.779 529.161C345.644 531.442 350.593 533.218 350.569 531.238C350.534 528.382 349.252 525.737 348.114 526.176C347.426 526.441 346.344 526.03 345.71 525.263C344.415 523.698 341.896 523.378 341.896 524.779ZM201.999 511.475C201.999 520.73 202.244 522.612 203.447 522.612C204.649 522.612 204.895 520.73 204.895 511.475C204.895 502.221 204.649 500.338 203.447 500.338C202.244 500.338 201.999 502.221 201.999 511.475ZM186.75 502.469C186.007 503.214 185.592 507.031 185.592 513.121C185.592 520.912 185.851 522.612 187.039 522.612C188.238 522.612 188.487 520.783 188.487 511.959C188.487 506.1 188.357 501.306 188.198 501.306C188.038 501.306 187.387 501.829 186.75 502.469ZM333.21 530.114C333.21 531.419 332.623 532.835 331.905 533.261C330.834 533.898 330.896 534.519 332.253 536.737L333.904 539.437L335.578 536.876C336.788 535.022 336.959 534.021 336.195 533.255C335.615 532.672 335.14 531.194 335.14 529.969C335.14 528.743 334.706 527.741 334.175 527.741C333.644 527.741 333.21 528.809 333.21 530.114ZM169.184 504.696C169.184 505.495 169.618 506.149 170.149 506.149C170.68 506.149 171.114 505.495 171.114 504.696C171.114 503.897 170.68 503.243 170.149 503.243C169.618 503.243 169.184 503.897 169.184 504.696ZM182.113 508.812C181.826 509.744 181.188 511.263 180.695 512.188C180.203 513.113 179.801 515.837 179.801 518.241C179.801 521.966 180.085 522.612 181.731 522.612C183.5 522.612 183.661 521.966 183.661 514.865C183.661 507.305 183.17 505.385 182.113 508.812ZM304.256 534.52C301.568 537.217 301.715 542.323 304.559 545.005C307.402 547.684 312.289 547.765 314.872 545.173C317.395 542.642 317.49 536.413 315.037 534.186C312.561 531.936 306.647 532.12 304.256 534.52ZM352.583 535.135C351.483 536.539 350.583 538.737 350.583 540.021C350.583 543.354 354.673 547.11 358.304 547.11C361.935 547.11 366.025 543.354 366.025 540.021C366.025 535.944 362.536 532.583 358.304 532.583C355.435 532.583 354.126 533.166 352.583 535.135ZM430.533 508.901C427.918 511.564 425.053 513.743 424.166 513.743C423.174 513.743 422.358 514.768 422.044 516.407C421.401 519.763 421.542 519.881 425.223 519.07C427.115 518.653 428.078 517.938 427.784 517.169C427.525 516.49 429.449 513.825 432.059 511.244C436.386 506.968 438 504.059 436.045 504.059C435.628 504.059 433.147 506.238 430.533 508.901ZM169.184 515.349C169.184 521.16 169.474 522.612 170.632 522.612C171.79 522.612 172.08 521.16 172.08 515.349C172.08 509.538 171.79 508.086 170.632 508.086C169.474 508.086 169.184 509.538 169.184 515.349ZM177.439 508.972C177.128 509.476 177.286 510.143 177.788 510.455C178.291 510.767 178.956 510.609 179.267 510.105C179.578 509.6 179.42 508.933 178.918 508.621C178.415 508.309 177.75 508.467 177.439 508.972ZM464.795 505.791C464.795 506.21 466.975 508.708 469.638 511.34C472.303 513.973 474.285 516.644 474.043 517.276C473.566 518.524 475.493 519.554 478.303 519.554C479.77 519.554 479.943 519.101 479.321 516.891C478.909 515.427 478.147 514.314 477.629 514.418C477.11 514.523 474.569 512.452 471.983 509.818C467.699 505.453 464.795 503.826 464.795 505.791ZM77.3516 527.655C77.0205 528.192 77.3834 528.875 78.1574 529.173C80.5018 530.076 86.8312 529.183 87.254 527.891C87.7443 526.393 78.2675 526.167 77.3516 527.655ZM164.991 510.825C163.938 511.992 163.393 514.303 163.393 517.604C163.393 521.966 163.642 522.612 165.323 522.612C167.07 522.612 167.254 521.966 167.254 515.833C167.254 512.105 167.104 509.054 166.921 509.054C166.737 509.054 165.869 509.851 164.991 510.825ZM307.726 536.754C305.07 538.702 306.037 542.679 309.258 543.052C312.888 543.473 314.788 540.008 312.387 537.345C310.404 535.146 309.989 535.094 307.726 536.754ZM355.97 536.763C352.531 539.287 356.386 544.922 359.993 542.644C362.295 541.189 362.578 538.946 360.697 537.059C358.801 535.158 358.21 535.121 355.97 536.763ZM174.975 516.683C174.975 521.308 175.293 522.612 176.423 522.612C177.511 522.612 177.87 521.441 177.87 517.888C177.87 514.871 177.347 512.729 176.423 511.959C175.162 510.91 174.975 511.523 174.975 516.683ZM79.2819 531.529C78.5619 532.698 80.9245 533.752 83.2515 533.3C84.1674 533.121 85.0978 532.431 85.3179 531.765C85.8082 530.288 80.1814 530.069 79.2819 531.529ZM445.038 511.761C443.779 513.804 445.739 514.712 451.411 514.712C456.418 514.712 457.172 514.479 456.895 513.017C456.642 511.685 455.408 511.261 451.118 511.035C448.039 510.872 445.391 511.189 445.038 511.761ZM158.234 516.636C155.716 519.428 156.151 522.612 159.05 522.612C161.222 522.612 161.463 522.225 161.463 518.738C161.463 514.478 160.655 513.951 158.234 516.636ZM328.823 544.645C324.728 548.754 326.12 554.642 331.689 556.767C337.409 558.949 343.256 552.742 340.886 547.001C338.732 541.781 332.827 540.627 328.823 544.645ZM447.423 517.133C447.423 518.182 448.495 518.586 451.283 518.586C454.072 518.586 455.144 518.182 455.144 517.133C455.144 516.084 454.072 515.68 451.283 515.68C448.495 515.68 447.423 516.084 447.423 517.133ZM331.473 547.304C329.735 549.047 330.076 551.757 332.175 552.883C335.781 554.82 338.963 551.627 337.033 548.009C335.91 545.902 333.21 545.561 331.473 547.304ZM390.654 540.567C390.676 540.967 391.455 542.725 392.384 544.474L394.075 547.655L396.303 545.276L398.53 542.897L395.585 541.369C392.393 539.713 390.59 539.42 390.654 540.567ZM396.404 547.104C396.404 547.903 397.056 548.557 397.852 548.557C398.648 548.557 399.3 547.903 399.3 547.104C399.3 546.305 398.648 545.652 397.852 545.652C397.056 545.652 396.404 546.305 396.404 547.104ZM400.66 549.89C399.842 552.028 400.93 553.119 402.405 551.64C403.275 550.766 403.278 550.225 402.42 549.364C401.561 548.502 401.142 548.627 400.66 549.89ZM382.892 551.027C382.892 552.245 385.9 557.273 386.628 557.273C387.063 557.273 388.176 556.432 389.103 555.406C390.722 553.61 390.674 553.481 387.852 552.016C384.86 550.464 382.892 550.071 382.892 551.027ZM403.603 553.464C402.715 554.906 403.745 555.69 405.593 554.979C406.446 554.65 406.873 553.943 406.542 553.406C405.76 552.136 404.404 552.163 403.603 553.464ZM389.3 556.008C388.146 557.166 388.677 559.21 390.131 559.21C390.927 559.21 391.579 558.582 391.579 557.814C391.579 556.196 390.201 555.105 389.3 556.008ZM407.021 557.757C407.021 558.556 407.672 559.21 408.469 559.21C409.265 559.21 409.916 558.556 409.916 557.757C409.916 556.958 409.265 556.305 408.469 556.305C407.672 556.305 407.021 556.958 407.021 557.757ZM129.516 557.875C129.137 558.254 128.828 562.196 128.828 566.635V574.705H120.818C115.874 574.705 112.364 575.15 111.649 575.867C110.149 577.372 110.149 584.628 111.649 586.133C112.363 586.849 115.865 587.295 120.78 587.295H128.753L129.032 595.749C129.304 603.995 129.376 604.224 131.965 605.136C133.67 605.735 135.569 605.735 137.273 605.136C139.863 604.224 139.934 603.995 140.207 595.749L140.485 587.295H148.459C153.373 587.295 156.876 586.849 157.59 586.133C159.09 584.628 159.09 577.372 157.59 575.867C156.876 575.151 153.373 574.705 148.459 574.705H140.485L140.207 566.231L139.928 557.757L135.065 557.472C132.39 557.315 129.893 557.496 129.516 557.875ZM130.759 568.41V577.611H122.072H113.386V581V584.39H122.072H130.759V593.59V602.79H134.619H138.48V593.59V584.39H147.166H155.853V581V577.611H147.166H138.48V568.41V559.21H134.619H130.759V568.41ZM392.129 560.069C391.838 560.541 392.208 561.434 392.951 562.052C394.456 563.306 395.996 561.865 394.957 560.178C394.218 558.979 392.833 558.925 392.129 560.069ZM411.03 560.603C411.215 561.491 411.798 562.195 412.329 562.167C413.762 562.09 413.499 559.924 411.995 559.421C411.184 559.15 410.823 559.592 411.03 560.603ZM375.171 561.598C375.171 563.448 378.685 568.863 379.644 568.494C380.301 568.242 381 568.525 381.198 569.123C381.417 569.783 382.299 569.924 383.433 569.483C385.11 568.831 385.146 568.638 383.772 567.615C382.93 566.987 382.414 565.954 382.628 565.32C382.841 564.685 381.706 563.487 380.106 562.657C377.231 561.164 375.171 560.723 375.171 561.598ZM395.439 564.536C395.439 565.534 396.071 566.008 397.128 565.805C399.163 565.412 399.034 563.693 396.938 563.255C396.064 563.072 395.439 563.606 395.439 564.536ZM414.22 564.117C413.332 565.559 414.362 566.343 416.209 565.632C417.062 565.303 417.49 564.595 417.159 564.059C416.377 562.789 415.021 562.815 414.22 564.117ZM399.694 567.322C398.877 569.46 399.965 570.552 401.439 569.072C402.31 568.198 402.313 567.657 401.455 566.796C400.596 565.934 400.177 566.059 399.694 567.322ZM418.254 566.661C417.101 567.818 417.632 569.863 419.085 569.863C419.882 569.863 420.533 569.235 420.533 568.467C420.533 566.849 419.156 565.758 418.254 566.661ZM385.217 571.195C384.4 573.334 385.487 574.425 386.962 572.945C387.833 572.072 387.836 571.531 386.978 570.67C386.119 569.808 385.7 569.933 385.217 571.195ZM402.674 570.838C402.343 571.375 402.77 572.083 403.624 572.411C405.471 573.122 406.501 572.338 405.613 570.896C404.812 569.595 403.456 569.569 402.674 570.838ZM421.647 571.255C421.831 572.144 422.415 572.848 422.946 572.82C424.378 572.743 424.116 570.577 422.612 570.074C421.8 569.803 421.439 570.245 421.647 571.255ZM388.197 574.712C387.866 575.248 388.293 575.956 389.146 576.285C390.994 576.996 392.023 576.212 391.136 574.77C390.334 573.468 388.978 573.442 388.197 574.712ZM406.056 575.189C406.056 575.988 406.707 576.642 407.504 576.642C408.3 576.642 408.951 575.988 408.951 575.189C408.951 574.39 408.3 573.737 407.504 573.737C406.707 573.737 406.056 574.39 406.056 575.189ZM424.394 575.189C424.394 576.187 425.026 576.661 426.083 576.458C428.117 576.065 427.989 574.346 425.893 573.908C425.018 573.725 424.394 574.259 424.394 575.189ZM204.884 551.388C201.739 552.758 201.666 552.922 201.988 557.868L202.319 562.941L197.011 562.961L191.703 562.98L190.779 566.732C189.808 570.677 190.105 571.167 195.69 574.81C197.375 575.908 197.256 576.185 193.874 579.02C189.926 582.329 189.339 584.965 191.774 588.452C193.129 590.394 193.818 590.559 198.158 589.982L203.021 589.334L202.363 594.141C201.619 599.558 202.451 600.824 207.401 601.818C210.028 602.345 210.624 602.015 212.616 598.93C213.854 597.014 215.3 595.445 215.831 595.442C216.362 595.439 217.83 596.959 219.093 598.82C221.665 602.61 222.828 602.878 227.092 600.666C229.963 599.176 230.033 598.982 229.405 594.23L228.757 589.331L233.561 589.901C239.057 590.555 240.235 589.711 241.073 584.528C241.561 581.507 241.296 581.021 238.131 579.147C236.217 578.015 234.652 576.693 234.652 576.212C234.652 575.73 236.169 574.298 238.023 573.032C241.753 570.483 242.144 568.671 239.902 564.321C238.555 561.706 238.073 561.471 235.318 562.086C229.328 563.425 229.32 563.419 229.618 557.86C229.886 552.831 229.831 552.715 226.512 551.323C221.797 549.346 221.331 549.47 219.081 553.296C217.986 555.16 216.531 556.685 215.851 556.685C215.17 556.685 213.453 555.16 212.036 553.296C209.116 549.454 209.243 549.488 204.884 551.388ZM410.311 577.975C409.494 580.113 410.581 581.204 412.056 579.725C412.927 578.851 412.93 578.31 412.072 577.449C411.213 576.587 410.794 576.712 410.311 577.975ZM428.649 577.975C427.832 580.113 428.919 581.204 430.394 579.725C431.264 578.851 431.267 578.31 430.409 577.449C429.55 576.587 429.132 576.712 428.649 577.975ZM205.456 553.479C203.537 553.982 203.403 554.94 204.644 559.285C205.93 563.781 203.476 565.766 197.707 564.899C193.614 564.283 193.373 564.379 192.748 566.877C192.387 568.322 192.221 569.594 192.379 569.703C192.538 569.813 194.08 570.881 195.804 572.076C199.984 574.972 199.896 577.814 195.535 580.794C192.884 582.606 192.277 583.557 192.756 585.152C193.72 588.366 194.416 588.672 198.312 587.592C203.511 586.152 205.071 587.667 204.502 593.603C204.11 597.71 204.301 598.262 206.455 599.247C207.767 599.847 208.927 600.213 209.03 600.059C214.392 592.112 216.519 591.519 220.567 596.844C222.878 599.883 223.347 600.097 225.521 599.103C227.635 598.137 227.848 597.59 227.298 594.535C226.956 592.626 226.514 590.883 226.318 590.659C226.122 590.437 226.657 589.482 227.509 588.538C228.747 587.165 230.005 586.935 233.784 587.383C236.818 587.744 238.512 587.578 238.512 586.921C238.512 586.358 238.765 585.235 239.075 584.426C239.447 583.453 238.472 582.198 236.191 580.715C231.687 577.787 231.696 575.13 236.228 571.483C239.409 568.922 239.624 568.455 238.548 566.438C237.511 564.492 236.876 564.293 233.465 564.841C227.976 565.721 225.986 563.805 226.941 558.562C227.525 555.359 227.345 554.521 225.906 553.748C223.12 552.252 222.255 552.606 219.942 556.189C217.058 560.657 214.235 560.662 211.488 556.201C209.435 552.869 208.829 552.595 205.456 553.479ZM328.265 580.903C325.575 583.602 324.983 584.929 324.983 588.263C324.983 591.598 325.575 592.925 328.265 595.624C331.061 598.429 332.213 598.916 336.06 598.916C339.744 598.916 341.084 598.405 343.346 596.135C348.304 591.16 348.304 585.367 343.346 580.392C341.084 578.122 339.744 577.611 336.06 577.611C332.213 577.611 331.061 578.098 328.265 580.903ZM391.579 579.063C391.579 579.862 392.23 580.516 393.026 580.516C393.823 580.516 394.474 579.862 394.474 579.063C394.474 578.264 393.823 577.611 393.026 577.611C392.23 577.611 391.579 578.264 391.579 579.063ZM395.588 581.908C395.772 582.797 396.356 583.501 396.887 583.473C398.319 583.396 398.057 581.23 396.553 580.727C395.741 580.456 395.38 580.898 395.588 581.908ZM413.476 581.141C412.216 582.404 412.818 583.421 414.822 583.421C415.946 583.421 416.665 582.914 416.451 582.272C415.981 580.856 414.37 580.244 413.476 581.141ZM431.628 581.491C431.297 582.028 431.725 582.735 432.578 583.064C434.425 583.775 435.455 582.991 434.567 581.549C433.766 580.248 432.41 580.221 431.628 581.491ZM398.778 585.423C397.89 586.865 398.919 587.648 400.767 586.938C401.62 586.609 402.048 585.901 401.717 585.365C400.935 584.095 399.579 584.121 398.778 585.423ZM416.672 585.842C416.672 586.641 417.324 587.295 418.12 587.295C418.916 587.295 419.568 586.641 419.568 585.842C419.568 585.043 418.916 584.39 418.12 584.39C417.324 584.39 416.672 585.043 416.672 585.842ZM435.01 585.842C435.01 586.84 435.642 587.314 436.699 587.111C438.734 586.718 438.605 584.999 436.509 584.561C435.635 584.378 435.01 584.912 435.01 585.842ZM402.812 587.967C401.659 589.124 402.189 591.169 403.643 591.169C404.439 591.169 405.091 590.541 405.091 589.773C405.091 588.155 403.713 587.064 402.812 587.967ZM420.682 588.688C420.866 589.576 421.45 590.28 421.981 590.252C423.413 590.175 423.151 588.009 421.647 587.506C420.835 587.235 420.474 587.677 420.682 588.688ZM439.266 588.628C438.448 590.766 439.536 591.857 441.011 590.378C441.881 589.504 441.884 588.963 441.026 588.102C440.167 587.24 439.748 587.365 439.266 588.628ZM208.776 565.426C203.448 568.685 201.353 576.245 204.23 581.827C206.679 586.579 210.193 588.644 215.831 588.644C221.72 588.644 225.427 586.3 227.53 581.249C229.272 577.066 229.209 574.662 227.249 570.518C224.089 563.836 215.324 561.42 208.776 565.426ZM211.971 566.28C210.909 566.746 209.121 568.155 207.995 569.412C200.133 578.196 210.422 590.816 220.98 585.337C223.456 584.053 225.032 581.81 226.351 577.695C227.056 575.494 224.913 570.306 222.358 568.023C220.07 565.979 214.709 565.08 211.971 566.28ZM406.204 592.561C406.389 593.449 406.973 594.154 407.504 594.125C408.936 594.049 408.673 591.883 407.17 591.38C406.358 591.109 405.997 591.551 406.204 592.561ZM423.871 592.202C422.984 593.644 424.013 594.428 425.861 593.717C426.714 593.388 427.141 592.68 426.81 592.144C426.029 590.874 424.673 590.9 423.871 592.202ZM442.43 591.794C441.171 593.057 441.772 594.074 443.777 594.074C444.9 594.074 445.619 593.567 445.406 592.925C444.936 591.509 443.324 590.897 442.43 591.794ZM427.906 594.746C426.753 595.903 427.283 597.948 428.737 597.948C429.533 597.948 430.185 597.32 430.185 596.552C430.185 594.934 428.807 593.843 427.906 594.746ZM409.394 596.076C408.506 597.518 409.536 598.301 411.383 597.591C412.237 597.262 412.664 596.554 412.333 596.018C411.551 594.748 410.195 594.774 409.394 596.076ZM445.627 596.495C445.627 597.294 446.278 597.948 447.075 597.948C447.871 597.948 448.522 597.294 448.522 596.495C448.522 595.696 447.871 595.043 447.075 595.043C446.278 595.043 445.627 595.696 445.627 596.495ZM413.429 598.62C412.275 599.777 412.806 601.822 414.26 601.822C415.056 601.822 415.707 601.194 415.707 600.426C415.707 598.808 414.33 597.716 413.429 598.62ZM431.298 599.34C431.483 600.229 432.067 600.933 432.597 600.905C434.03 600.828 433.767 598.662 432.264 598.159C431.452 597.888 431.091 598.33 431.298 599.34ZM449.488 599.885C449.488 601.133 449.976 601.82 450.694 601.58C451.358 601.358 451.9 600.595 451.9 599.885C451.9 599.175 451.358 598.412 450.694 598.19C449.976 597.95 449.488 598.636 449.488 599.885ZM314.98 603.406C308.463 609.947 315.692 620.777 324.212 617.237C327.142 616.018 329.809 611.962 329.809 608.723C329.809 607.672 328.685 605.472 327.31 603.833C323.97 599.849 318.707 599.667 314.98 603.406ZM296.58 613.996C293.027 617.562 296.294 623.559 301.463 622.958C303.184 622.758 304.689 621.714 305.592 620.091C306.865 617.806 306.84 617.276 305.359 615.007C303.441 612.071 299.008 611.56 296.58 613.996Z" fill="#C2CBD0"/>
<path fill-rule="evenodd" clip-rule="evenodd" d="M284.027 92.8369C282.967 94.6303 282.712 95.8973 283.334 96.2815C283.967 96.6726 284.317 108.072 284.317 128.288V159.688H323.554C357.475 159.688 362.867 159.883 363.347 161.135C363.831 162.394 364.264 162.367 366.705 160.925C370.172 158.878 370.192 158.374 366.871 156.861C365.039 156.027 364.129 155.98 363.886 156.706C363.674 157.344 360.365 157.752 355.39 157.752H347.242V142.816V127.882L350.872 122.011C352.869 118.782 355.003 116.325 355.615 116.553C356.668 116.943 358.027 110.784 357.093 109.85C356.305 109.063 351.051 112.345 351.622 113.268C351.936 113.776 350.778 116.559 349.048 119.45L345.903 124.708L341.888 122.356C339.681 121.062 337.562 120.004 337.18 120.004C336.797 120.004 335.617 121.964 334.557 124.36C333.497 126.755 332.381 128.715 332.077 128.715C331.773 128.715 330.035 127.409 328.216 125.812C326.397 124.215 324.505 122.908 324.012 122.908C323.145 122.908 321.8 126.931 320.509 133.385C319.733 137.262 319.043 137.699 315.702 136.429C313.35 135.535 312.681 135.768 309.917 138.446L306.791 141.476L302.858 139.212L298.925 136.949L295.252 140.471C292.094 143.498 291.272 143.85 289.4 142.981C286.64 141.699 286.405 136.529 289.001 134.181C290.666 132.674 290.893 132.695 292.539 134.515C294.964 137.194 295.717 136.979 297.581 133.071C298.47 131.208 299.493 129.683 299.854 129.683C300.216 129.683 301.731 131.444 303.223 133.595C304.736 135.778 306.582 137.382 307.399 137.225C308.35 137.041 309.732 133.8 311.336 127.989C312.695 123.065 314.095 119.036 314.447 119.036C314.798 119.036 315.464 121.105 315.926 123.634C316.475 126.637 317.257 128.231 318.18 128.231C318.959 128.231 321.652 124.537 324.166 120.022C326.898 115.117 328.923 112.39 329.2 113.247C329.455 114.035 330.052 115.961 330.526 117.525C331.002 119.088 331.846 120.519 332.402 120.705C332.96 120.891 337.015 117.1 341.415 112.282C346.197 107.044 350.049 103.623 350.991 103.777C352.17 103.969 352.642 103.124 352.866 100.405C353.032 98.409 352.901 96.7752 352.577 96.7752C350.746 96.7752 346.411 99.8792 346.806 100.907C347.258 102.086 334.12 115.974 333.369 115.112C333.163 114.875 332.389 112.721 331.647 110.326C330.907 107.93 329.865 106.008 329.333 106.054C328.8 106.101 326.342 109.728 323.871 114.116C321.399 118.503 319.16 121.732 318.896 121.291C318.632 120.849 317.9 117.983 317.27 114.923C315.271 105.202 313.492 107.618 308.364 127.022C307.696 129.551 306.833 131.619 306.445 131.619C306.057 131.619 304.514 129.886 303.016 127.768C301.517 125.65 299.793 123.908 299.186 123.896C298.578 123.886 297.36 125.675 296.48 127.875L294.879 131.874L292.697 129.824C290.642 127.895 290.417 127.871 288.867 129.42C287.318 130.969 287.222 130.064 287.222 114.002C287.222 102.157 287.557 96.8245 288.318 96.5709C289.074 96.3193 288.916 95.243 287.808 93.103C286.926 91.3966 286.091 90 285.953 90C285.816 90 284.949 91.2766 284.027 92.8369ZM335.754 128.844C334.025 133.004 333.689 135.761 333.689 145.782V157.752H339.497H345.306V142.829V127.905L342.045 125.891C340.252 124.783 338.568 123.876 338.302 123.876C338.037 123.876 336.89 126.112 335.754 128.844ZM324.001 131.848C323.421 134.118 322.531 137.238 322.025 138.78C321.518 140.324 321.104 145.246 321.104 149.717V157.849L326.67 157.558L332.237 157.268L332.511 145.75C332.769 134.896 332.657 134.095 330.575 131.869C326.282 127.28 325.172 127.276 324.001 131.848ZM310.645 142.554C307.841 145.446 307.551 146.308 307.551 151.749V157.752H313.359H319.168V149.559C319.168 142.45 318.92 141.233 317.296 140.364C314.54 138.89 314.037 139.054 310.645 142.554ZM296.482 143.334C294.256 145.979 293.948 147.123 294.196 151.829L294.482 157.268L300.092 157.559L305.702 157.85L305.416 150.983C305.145 144.468 304.975 144.017 302.093 142.196L299.055 140.277L296.482 143.334ZM287.222 151.545V157.752H290.126C292.986 157.752 293.03 157.674 293.03 152.64C293.03 147.85 292.848 147.46 290.126 146.433L287.222 145.338V151.545ZM341.276 185.727C339.223 187.913 339.171 188.601 339.171 214.111C339.171 240.188 339.177 240.26 341.411 242.36C343.054 243.902 344.864 244.464 348.188 244.464C353.018 244.464 353.285 244.799 351.729 248.891C351.182 250.33 350.943 251.717 351.2 251.973C351.455 252.229 354.507 250.644 357.979 248.451L364.294 244.464H382.271C400.067 244.464 400.272 244.44 402.623 242.088L405 239.713V213.976V188.239L402.623 185.864L400.248 183.487H371.815H343.381L341.276 185.727ZM365.493 197.974C360.844 200.89 358.931 205.991 360.398 211.556C361.03 213.951 362.285 217 363.186 218.331C364.088 219.662 365.061 221.622 365.349 222.687C365.79 224.315 366.828 224.668 371.883 224.911C377.258 225.168 377.894 225.003 377.894 223.348C377.894 222.329 378.718 220.449 379.725 219.169C382.347 215.835 384.055 209.38 383.332 205.528C381.893 197.861 372.21 193.761 365.493 197.974ZM370.621 204.82C370.246 206 368.843 207.026 367.134 207.368C364.321 207.93 364.307 207.962 366.301 209.358C367.899 210.478 368.192 211.387 367.69 213.671L367.055 216.565L369.595 214.901C372.014 213.317 372.234 213.323 374.194 215.058C376.253 216.878 376.253 216.878 375.65 213.753C375.152 211.171 375.421 210.423 377.196 209.457L379.346 208.287L376.926 207.713C375.595 207.396 374.076 206.172 373.55 204.991C372.36 202.319 371.432 202.264 370.621 204.82ZM366.757 228.017C366.425 228.553 366.789 229.235 367.566 229.533C369.917 230.435 376.266 229.543 376.69 228.252C377.182 226.755 367.676 226.529 366.757 228.017ZM368.694 231.888C367.971 233.056 370.341 234.11 372.675 233.658C373.594 233.479 374.527 232.789 374.748 232.123C375.24 230.647 369.596 230.429 368.694 231.888Z" fill="#C2CBD0"/>
<path fill-rule="evenodd" clip-rule="evenodd" d="M219.448 30.899C219.921 29.5984 221.202 28.0441 222.399 27.3178C225.519 25.4261 230.247 25.5918 232.743 27.6813C233.828 28.5892 235.083 30.2134 235.532 31.2904C236.262 33.0438 236.586 33.2115 238.618 32.8833C244.315 31.9641 247.674 38.7457 243.457 42.6531C242.199 43.8193 241.104 44.0031 235.432 44.0031H228.865V48.9954V53.9878H239.91H250.954V55.9848C250.954 57.9078 251.066 57.9817 253.966 57.9817H256.978V64.9944V72.007L250.117 71.8173L243.256 71.6276V64.9711V58.3146L246.101 58.1102C248.038 57.9704 248.946 57.599 248.946 56.9453C248.946 56.1758 247.68 55.9848 242.587 55.9848C237.494 55.9848 236.228 56.1758 236.228 56.9453C236.228 57.599 237.136 57.9704 239.073 58.1102L241.918 58.3146V64.9711V71.6276L235.033 71.8173L228.148 72.0077L228.34 65.1608L228.53 58.3146L231.375 58.1102C233.312 57.9704 234.22 57.599 234.22 56.9453C234.22 56.1725 232.911 55.9848 227.526 55.9848C222.023 55.9848 220.833 56.1625 220.833 56.9833C220.833 57.7228 221.614 57.9817 223.845 57.9817H226.857V64.9944V72.007L219.996 71.8173L213.135 71.6276V64.9711V58.3146L215.98 58.1102C217.917 57.9704 218.825 57.599 218.825 56.9453C218.825 56.1758 217.559 55.9848 212.466 55.9848C207.373 55.9848 206.107 56.1758 206.107 56.9453C206.107 57.599 207.014 57.9704 208.952 58.1102L211.796 58.3146V64.9711V71.6276H205.103H198.409V64.9711V58.3146L201.254 58.1102C203.904 57.9192 204.099 57.7721 204.099 55.9628V54.0198L215.311 53.8374L226.522 53.655V48.9954V44.3359L219.844 44.1435C211.881 43.9145 210.123 42.8987 210.123 38.5314C210.123 34.8011 212.648 32.4021 216.092 32.8614C218.471 33.1789 218.659 33.0691 219.448 30.899ZM200.083 69.9635V64.9711V59.9787H205.103H210.123V64.9711V69.9635H205.103H200.083ZM214.809 69.9635V64.9711V59.9787H219.829H224.849V64.9711V69.9635H219.829H214.809ZM230.204 69.9635V64.9711V59.9787H235.224H240.244V64.9711V69.9635H235.224H230.204ZM244.93 69.9635V64.9711V59.9787H249.95H254.97V64.9711V69.9635H249.95H244.93ZM153.294 126.625C153.294 125.283 153.495 123.985 153.74 123.742C155.051 122.438 155.971 123.461 155.971 126.219C155.971 129.042 156.052 129.156 158.361 129.586C159.676 129.832 161.107 130.164 161.541 130.325C161.975 130.486 162.835 129.42 163.452 127.956C164.087 126.451 165.031 125.295 165.627 125.295C166.942 125.295 166.95 126.028 165.668 129.08C165.111 130.405 164.735 131.542 164.832 131.605C164.929 131.668 166.158 132.408 167.563 133.249L170.118 134.778L171.95 133.032C172.958 132.071 174.142 131.286 174.583 131.286C175.962 131.286 175.455 133.648 173.729 135.261C172.114 136.77 172.102 136.85 173.227 138.756C175.049 141.842 175.711 142.145 178.032 140.952C179.173 140.365 180.4 140.064 180.757 140.284C182.11 141.115 181.321 142.546 179.064 143.358C176.553 144.261 176.525 144.328 177.146 148.06C177.543 150.448 177.649 150.53 180.653 150.723C182.87 150.866 183.75 151.206 183.75 151.921C183.75 152.64 182.86 152.976 180.57 153.122C178.67 153.243 177.388 153.645 177.383 154.121C177.379 154.558 177.195 156.005 176.974 157.336C176.589 159.65 176.677 159.791 178.989 160.55C181.271 161.299 182.135 162.711 180.809 163.526C180.48 163.728 179.13 163.445 177.809 162.895L175.407 161.898L173.618 164.587L171.828 167.275L173.606 169.12C176.809 172.445 175.292 173.994 171.95 170.81L170.118 169.064L167.563 170.593C166.158 171.434 164.929 172.173 164.832 172.237C164.735 172.3 165.111 173.437 165.668 174.762C166.95 177.813 166.942 178.547 165.627 178.547C165.031 178.547 164.087 177.391 163.452 175.886C162.835 174.422 161.975 173.356 161.541 173.517C161.107 173.678 159.676 174.01 158.361 174.255C156.045 174.687 155.971 174.793 155.971 177.672C155.971 180.14 155.774 180.604 154.8 180.421C153.954 180.261 153.573 179.443 153.428 177.48C153.234 174.849 153.13 174.74 150.209 174.075L147.191 173.389L146.154 175.967C145.195 178.351 144.073 179.14 143.066 178.139C142.84 177.914 143.129 176.554 143.708 175.115C144.286 173.678 144.647 172.416 144.508 172.313C144.37 172.209 143.257 171.438 142.034 170.597L139.811 169.069L137.981 170.813C136.032 172.671 133.882 173.127 133.882 171.682C133.882 171.201 134.77 169.963 135.855 168.929L137.828 167.049L136.049 164.644C135.071 163.321 134.23 162.16 134.179 162.063C134.129 161.967 132.974 162.351 131.613 162.917C127.321 164.7 126.334 162.706 130.469 160.608C133.023 159.312 133.068 159.227 132.493 156.767C132.171 155.383 131.899 154.043 131.89 153.789C131.882 153.536 130.594 153.237 129.029 153.124C127.039 152.981 126.185 152.62 126.185 151.921C126.185 151.222 127.039 150.861 129.029 150.718C130.594 150.605 131.882 150.305 131.89 150.052C131.899 149.799 132.176 148.434 132.506 147.02C133.102 144.467 133.088 144.443 130.482 143.424C127.999 142.455 127.134 141.128 128.456 140.316C128.785 140.114 130.173 140.413 131.541 140.981C132.908 141.549 134.082 141.921 134.149 141.809C134.216 141.696 135.071 140.521 136.049 139.198L137.828 136.793L135.855 134.913C133.822 132.976 133.275 131.286 134.682 131.286C135.123 131.286 136.323 132.087 137.352 133.066C139.328 134.949 140.016 134.862 143.506 132.278C144.689 131.402 144.701 131.194 143.709 128.73C143.13 127.29 142.84 125.928 143.066 125.703C144.073 124.702 145.195 125.49 146.154 127.874L147.191 130.453L150.243 129.759C153.183 129.09 153.294 128.975 153.294 126.625ZM110.728 213.913C112.214 213.159 114.564 212.277 115.95 211.952C117.337 211.627 119.3 211.331 120.312 211.294L122.152 211.227V223.209C122.152 230.019 121.888 235.191 121.539 235.191C121.007 235.191 114.03 225.05 109.541 217.749L108.026 215.284L110.728 213.913ZM122.822 257.905V234.566C122.822 217.227 122.525 212.239 124.286 211.373C125.224 210.912 126.746 211.621 129.208 212.255C135.848 213.966 140.711 217.863 144.124 224.208C145.739 227.21 145.915 228.222 145.915 234.525C145.915 240.58 145.705 241.905 144.346 244.438C140.606 251.412 133.58 256.399 126.001 257.46L122.822 257.905ZM124.161 255.826V234.278V212.73L127.233 213.302C134.373 214.628 140.998 220.21 143.616 227.105C145.397 231.796 145.16 238.608 143.053 243.335C140.241 249.642 131.704 255.826 125.809 255.826H124.161ZM112.274 214.943C113.473 214.459 114.907 213.898 115.459 213.696C116.011 213.495 117.441 213.306 118.638 213.277L120.814 213.224V222.353C120.814 227.473 120.907 230.111 120.249 230.311C119.547 230.524 117.99 227.962 114.553 222.679L110.093 215.824L112.274 214.943ZM146.117 169.989C129.883 161.745 131.29 138.984 148.409 132.911C151.923 131.665 157.149 131.737 161.417 133.09C164.047 133.924 166.005 135.214 168.739 137.916C174.503 143.613 176.25 151.185 173.592 158.958C172.004 163.602 166.182 169.288 161.397 170.869C156.776 172.395 150.098 172.011 146.117 169.989ZM152.027 139.939C152.747 139.939 153.509 139.49 153.721 138.941C154.205 137.685 155.232 137.651 155.704 138.875C155.902 139.389 157.045 139.991 158.243 140.215C161.064 140.741 163.47 142.977 163.205 144.826C162.908 146.904 160.577 146.973 158.675 144.959C156.453 142.608 155.971 142.825 155.971 146.18C155.971 148.831 156.138 149.125 157.83 149.461C162.364 150.363 164.948 154.703 163.303 158.653C162.439 160.726 159.655 162.571 157.39 162.571C156.542 162.571 155.987 163.092 155.851 164.017C155.557 166 154.116 166.322 153.847 164.465C153.687 163.358 153.035 162.834 151.41 162.505C148.43 161.902 145.931 159.469 145.931 157.169C145.931 153.785 148.804 153.83 150.752 157.244C152.487 160.285 153.963 159.868 153.963 156.338C153.963 153.506 153.887 153.404 150.937 152.284C147.387 150.935 145.607 148.246 146.272 145.234C146.763 143.012 150.103 139.939 152.027 139.939ZM151.911 147.904C150.298 147.045 150.229 144.889 151.788 143.986C153.69 142.885 153.963 143.129 153.963 145.93C153.963 148.82 153.845 148.933 151.911 147.904ZM96.7167 242.844C96.7167 241.515 97.4543 241.296 107.259 239.713C113.058 238.777 118.329 237.975 118.973 237.932C120.049 237.86 120.144 238.842 120.144 249.927V262L116.391 261.561C110.971 260.928 106.048 258.362 102.183 254.156C98.9972 250.69 96.7167 245.97 96.7167 242.844ZM103.887 254.044C103.546 253.834 106.381 250.555 110.188 246.757C113.994 242.958 117.561 239.85 118.113 239.85C118.666 239.85 115.83 243.129 111.812 247.137C107.795 251.146 104.228 254.253 103.887 254.044ZM101.179 250.723C100.912 250.457 102.878 248.051 105.549 245.378C110.128 240.794 111.443 239.825 111.443 241.032C111.443 241.985 101.671 251.212 101.179 250.723ZM158.023 158.554C156.089 159.583 155.971 159.47 155.971 156.58C155.971 153.837 156.926 153.137 158.515 154.717C159.721 155.916 159.483 157.777 158.023 158.554ZM99.2275 246.737C98.8868 246.528 99.5976 245.342 100.806 244.102C102.015 242.862 103.457 241.847 104.012 241.847C104.645 241.847 104.056 242.83 102.433 244.483C101.01 245.932 99.5675 246.946 99.2275 246.737ZM107.204 256.713C106.935 256.446 109.203 253.741 112.244 250.702C117.442 245.506 118.806 244.464 118.806 245.69C118.806 246.646 107.695 257.203 107.204 256.713ZM111.22 258.71C110.955 258.447 112.317 256.643 114.247 254.7C117.589 251.335 118.806 250.531 118.806 251.688C118.806 252.633 111.712 259.2 111.22 258.71ZM116.612 259.82C116.232 259.82 116.468 259.219 117.136 258.485C117.804 257.75 118.496 257.294 118.674 257.47C119.124 257.918 117.454 259.82 116.612 259.82ZM234.928 142.748C234.017 142.748 234.019 142.533 234.946 140.751C235.517 139.652 236.229 138.754 236.529 138.754C237.457 138.754 238.835 142.346 238.011 142.619C237.58 142.762 237.288 144.851 237.288 147.795C237.288 150.643 237.005 152.733 236.619 152.733C236.232 152.733 235.95 150.624 235.95 147.74C235.95 143.709 235.753 142.748 234.928 142.748ZM218.141 150.736C217.308 150.736 216.538 149.272 216.538 147.686C216.538 146.636 216.845 146.574 219.086 147.171C219.938 147.398 220.488 147.951 220.312 148.406C220.137 148.858 221.476 150.68 223.287 152.454C226.287 155.392 227.407 157.392 226.051 157.392C225.761 157.392 224.041 155.894 222.228 154.064C220.414 152.233 218.576 150.736 218.141 150.736ZM252.514 148.811C252.421 148.255 253.075 147.622 254.022 147.351C256.421 146.668 256.7 146.669 256.7 147.364C256.7 148.729 255.33 151.46 254.806 151.138C254.499 150.95 252.777 152.28 250.981 154.094C248.004 157.099 245.99 158.219 245.99 156.868C245.99 156.579 247.495 154.869 249.334 153.068C251.174 151.267 252.604 149.35 252.514 148.811ZM228.157 161.562C228.775 160.378 230.405 158.818 231.778 158.097C236.049 155.854 240.585 156.694 243.982 160.356C245.422 161.908 245.655 162.785 245.655 166.647C245.655 170.392 245.361 171.578 243.875 173.81C242.896 175.282 241.992 177.207 241.867 178.089C241.649 179.62 241.414 179.691 236.619 179.691C231.771 179.691 231.591 179.634 231.371 178.027C231.245 177.112 230.754 175.914 230.279 175.365C227.139 171.728 226.163 165.384 228.157 161.562ZM232.491 163.557C233.105 163.334 233.848 162.753 234.142 162.268C234.755 161.258 236.36 161.096 236.915 161.989C237.121 162.321 237.849 162.447 238.533 162.269C239.452 162.03 240.124 162.611 241.116 164.505C242.433 167.017 242.434 167.105 241.207 169.383C240.253 171.155 239.367 171.827 237.459 172.225C235.648 172.604 234.775 172.501 234.284 171.851C233.911 171.359 233.105 170.768 232.491 170.539C231.671 170.234 231.376 169.309 231.376 167.044C231.376 164.776 231.67 163.857 232.491 163.557ZM209.659 167.989C207.383 166.958 207.385 166.637 209.678 165.332C211.179 164.479 211.617 164.448 212.053 165.166C212.42 165.769 214.157 166.046 217.576 166.046C220.454 166.046 222.562 166.327 222.562 166.711C222.562 167.099 220.349 167.377 217.263 167.377C214.063 167.377 211.869 167.662 211.723 168.096C211.555 168.596 210.926 168.563 209.659 167.989ZM255.528 166.184C258.382 166.077 260.716 165.703 260.716 165.352C260.716 164.363 261.758 164.594 263.453 165.96L265 167.205L262.858 168.307C261.68 168.913 260.716 169.114 260.716 168.753C260.716 168.393 258.382 168.011 255.528 167.904C252.647 167.796 250.341 167.414 250.341 167.044C250.341 166.674 252.647 166.292 255.528 166.184ZM217.813 182.687C218.428 182.687 220.414 181.189 222.228 179.359C224.041 177.528 225.761 176.03 226.051 176.03C227.407 176.03 226.287 178.03 223.287 180.969C221.476 182.743 220.142 184.575 220.321 185.041C220.525 185.57 219.857 186.062 218.546 186.348C215.993 186.906 215.895 186.825 216.341 184.517C216.558 183.391 217.124 182.687 217.813 182.687ZM249.349 181.035C247.501 179.225 245.99 177.509 245.99 177.221C245.99 175.87 248.004 176.988 250.975 179.989C252.769 181.799 254.53 183.223 254.891 183.151C255.25 183.079 255.778 183.844 256.064 184.85C256.496 186.369 256.375 186.681 255.358 186.681C253.409 186.681 252.073 185.973 252.404 185.115C252.571 184.68 251.197 182.845 249.349 181.035ZM236.707 183.352C232.774 183.352 231.415 182.729 232.288 181.324C232.533 180.931 234.369 180.713 236.505 180.825C239.48 180.981 240.335 181.272 240.511 182.188C240.703 183.193 240.18 183.352 236.707 183.352ZM236.619 186.015C234.685 186.015 233.942 185.738 233.942 185.017C233.942 184.296 234.685 184.018 236.619 184.018C238.553 184.018 239.296 184.296 239.296 185.017C239.296 185.738 238.553 186.015 236.619 186.015Z" fill="#C2CBD0"/>
<path fill-rule="evenodd" clip-rule="evenodd" d="M112.839 219.697C117.422 224.392 118.932 227.823 119.293 234.359C119.653 240.88 120.706 240.502 107.755 238.497C96.6212 236.774 96 236.633 96 235.832C96 234.618 107.876 216.889 108.815 216.701C109.322 216.599 111.133 217.947 112.839 219.697ZM117.935 234.341C117.52 229.201 115.715 224.95 112.397 221.297C111.024 219.786 109.644 218.55 109.33 218.55C108.746 218.55 98.7484 233.434 98.4874 234.692C98.3622 235.295 102.31 236.092 115.673 238.162L118.276 238.564L117.935 234.341Z" fill="#C2CBD0"/>
</svg>
